<svg width="186" height="23" viewBox="0 0 186 23" fill="none" xmlns="http://www.w3.org/2000/svg">
<path d="M144.999 0.691583C140.587 0.556176 135.817 2.90316 133.555 7.32013C132.152 9.81302 131.081 12.589 130.369 15.3134C130.305 15.5544 130.246 15.7952 130.19 16.0348C130.119 16.4221 130.113 16.9192 130.152 17.427C130.326 19.5718 132.387 22.1646 135.783 22.3123H138.079H138.104H139.812C144.221 22.4477 148.989 20.1006 151.253 15.6836C152.656 13.1894 153.727 10.4113 154.439 7.68832C154.502 7.44589 154.563 7.20508 154.618 6.96677C154.691 6.57821 154.696 6.0824 154.656 5.57468C154.482 3.42843 152.421 0.837822 149.025 0.691583H146.702H144.999H144.999ZM69.3643 0.890469L71.1681 22.1028H72.2897H74.5514H74.7849C74.779 22.1017 74.7701 22.1028 74.7642 22.1028C74.7892 22.1028 74.814 22.1028 74.8375 22.1028H74.9771C75.6965 22.0822 76.339 21.7351 76.7214 21.2057H76.7238L91.4702 0.890469H87.6565L77.0923 15.472L75.8539 0.890469H69.3643H69.3643ZM94.1049 0.890469L85.6421 22.1028H92.1386L100.599 0.890469H94.1049ZM109.348 0.890469C103.513 0.956547 100.934 6.95637 104.122 10.8005C105.739 12.6258 108.049 14.5186 109.353 16.5172C110.179 17.5977 109.295 19.4003 107.716 19.4179H104.509H97.4127L96.346 22.1028H109.392C114.505 22.0887 117.964 16.5242 114.533 12.2562C112.949 10.0937 110.438 8.61797 108.952 6.50563C108.069 5.40342 108.957 3.59427 110.552 3.57531H113.86H120.141L121.21 0.890469H109.348ZM125.706 0.890469L117.248 22.1028H123.742L132.203 0.890469H125.706ZM160.771 0.890469L152.273 22.1028H155.62L161.476 7.48305L161.505 7.74541L166.766 20.8756C167.081 21.5662 167.805 22.0607 168.654 22.1028H171.715L180.214 0.890469H176.868L171.124 15.2266L165.01 0.890469H164.117H160.771H160.771ZM146.482 2.88561C147.707 2.97227 148.68 3.92456 148.68 5.07963C148.689 5.36399 148.636 5.64455 148.522 5.90052L144.23 16.7034C143.364 18.7765 141.351 20.0469 138.96 20.1118H138.326C137.101 20.0252 136.128 19.0729 136.128 17.9178C136.119 17.6335 136.173 17.3494 136.289 17.0949L140.578 6.2919C141.446 4.21877 143.459 2.95136 145.853 2.88767H146.482V2.88561Z" fill="black"/>
<path d="M9.16498 0.890893L0.702148 22.1032H7.59923L11.6464 11.9583H19.8574L15.8103 22.1032H21.1988C22.1101 22.1032 22.893 21.5715 23.2109 20.8295C23.2145 20.8187 23.218 20.8154 23.2227 20.81L31.1682 0.890352H24.2711L21.0137 9.05712H12.8026L16.06 0.890352H9.16525L9.16498 0.890893ZM35.5515 0.890893L27.091 22.1032H33.9858L42.4463 0.890893H42.2472H35.753H35.5515ZM47.139 0.890893L38.6785 22.1032H45.5732L48.8169 13.9682L50.5406 12.7453L55.1143 20.9416L55.1166 20.9308C55.1225 20.9416 55.1248 20.9449 55.1283 20.9503C55.5034 21.6694 56.3268 22.1434 57.2366 22.0865C57.2205 22.0865 57.2029 22.0974 57.184 22.0974H63.0395L55.7556 9.04326L67.2446 0.88916H62.0918L50.8523 8.86549L54.0341 0.88916H47.1394L47.139 0.890893Z" fill="#D71820"/>
<path d="M185.298 2.76599C185.298 3.94814 184.294 4.87433 182.989 4.87433C181.697 4.87433 180.667 3.94814 180.667 2.76599C180.667 1.60961 181.697 0.682129 182.989 0.682129C184.294 0.682129 185.298 1.60961 185.298 2.76599ZM181.244 2.76599C181.244 3.69358 181.986 4.43019 183.002 4.43019C183.993 4.43019 184.721 3.69358 184.721 2.77823C184.721 1.85204 183.993 1.10189 182.989 1.10189C181.986 1.10189 181.244 1.85204 181.244 2.76599ZM182.632 3.85877H182.11V1.77481C182.315 1.73689 182.604 1.7109 182.976 1.7109C183.401 1.7109 183.594 1.77481 183.758 1.86385C183.883 1.95268 183.978 2.11842 183.978 2.32153C183.978 2.55042 183.786 2.72775 183.511 2.80358V2.82957C183.73 2.9054 183.855 3.05836 183.924 3.3373C183.993 3.65556 184.034 3.78284 184.088 3.85867H183.525C183.456 3.78284 183.415 3.59186 183.347 3.35084C183.306 3.12205 183.168 3.02044 182.879 3.02044H182.632V3.85867V3.85877ZM182.645 2.67662H182.892C183.181 2.67662 183.415 2.58887 183.415 2.37201C183.415 2.18244 183.264 2.05515 182.933 2.05515C182.797 2.05515 182.7 2.06707 182.645 2.08007V2.67716V2.67662Z" fill="#6C6E71"/>
</svg>
