<svg width="75" height="75" viewBox="0 0 75 75" fill="none" xmlns="http://www.w3.org/2000/svg">
<path d="M56.25 30.4688H51.5625C51.5606 28.6045 50.8193 26.8172 49.501 25.499C48.1828 24.1807 46.3955 23.4394 44.5312 23.4375V18.75C47.6381 18.7537 50.6167 19.9896 52.8135 22.1865C55.0104 24.3833 56.2463 27.3619 56.25 30.4688Z" fill="black"/>
<path d="M65.625 30.4688H60.9375C60.9325 26.1191 59.2024 21.949 56.1267 18.8733C53.051 15.7976 48.8809 14.0675 44.5312 14.0625V9.375C50.1238 9.3812 55.4854 11.6056 59.4399 15.5601C63.3944 19.5146 65.6188 24.8762 65.625 30.4688Z" fill="black"/>
<path d="M60.9374 67.9687H60.539C14.4843 65.3203 7.94524 26.4609 7.03118 14.6016C6.88832 12.7424 7.48981 10.9026 8.70336 9.48685C9.9169 8.07113 11.6431 7.19542 13.5023 7.05235C13.6882 7.03828 13.8749 7.03125 14.0624 7.03125H26.414C27.3528 7.03034 28.2702 7.31135 29.0475 7.83788C29.8248 8.36441 30.426 9.1122 30.7734 9.98438L34.3359 18.75C34.6789 19.6021 34.764 20.5361 34.5807 21.4362C34.3973 22.3362 33.9536 23.1625 33.3046 23.8125L28.3124 28.8516C29.0891 33.2844 31.2102 37.3711 34.3882 40.5574C37.5662 43.7438 41.6473 45.8757 46.0781 46.6641L51.164 41.625C51.8238 40.9832 52.6579 40.5498 53.5623 40.3789C54.4668 40.208 55.4015 40.3072 56.2499 40.6641L65.0859 44.2031C65.9449 44.5614 66.6778 45.1674 67.1912 45.9438C67.7046 46.7201 67.9753 47.6318 67.9687 48.5625V60.9375C67.9687 62.8023 67.2279 64.5907 65.9093 65.9093C64.5907 67.228 62.8022 67.9687 60.9374 67.9687ZM14.0624 11.7188C13.7546 11.7178 13.4497 11.7775 13.165 11.8945C12.8803 12.0114 12.6214 12.1833 12.4031 12.4002C12.1848 12.6172 12.0114 12.8751 11.8927 13.1591C11.7741 13.4431 11.7126 13.7477 11.7116 14.0555C11.7116 14.1211 11.714 14.1859 11.7187 14.25C12.7968 28.125 19.7109 60.9375 60.7968 63.2812C61.4171 63.3184 62.0268 63.1077 62.4918 62.6954C62.9568 62.2832 63.2391 61.7031 63.2765 61.0828L63.2812 60.9375V48.5625L54.4452 45.0234L47.7187 51.7031L46.5937 51.5625C26.2031 49.0078 23.4374 28.6172 23.4374 28.4062L23.2968 27.2813L29.9531 20.5547L26.4374 11.7188H14.0624Z" fill="black"/>
</svg>
