<svg width="197" height="59" viewBox="0 0 197 59" fill="none" xmlns="http://www.w3.org/2000/svg">
<g clip-path="url(#clip0_92_1530)">
<path fill-rule="evenodd" clip-rule="evenodd" d="M0.0078125 53.0189H186.875V8.97705H0.0078125V53.0189Z" fill="#5BC3CD"/>
<path fill-rule="evenodd" clip-rule="evenodd" d="M53.4814 51.3443H184.863V10.6499H53.4814V51.3443Z" fill="white"/>
<path fill-rule="evenodd" clip-rule="evenodd" d="M4.98975 13.7881H37.5553C44.041 13.7881 49.3471 18.9343 49.3471 25.2212V25.8515C49.3471 32.1413 44.041 37.286 37.5553 37.286H21.8675V48.4047H4.98975V13.7881Z" fill="white"/>
<path fill-rule="evenodd" clip-rule="evenodd" d="M27.3592 15.603C27.8012 15.6279 28.2371 15.6805 28.6624 15.7595C29.3547 16.2304 29.9927 16.7905 30.5644 17.4237C31.3803 18.3275 32.0606 19.3804 32.5704 20.5416C31.7408 20.7712 30.8313 20.9525 29.8645 21.0783C29.4663 19.3936 28.8524 17.8815 28.0757 16.6282C27.8494 16.264 27.6111 15.9218 27.3592 15.603ZM30.0304 16.1046C32.041 16.7613 33.774 18.0028 35.0153 19.6203C34.8192 19.7212 34.6126 19.8177 34.3969 19.9113C34.0018 20.0809 33.5764 20.2374 33.1239 20.3807C32.587 19.1406 31.866 18.0175 30.9972 17.0567C30.6926 16.7188 30.3698 16.4015 30.0304 16.1046ZM35.3471 20.0795C36.2883 21.4585 36.8841 23.0788 37.0198 24.8235C36.1526 25.1672 35.2024 25.4684 34.1873 25.72C34.1873 25.6732 34.1873 25.6264 34.1873 25.581H34.1888V25.5796H34.1873C34.1873 23.9197 33.8841 22.3389 33.3351 20.8969C33.7936 20.7536 34.2265 20.5942 34.6292 20.4202C34.8796 20.312 35.1194 20.1979 35.3471 20.0795ZM37.047 25.4158C37.047 25.4699 37.0485 25.5255 37.0485 25.5796C37.0485 27.3461 36.5764 29.0045 35.7468 30.4435C34.869 30.6848 33.9505 30.8925 32.9987 31.0621C33.6654 29.6173 34.0772 28.0072 34.1692 26.3005C35.1978 26.0534 36.1616 25.7565 37.047 25.4158ZM35.3094 31.1367C34.0545 32.9501 32.2054 34.3438 30.0304 35.0545C30.3698 34.7591 30.6926 34.4403 30.9972 34.1039C31.6503 33.3815 32.2205 32.5655 32.691 31.6793C33.593 31.5316 34.4678 31.3488 35.3094 31.1367ZM28.6624 35.4011C28.2355 35.4786 27.8012 35.5312 27.3592 35.5561C27.6111 35.2358 27.8494 34.8966 28.0757 34.531C28.5312 33.7968 28.9309 32.9706 29.2642 32.0756C30.1903 32.0127 31.0953 31.9176 31.9761 31.7904C31.5704 32.4953 31.0953 33.1475 30.5644 33.7354C29.9927 34.3701 29.3532 34.9287 28.6624 35.4011ZM26.1209 35.5561C25.679 35.5312 25.2431 35.4786 24.8178 35.4011C24.1254 34.9287 23.4874 34.3701 22.9158 33.7354C22.3849 33.1475 21.9113 32.4953 21.504 31.7904C22.3849 31.9176 23.2899 32.0127 24.2159 32.0756C24.5493 32.9706 24.949 33.7968 25.4045 34.531C25.6307 34.8966 25.869 35.2358 26.1209 35.5561ZM23.4497 35.0545C21.2748 34.3438 19.4256 32.9501 18.1707 31.1367C19.0123 31.3488 19.8871 31.5316 20.7891 31.6793C21.2612 32.5655 21.8298 33.3815 22.4829 34.1039C22.7876 34.4403 23.1104 34.7591 23.4497 35.0545ZM17.7333 30.4435C16.9052 29.0045 16.4316 27.3461 16.4316 25.5796C16.4316 25.5255 16.4331 25.4699 16.4331 25.4158C17.3185 25.7565 18.2823 26.0534 19.311 26.3005C19.403 28.0072 19.8147 29.6173 20.4829 31.0621C19.5297 30.8925 18.6111 30.6848 17.7333 30.4435ZM16.4603 24.8235C16.596 23.0788 17.1918 21.4585 18.133 20.0795C18.3607 20.1979 18.5991 20.312 18.8509 20.4202C19.2537 20.5942 19.6865 20.7536 20.1451 20.8999C19.596 22.3389 19.2929 23.9197 19.2929 25.5796H19.2914V25.581H19.2929C19.2929 25.6278 19.2929 25.6732 19.2929 25.72C18.2778 25.4684 17.3276 25.1672 16.4603 24.8235ZM18.4648 19.6203C19.7061 18.0028 21.4392 16.7613 23.4497 16.1046C23.1104 16.4015 22.7876 16.7188 22.4829 17.0567C21.6156 18.0175 20.8932 19.1406 20.3562 20.3807C19.9037 20.2374 19.4784 20.0809 19.0832 19.9113C18.8675 19.8177 18.6609 19.7212 18.4648 19.6203ZM24.8178 15.7595C25.2431 15.682 25.679 15.6264 26.1209 15.603C25.869 15.9218 25.6307 16.264 25.4045 16.6282C24.6277 17.8815 24.0138 19.3936 23.6156 21.0783C22.6488 20.9525 21.7408 20.7726 20.9098 20.5416C21.4196 19.3804 22.0998 18.3275 22.9158 17.4237C23.4874 16.7905 24.1254 16.2304 24.8178 15.7595ZM32.7846 21.0637C31.9248 21.3035 30.9852 21.4936 29.9852 21.6252C30.2401 22.8697 30.3773 24.1991 30.3773 25.5796H30.3788V25.581H30.3773C30.3773 25.8516 30.3713 26.1207 30.3607 26.3868C31.4965 26.264 32.584 26.0856 33.6096 25.856C33.6111 25.7638 33.6126 25.6732 33.6126 25.581H33.6111V25.5796H33.6126C33.6126 23.9768 33.317 22.45 32.7846 21.0637ZM29.4135 21.6925C28.5568 21.7832 27.6624 21.8329 26.7408 21.8329H26.7393C25.8178 21.8329 24.9233 21.7832 24.0666 21.6925C23.8147 22.9136 23.6775 24.2195 23.6775 25.5796H23.679V25.581H23.6775C23.6775 25.8706 23.685 26.1572 23.6971 26.4453C24.6805 26.5316 25.6986 26.5784 26.7393 26.5784V26.5769H26.7408V26.5784C27.7815 26.5784 28.7981 26.5316 29.7831 26.4453C29.7951 26.1572 29.8012 25.8706 29.8012 25.581V25.5796C29.8012 24.2195 29.6654 22.9136 29.412 21.6925H29.4135ZM23.495 21.6252C22.495 21.4936 21.5553 21.3035 20.6956 21.0637C20.1632 22.45 19.8675 23.9768 19.8675 25.5796H19.869V25.581H19.8675C19.8675 25.6732 19.869 25.7638 19.8705 25.856C20.8962 26.0856 21.9837 26.264 23.1194 26.3868C23.1089 26.1207 23.1028 25.8516 23.1028 25.581H23.1013V25.5796H23.1028C23.1028 24.1991 23.2401 22.8697 23.495 21.6252ZM24.1888 21.1441C25.0063 21.2289 25.86 21.2742 26.7393 21.2742V21.2713H26.7423V21.2742C27.6202 21.2742 28.4739 21.2289 29.2914 21.1441C28.9067 19.5427 28.32 18.1052 27.5809 16.9133C27.32 16.4907 27.038 16.0988 26.7408 15.742C26.4422 16.0988 26.1616 16.4907 25.8992 16.9133C25.1601 18.1052 24.5749 19.5427 24.1903 21.1441H24.1888ZM33.584 26.4336C32.5553 26.6574 31.4648 26.8328 30.3321 26.9498C30.222 28.5804 29.9203 30.1159 29.4648 31.5023C30.4377 31.4307 31.3879 31.321 32.3079 31.1777C33.0214 29.7547 33.4708 28.1461 33.584 26.4336ZM29.7514 27.0069C28.7755 27.0917 27.7695 27.137 26.7408 27.137H26.7393C25.7107 27.137 24.7046 27.0917 23.7288 27.0069C23.8464 28.6375 24.1601 30.1715 24.6337 31.5418C25.3245 31.5813 26.0274 31.6018 26.7393 31.6018V31.6003H26.7408V31.6018C27.4527 31.6018 28.1556 31.5813 28.8464 31.5418C29.3185 30.1715 29.6337 28.6375 29.7514 27.0069ZM23.1496 26.9498C22.0153 26.8328 20.9264 26.6574 19.8962 26.4336C20.0093 28.1461 20.4588 29.7547 21.1737 31.1777C22.0938 31.321 23.0425 31.4307 24.0153 31.5023C23.5598 30.1159 23.2582 28.5804 23.1496 26.9498ZM28.6368 32.1121C28.0138 32.1428 27.3803 32.1589 26.7408 32.1589V32.1604H26.7393V32.1589C26.0998 32.1589 25.4678 32.1428 24.8434 32.1121C25.1451 32.8857 25.4995 33.6023 25.8992 34.2458C26.1616 34.6684 26.4422 35.0603 26.7408 35.4172C27.038 35.0603 27.32 34.6684 27.5809 34.2458C27.9806 33.6023 28.3351 32.8857 28.6368 32.1121Z" fill="#5BC3CD"/>
<path fill-rule="evenodd" clip-rule="evenodd" d="M167.323 23.7925H177.878V28.2163H173.742V44.3978H167.323V28.2163H163.187V23.7925H167.323Z" fill="#1B1918"/>
<path fill-rule="evenodd" clip-rule="evenodd" d="M155.342 44.3978H161.76V23.7925H155.342V44.3978Z" fill="#1B1918"/>
<path fill-rule="evenodd" clip-rule="evenodd" d="M141.202 44.3978H149.76C151.496 44.3978 152.917 42.8125 152.917 40.8749V23.7925H147.206V38.9225C147.206 39.4651 146.748 39.9082 146.188 39.9082H144.773C144.214 39.9082 143.757 39.4651 143.757 38.9225V23.7925H138.045V40.8749C138.045 42.8125 139.466 44.3978 141.202 44.3978Z" fill="#1B1918"/>
<path fill-rule="evenodd" clip-rule="evenodd" d="M126.109 28.2528H128.787C129.347 28.2528 129.805 28.6973 129.805 29.2399V38.9225C129.805 39.465 129.347 39.9082 128.787 39.9082H126.109V28.2528ZM119.934 23.7646H132.823C134.56 23.7646 135.98 25.3484 135.98 27.2861V39.9988C135.98 41.9351 133.734 44.3977 131.998 44.3977H119.934V23.7646Z" fill="#1B1918"/>
<path fill-rule="evenodd" clip-rule="evenodd" d="M111.427 23.7925H117.137V44.3978H109.694L106.079 36.4086V44.3978H96.7861L95.1692 40.3294H88.2944L86.679 44.3978H80.415L83.9188 35.5721C82.9414 35.8792 81.8162 36.0445 80.5432 36.0664H73.489V44.3978H61.1768V17.6211H81.053C85.8977 17.6343 88.1767 19.9273 88.688 23.7925H94.8675L100.367 37.6429V23.7925H107.792L111.427 31.8225V23.7925ZM73.489 21.8825H76.6835C77.3517 21.8825 77.8992 22.3271 77.8992 22.8697V30.8179C77.8992 31.3619 77.3517 31.805 76.6835 31.805H73.489V21.8825ZM91.7318 31.6719L93.6548 36.5125H89.8102L91.7318 31.6719Z" fill="#1B1918"/>
<path fill-rule="evenodd" clip-rule="evenodd" d="M192.815 8.70342C194.738 8.70342 196.296 10.2155 196.296 12.0801C196.296 13.9447 194.738 15.4568 192.815 15.4568C190.892 15.4568 189.332 13.9447 189.332 12.0801C189.332 10.2155 190.892 8.70342 192.815 8.70342ZM192.815 8C195.137 8 197.023 9.82655 197.023 12.0801C197.023 14.3337 195.137 16.1602 192.815 16.1602C190.49 16.1602 188.606 14.3337 188.606 12.0801C188.606 9.82655 190.49 8 192.815 8Z" fill="#1B1918"/>
<path fill-rule="evenodd" clip-rule="evenodd" d="M191.066 14.2048V9.95361H192.931C193.4 9.95361 193.739 9.99164 193.952 10.0677C194.164 10.1452 194.335 10.2797 194.463 10.4757C194.59 10.6717 194.653 10.8939 194.653 11.1455C194.653 11.4643 194.557 11.729 194.364 11.9366C194.17 12.1443 193.881 12.2759 193.496 12.3286C193.688 12.4382 193.846 12.5567 193.97 12.6869C194.095 12.8155 194.262 13.0451 194.474 13.3771L195.011 14.2048H193.95L193.311 13.2806C193.083 12.9501 192.928 12.7424 192.845 12.6561C192.76 12.5699 192.671 12.5114 192.578 12.4777C192.484 12.447 192.335 12.4309 192.131 12.4309H191.952V14.2048H191.066ZM191.952 11.7509H192.606C193.032 11.7509 193.297 11.7348 193.404 11.6997C193.508 11.6661 193.591 11.6047 193.652 11.5199C193.71 11.435 193.742 11.3283 193.742 11.201C193.742 11.0577 193.701 10.9422 193.623 10.8545C193.545 10.7667 193.433 10.7111 193.29 10.6877C193.217 10.6775 193.002 10.6731 192.643 10.6731H191.952V11.7509Z" fill="#1B1918"/>
</g>
<defs>
<clipPath id="clip0_92_1530">
<rect width="197" height="59" fill="white"/>
</clipPath>
</defs>
</svg>
