<svg width="2825" height="1436" viewBox="0 0 2825 1436" fill="none" xmlns="http://www.w3.org/2000/svg">
<path d="M655.226 130.326C654.213 122.297 652.164 114.433 649.131 106.932C648.744 105.514 648.067 104.191 647.143 103.05C646.218 101.908 645.067 100.972 643.762 100.301C642.017 99.8466 640.189 99.8261 638.434 100.242L611.082 104.438C608.792 104.543 606.6 105.397 604.841 106.869C601.278 110.626 604.786 116.675 604.677 121.858C604.554 127.685 599.39 132.416 593.79 133.981C588.074 135.139 582.177 135.066 576.491 133.766L538.244 127.806C549.508 124.201 559.534 117.492 567.178 108.446C572.211 102.468 574.889 91.3064 567.615 88.4753C565.454 87.8806 563.2 87.6992 560.972 87.9405C543.643 88.0756 530.007 73.5688 513.784 67.459C503.401 63.8013 492.131 63.5292 481.585 66.6815C471.038 69.8338 461.756 76.2491 455.065 85.01L475.44 85.995C477.357 85.8889 479.258 86.3972 480.867 87.4462C485.332 91.1247 479.781 98.1902 480.41 103.95C481.227 111.434 491.137 113.031 498.608 113.788C506.078 114.545 515.555 120.631 511.962 127.241C474.415 140.208 436.207 101.893 396.775 106.609C386.795 107.803 377.371 111.734 367.628 114.206C308.106 129.306 246.571 89.0176 185.766 97.5499C172.248 99.8605 158.963 103.374 146.067 108.048C137.791 110.772 129.159 113.717 123.146 120.035C117.133 126.354 114.845 137.16 120.541 143.766C104.84 145.063 89.0346 143.556 73.8586 139.317C77.9625 141.605 81.3765 144.957 83.7424 149.024C86.1083 153.09 87.3388 157.72 87.3046 162.428C62.7897 166.436 38.9239 173.733 16.3492 184.121C20.5625 191.146 25.4837 197.719 31.0353 203.736L0 223.728C10.4852 226.377 15.9063 240.712 9.80879 249.666C20.6807 244.816 27.4187 232.271 39.0444 229.727C46.6609 228.061 54.4107 231.185 61.636 234.12C68.8614 237.054 76.8027 239.9 84.2825 237.698C91.7622 235.495 97.2792 225.771 92.5264 219.575C124.497 210.222 157.538 205.046 190.83 204.176C193.398 203.853 196.003 204.348 198.275 205.592C202.608 208.607 201.468 215.119 201.235 220.402C201.001 225.686 205.108 232.63 209.818 230.248C204.277 235.066 209.014 244.135 214.33 249.201C219.646 254.267 226.053 261.257 222.798 267.847C221.949 269.567 220.508 270.943 219.691 272.678C217.278 277.801 221.109 283.773 225.627 287.175C230.144 290.577 235.678 292.954 238.817 297.665C241.955 302.376 240.53 310.622 234.918 311.28L218.967 290.974C213.518 296.639 209.782 303.738 208.192 311.447C225.107 325.311 227.651 353.529 213.49 370.21C206.254 378.734 195.963 383.914 186.982 390.562C178 397.211 169.689 406.679 169.712 417.873C169.751 437.212 168.175 455.179 175.403 473.109C188.73 506.171 204.118 538.359 221.474 569.484C226.032 577.658 231.922 586.616 241.155 588.023C229.486 559.541 218.982 530.615 209.642 501.246C215.726 501.269 222.755 501.754 226.322 506.695C229.275 510.787 228.64 516.35 229.558 521.317C230.725 526.128 232.671 530.715 235.318 534.895L291.041 634.417C295.66 642.667 300.959 651.523 309.787 654.864C315.431 657 321.962 656.598 327.157 659.673C331.229 662.084 333.972 666.363 338.123 668.634C349.861 675.054 366.184 662.741 377.154 670.406C380.291 672.598 382.286 676.08 385.176 678.59C395.308 687.387 411.927 681.502 423.623 688.064C431.16 692.294 435.067 700.752 439.087 708.417C449.158 727.618 465.453 746.429 487.036 747.958C493.815 748.438 500.74 747.149 507.367 748.661C513.994 750.173 520.517 755.972 519.454 762.702C517.63 774.241 523.316 786.875 521.789 798.457C519.007 819.554 489.162 828.825 486.599 849.949C486.037 854.575 486.916 859.349 485.818 863.876C484.471 869.425 480.315 873.942 478.839 879.457C476.04 889.909 483.508 900.311 491.712 907.343C499.917 914.374 509.703 920.437 514.188 930.28C518.929 940.684 516.601 952.815 518.142 964.149C521.508 988.891 542.822 1007.23 564.757 1019.06C571.44 1022.66 578.616 1026.15 582.942 1032.4C588.587 1040.56 588.025 1051.32 589.91 1061.07C594.527 1084.94 614.573 1104.61 615.142 1128.93C615.547 1146.21 605.966 1161.89 600.243 1178.19C594.877 1193.82 592.936 1210.41 594.551 1226.86C596.165 1243.3 601.299 1259.2 609.6 1273.48C613.881 1280.72 619.002 1287.56 622.03 1295.42C627.435 1309.44 625.681 1325.38 630.664 1339.56C637.252 1358.3 655.355 1373.78 653.622 1393.58C661.841 1410.7 679.989 1419.1 698.238 1424.2L730.945 1433.33C737.207 1435.07 743.751 1436.84 750.128 1435.57C756.505 1434.3 762.59 1429 762.426 1422.48C746.387 1418.85 729.834 1415 716.613 1405.2C703.391 1395.4 694.335 1377.95 699.351 1362.25C701.677 1354.97 706.626 1346.56 701.921 1340.55C699.227 1337.1 694.301 1336.2 691.263 1333.06C686.524 1328.16 688.152 1319.93 691.559 1314.02C694.966 1308.11 699.89 1302.82 701.265 1296.14C701.959 1292.4 701.495 1288.53 699.936 1285.06C698.378 1281.6 695.799 1278.69 692.545 1276.73C698.609 1274.44 704.125 1270.89 708.733 1266.32C712.99 1261.44 714.957 1253.93 711.608 1248.39C721.553 1249.65 733.294 1250.27 739.822 1242.64C745.035 1236.55 744.677 1227.44 742.617 1219.69C740.557 1211.93 737.076 1204.4 736.967 1196.37C759.908 1197.46 782.9 1196.68 805.715 1194.04C802.416 1182.9 794.918 1173.48 784.813 1167.79C795.146 1166.04 804.559 1153.63 807.824 1143.65C811.088 1133.66 810.256 1122.79 808.238 1112.48C807.463 1109.82 807.357 1107.02 807.929 1104.31C809.093 1100.59 812.735 1098.32 816.105 1096.38L867.394 1066.85C870.454 1065.31 873.229 1063.26 875.595 1060.78C880.969 1054.45 880.173 1044.9 877.421 1037.06C874.67 1029.22 870.263 1021.84 869.203 1013.6C866.033 988.947 892.354 971.259 901.236 948.052C904.722 938.945 905.433 929.045 906.107 919.314C906.832 908.862 906.886 896.722 898.882 889.986C891.21 883.53 879.221 884.97 871.193 878.964C863.832 873.458 861.293 862.765 853.252 858.317C845.949 854.279 836.793 856.847 828.672 854.948C814.372 851.603 805.373 835.078 790.768 833.548C782.528 832.685 773.202 836.724 766.449 831.912C760.498 827.672 760.259 819.151 759.126 811.92C757.141 800.682 751.769 790.324 743.733 782.24C735.697 774.157 725.384 768.738 714.182 766.711C705.686 765.345 696.439 765.864 689.211 761.182C681.892 756.442 678.537 747.567 672.788 741.003C663.522 730.422 648.93 726.663 635.26 723.441L579.657 710.335C569.786 708.008 557.063 706.775 551.767 715.444C550.199 718.745 549.089 722.245 548.467 725.848C546.483 732.365 542.488 738.083 537.059 742.181C531.629 746.279 525.043 748.545 518.248 748.654C513.588 740.684 506.039 734.827 497.175 732.305C491.537 730.73 485.502 730.554 480.124 728.236C477.196 726.803 474.59 724.786 472.466 722.308C470.342 719.83 468.744 716.943 467.771 713.825C466.798 710.706 466.471 707.421 466.808 704.171C467.145 700.921 468.14 697.775 469.732 694.924C472.938 689.201 474.176 682.579 473.255 676.081C472.334 669.582 469.306 663.568 464.637 658.967C455.181 650.455 441.503 648.399 428.824 649.25C425.503 641.985 431.056 633.788 437.039 628.509C443.022 623.229 450.288 618.039 451.591 610.154C453.64 597.753 437.858 588.333 425.876 592.031C413.893 595.729 406.245 607.399 401.189 618.903C398.288 625.503 395.822 632.453 391.246 638.019C386.671 643.584 379.302 647.569 372.333 645.783C362.466 643.254 358.655 631.5 356.471 621.527C353.542 608.145 350.595 594.578 351.208 580.892C351.822 567.206 356.424 553.153 366.489 543.888C382.891 528.79 408.053 530.27 430.189 532.679C424.959 526.771 426.251 516.814 431.847 511.253C434.801 508.622 438.35 506.752 442.187 505.807C446.025 504.862 450.034 504.869 453.867 505.829C460.538 507.221 466.547 510.823 470.927 516.056C477.217 523.745 479.006 534.128 483.761 542.856C488.515 551.584 499.206 559.029 507.957 554.346C515.515 550.301 516.715 539.793 514.834 531.412C512.953 523.032 508.957 514.883 509.639 506.32C510.939 489.981 527.831 480.146 542.738 473.417C557.644 466.687 574.713 457.638 577.075 441.419C577.155 438.243 577.753 435.102 578.843 432.119C580.496 429.485 582.794 427.319 585.518 425.826C629.023 396.999 673.251 367.82 722.975 352.068C725.562 351.248 725.866 352.159 728.502 351.517C732.192 349.379 729.747 343.464 726.209 341.081C722.672 338.698 717.943 336.871 717.046 332.694C716.386 329.623 718.19 326.608 718.659 323.502C719.811 315.87 710.705 308.824 703.634 311.875C699.64 306.571 707.543 300.409 713.934 298.645C733.124 293.349 752.823 290.123 772.695 289.02C774.989 288.654 777.338 289.055 779.382 290.16C782.72 292.479 782.293 297.796 779.928 301.105C777.562 304.414 773.883 306.491 770.935 309.291C767.714 312.437 765.417 316.409 764.294 320.775C763.171 325.14 763.266 329.731 764.568 334.046C774.942 339.337 786.221 344.784 797.712 342.92C809.202 341.056 819.401 328.111 814 317.773C808.97 308.146 793.863 305.974 791.265 295.423C788.223 283.069 805.664 272.082 801.736 259.982C800.015 254.682 794.747 251.563 790.704 247.737C785.931 243.045 782.683 237.016 781.389 230.44C780.095 223.865 780.814 217.051 783.452 210.892C776.868 212.054 770.102 211.615 763.722 209.613C757.342 207.611 751.534 204.105 746.784 199.387C738.014 190.512 731.016 176.512 718.562 176.909C707.133 177.274 697.289 190.643 686.602 186.564C683.973 185.561 681.201 183.519 678.653 184.715C677.819 185.259 677.118 185.985 676.604 186.84C676.091 187.695 675.778 188.656 675.689 189.65C672.973 202.669 677.645 217.502 670.568 228.752C662.867 240.994 645.055 242.691 635.719 253.73C630.651 259.723 628.688 267.797 624.03 274.115C619.372 280.433 609.485 284.45 603.895 278.944C606.642 273.281 607.393 266.851 606.023 260.705C604.654 254.559 601.245 249.06 596.356 245.108C591.165 241.713 585.571 238.984 579.703 236.987C573.146 234.204 566.909 230.718 561.099 226.591C558.189 224.83 555.825 222.294 554.27 219.264C553.04 215.469 553.206 211.359 554.737 207.677C557.571 199.528 562.572 192.311 569.199 186.803C575.826 181.296 583.827 177.708 592.339 176.428C599.782 175.412 608.445 175.77 613.37 170.084C615.977 167.075 617.344 162.526 621.127 161.304C623.547 160.817 626.059 161.127 628.289 162.189L656.07 171.993C659.17 173.396 662.582 173.962 665.967 173.634C667.645 173.408 669.176 172.553 670.252 171.242C671.329 169.93 671.87 168.259 671.769 166.564C670.881 161.938 663.782 159.719 664.428 155.053C664.79 153.541 665.601 152.174 666.753 151.134C676.779 140.434 689.04 132.09 702.659 126.697C716.278 121.305 730.917 118.999 745.529 119.943C749.036 125.717 743.49 132.555 738.876 137.484C734.261 142.414 730.553 151.221 736.134 155.015C738.42 156.186 740.964 156.76 743.531 156.686C750.37 157.614 757.017 159.635 763.219 162.673C772.819 166.862 782.235 171.445 791.466 176.423C790.651 170.32 789.873 163.891 792.18 158.184C794.487 152.478 801.044 148.002 806.771 150.224C812.291 152.366 815.121 159.694 821.002 160.365C828.846 161.261 831.941 149.642 828.664 142.44C825.387 135.238 818.901 129.207 818.36 121.31C817.994 115.982 820.016 109.375 815.772 106.149C814.262 105.18 812.547 104.577 810.764 104.388L704.784 84.8338C698.491 83.6726 689.398 84.5626 689.119 90.9725C688.963 94.5505 692.151 98.0902 690.739 101.38C689.232 104.891 684.282 104.57 680.676 105.812C675.082 107.739 672.275 114.399 672.812 120.305C673.796 126.174 676.063 131.752 679.45 136.639C672.557 133.748 662.119 133.217 655.226 130.326Z" fill="#E8F1FF"/>
<path d="M572.053 42.4856C564.965 40.261 557.328 40.1574 550.177 42.1888C543.026 44.2201 536.706 48.2882 532.075 53.8414C530.224 56.1525 528.67 59.3383 530.219 61.8408C532.44 65.4285 538.1 64.0114 542.272 62.7281C548.405 60.6498 555.081 60.4988 561.311 62.2973C565.229 63.5732 568.734 65.8282 572.669 67.0558C574.585 67.8158 576.682 68.0668 578.737 67.782C580.791 67.4973 582.726 66.6874 584.332 65.4394C587.032 62.8268 587.202 58.7653 587.207 55.1064C587.394 53.8821 587.291 52.6336 586.904 51.452C586.518 50.2704 585.859 49.1854 584.974 48.2764C583.399 47.4111 581.629 46.9145 579.811 46.8279C575.739 46.1131 572.058 44.0731 569.403 41.0597" fill="#E8F1FF"/>
<path d="M609.714 30.566C608.277 30.4845 606.845 30.7897 605.554 31.4524C604.263 32.1151 603.157 33.113 602.343 34.3502C601.529 35.5873 601.033 37.0221 600.905 38.5165C600.776 40.0109 601.018 41.5147 601.608 42.8833C606.02 44.1382 610.63 44.4516 615.161 43.8049C617.421 43.439 619.527 42.3836 621.213 40.7718C622.899 39.16 624.089 37.0639 624.635 34.7477C619.3 35.76 613.795 34.6636 609.193 31.6723" fill="#E8F1FF"/>
<path d="M738.765 11.9716C726.312 14.7219 714.215 18.9906 702.727 24.6889C708.143 26.8516 712.747 30.7644 715.86 35.8507C718.974 40.937 720.432 46.9279 720.02 52.9403C719.534 55.2485 719.591 57.6444 720.184 59.9252C721.508 63.2585 725.343 64.5092 728.715 65.3648C734.773 67.28 741.099 68.1187 747.426 67.8456C750.591 67.6736 753.664 66.6845 756.369 64.9679C759.073 63.2512 761.322 60.8612 762.913 58.0142C763.83 55.312 764.906 52.6707 766.134 50.1053C774.216 37.3186 798.227 52.7797 806.904 40.4211C809.961 36.0677 809.681 29.5145 813.666 26.0648C815.728 24.5618 818.117 23.6148 820.618 23.309C838.068 19.7074 855.696 17.0995 873.42 15.4969C881.819 14.7377 892.765 11.6051 892.835 2.84825C861.202 -3.60547 828.402 0.978211 799.535 15.8867C789.135 21.2981 775.379 32.6811 765.361 25.5069C761.61 22.8207 761.796 15.5876 756.633 12.5671C751.355 9.47905 744.368 10.735 738.765 11.9716Z" fill="#E8F1FF"/>
<path d="M843.769 32.4042L858.644 35.2532C855.906 35.1324 853.173 35.5949 850.629 36.61C848.084 37.6252 845.786 39.1696 843.888 41.1401C841.99 43.1107 840.535 45.4622 839.62 48.0376C838.706 50.6131 838.353 53.3533 838.585 56.0755C852.515 60.714 867.701 56.2002 882.374 56.8168C897.048 57.4334 914.12 67.8813 911.615 82.3063C910.858 86.668 908.33 91.0267 909.645 95.2548C910.566 98.2183 913.188 100.321 914.668 103.05C917.752 108.738 915.287 115.932 911.393 121.102C907.499 126.272 902.265 130.397 898.847 135.891C890.345 149.557 895.175 167.223 900.24 182.49C901.704 188.258 904.408 193.641 908.164 198.265C915.667 206.217 927.894 206.908 938.844 207.067C946.813 207.183 955.943 206.791 960.983 200.636C967.563 192.6 962.962 180.062 967.294 170.631C971.228 162.065 981.252 158.391 990.334 155.785C1006.97 151.01 1023.93 146.951 1039.66 139.739C1059.19 130.783 1077.44 116.827 1098.91 115.675C1104.94 115.351 1111.11 116.06 1116.91 114.415C1122.71 112.77 1128.22 107.77 1127.78 101.774C1127.41 96.6503 1123.06 92.8881 1119.66 89.0258C1116.26 85.1635 1113.59 79.2243 1116.72 75.138L1172.99 64.6611C1169 53.8254 1165.89 39.5547 1175.06 32.5016C1178.36 29.9568 1182.79 28.9397 1185.61 25.8632C1190.41 20.6197 1187.99 11.5872 1182.45 7.12792C1176.91 2.6686 1169.42 1.63339 1162.33 1.04585C1137.65 -0.996754 1112.84 0.352956 1088.12 1.70371C1039.79 4.34415 991.468 6.9846 943.143 9.62501C933.415 10.1565 922.183 9.34451 913.261 12.6528C905.708 15.4536 900.337 20.5948 891.698 22.4011C875.75 25.7357 858.2 23.4792 843.769 32.4042Z" fill="#E8F1FF"/>
<path d="M1109.46 149.917C1107.92 149.68 1106.35 150.027 1105.08 150.887C1104.23 151.796 1103.73 152.959 1103.65 154.185C1102.68 159.594 1103.83 165.163 1106.89 169.774C1108.45 172.037 1110.6 173.851 1113.12 175.029C1115.63 176.207 1118.43 176.706 1121.21 176.474C1127.99 175.63 1132.99 169.986 1139.23 167.231C1148.84 162.99 1189.64 156.378 1161.42 141.498C1151.69 136.37 1145.4 140.897 1137.73 144.274C1129.01 148.628 1119.23 150.579 1109.46 149.917V149.917Z" fill="#E8F1FF"/>
<path d="M1356.35 23.0556C1353.06 24.3756 1350.31 26.7284 1348.53 29.7465C1347.71 31.2791 1347.52 33.0635 1348 34.7304C1348.48 36.3974 1349.59 37.8194 1351.11 38.7023C1352.33 39.1399 1353.64 39.3428 1354.94 39.3002L1368.31 39.6927C1373.99 39.8594 1381.08 41.048 1382.6 46.4263C1383.74 50.4199 1381.2 55.5516 1384.26 58.4055C1385.57 59.405 1387.15 60.0103 1388.81 60.1486C1393.21 61.2602 1397.81 61.4061 1402.27 60.5758C1412 58.0119 1406.89 52.1778 1409.95 46.9831C1414.64 39.0347 1413.83 43.8462 1422.09 39.2909C1428.18 35.9267 1436.06 29.824 1430.97 21.2496C1422.12 6.33898 1369.41 16.65 1356.35 23.0556Z" fill="#E8F1FF"/>
<path d="M1617.17 15.1401L1609.5 16.2354C1592.23 18.7052 1574.85 21.1977 1558.21 26.7556C1565.41 29.8065 1572.97 31.7929 1580.67 32.6604C1584.91 32.8831 1589.13 33.5245 1593.26 34.5765C1600.61 36.9203 1608.01 42.9729 1615.12 39.8724C1619.52 37.95 1620.96 33.0393 1624.6 30.4367C1627.12 28.6396 1636.67 25.7309 1637.74 23.9171C1646.37 9.25333 1623.8 14.1916 1617.17 15.1401Z" fill="#E8F1FF"/>
<path d="M1652.13 51.3371C1641.62 57.1392 1631.86 64.1894 1623.09 72.3307C1619.39 75.7617 1615.62 80.0289 1615.95 85.0272C1616.4 91.6704 1623.56 95.5239 1629.78 98.1196L1654.93 108.633C1657.98 104.387 1655.19 98.5261 1652.04 94.3534C1648.88 90.1808 1645.13 85.3531 1646.53 80.3319C1648.12 74.6018 1655.2 72.6492 1661.13 71.662C1670.8 70.0536 1696.88 70.1826 1693.75 54.7989C1690.06 36.6723 1661.84 45.9812 1652.13 51.3371Z" fill="#E8F1FF"/>
<path d="M1648.11 1071.09C1645.82 1077.91 1645.61 1085.95 1649.56 1091.91C1654 1098.6 1662.88 1101.1 1670.57 1099.4C1678.22 1097.3 1685.04 1092.78 1690.07 1086.47C1694.67 1081.18 1698.45 1075.2 1701.29 1068.73C1705.24 1058.64 1708.04 1048.11 1709.6 1037.36L1717.06 996.977C1718.73 987.953 1718.66 960.285 1702.58 969.3C1698.18 971.762 1688.01 991.206 1683.41 996.719C1675.11 1006.66 1674.01 1016.3 1669.64 1028.34C1664.17 1043.42 1653.17 1055.98 1648.11 1071.09Z" fill="#E8F1FF"/>
<path d="M2521.64 1276.67C2516.37 1274.69 2511.25 1272.35 2506.33 1269.65C2501.4 1282.72 2498.78 1296.49 2498.57 1310.39L2534.64 1290.73C2540.06 1287.77 2546.21 1283.67 2546.09 1277.66C2546.14 1276.92 2545.98 1276.18 2545.63 1275.52C2545.28 1274.86 2544.75 1274.3 2544.1 1273.9C2543.3 1273.59 2542.42 1273.49 2541.57 1273.62C2536.22 1274.04 2531.35 1276.58 2526.3 1278.34C2521.26 1280.11 2515.36 1281.04 2510.73 1278.42" fill="#E8F1FF"/>
<path d="M2714.76 1289.37C2710.7 1290.47 2706.72 1291.89 2702.88 1293.62C2694.38 1297.94 2688.59 1306.14 2680.94 1311.82C2673.62 1317.26 2664.8 1320.25 2656.15 1323.15C2653.6 1325.4 2654.77 1329.92 2657.53 1331.89C2660.51 1333.58 2663.91 1334.34 2667.32 1334.08C2676.31 1334.28 2685.78 1334.37 2693.66 1330.04C2698.09 1327.17 2702.25 1323.88 2706.06 1320.22C2715.26 1312.56 2726.32 1307.5 2737.27 1302.61C2741.25 1301.11 2744.93 1298.92 2748.14 1296.13C2755.02 1289.37 2755.5 1278.94 2745.59 1276.64C2737.57 1274.78 2722.39 1286.91 2714.76 1289.37Z" fill="#E8F1FF"/>
<path d="M2802.11 1230.71C2802.54 1226.01 2801.94 1221.26 2800.34 1216.83C2798.74 1212.41 2796.19 1208.41 2792.88 1205.15C2792.78 1214.57 2792.51 1224.59 2787.39 1232.38C2783.75 1237.92 2778.03 1241.67 2774.04 1246.95C2770.04 1252.23 2768.27 1260.61 2772.96 1265.24C2775.95 1267.6 2779.6 1268.9 2783.36 1268.95C2792.68 1270.09 2803.48 1270.72 2810.02 1263.75C2813.59 1259.94 2815.32 1254.31 2819.68 1251.51C2821.3 1250.81 2822.75 1249.73 2823.92 1248.37C2825.71 1245.42 2822.86 1241.52 2819.64 1240.45C2816.43 1239.39 2812.88 1239.89 2809.65 1238.88C2806.42 1237.86 2803.46 1234.1 2805.11 1231.06" fill="#E8F1FF"/>
<path d="M2647.88 890.704C2642.88 891.911 2637.71 892.213 2632.61 891.598C2624.13 890.05 2617.53 883.706 2610.69 878.503C2594.42 866.201 2574.65 859.339 2554.2 858.902C2535.61 858.553 2516.84 863.558 2498.57 860.066C2499.77 866.657 2505.45 871.601 2511.51 874.54C2517.57 877.478 2524.25 878.957 2530.34 881.836C2540.09 886.492 2547.83 894.483 2552.13 904.344C2554.09 908.89 2555.32 913.837 2558.29 917.806C2564.36 925.92 2575.87 927.702 2586.03 927.038C2599.27 926.173 2613.1 922.391 2625.42 927.29C2634.84 931.039 2641.59 939.231 2649.46 945.601C2657.33 951.971 2668.41 956.698 2677.45 952.102C2668.06 949.084 2659.89 943.166 2654.13 935.212C2648.37 927.257 2645.33 917.683 2645.43 907.886C2654.29 908.695 2679.82 908.382 2678.45 893.427C2677.28 880.753 2655.49 889.336 2647.88 890.704Z" fill="#E8F1FF"/>
<path d="M2532.96 994.352C2534.54 985.695 2543.16 978.05 2540.48 969.67C2538.62 963.876 2531.91 961.015 2525.83 960.872C2519.75 960.729 2513.78 962.541 2507.7 962.712C2503.75 962.502 2499.78 962.558 2495.83 962.881C2483.77 964.866 2476.33 977.523 2464.96 982.024C2458.05 984.76 2450.29 984.237 2443.1 986.129C2426.78 990.424 2416.45 1005.86 2405.04 1018.31C2386.61 1038.33 2362.59 1052.35 2336.11 1058.55C2326.83 1060.7 2316.85 1062.08 2309.48 1068.11C2299.71 1076.1 2297.3 1089.79 2295.13 1102.23C2289.13 1136.58 2279.95 1170.3 2267.72 1202.95L2306.48 1207.9C2313.84 1208.84 2321.48 1209.76 2328.58 1207.58C2333.74 1205.63 2338.62 1203.02 2343.11 1199.83C2360.37 1189.1 2379.69 1182.12 2399.82 1179.34C2409.96 1177.94 2420.6 1177.69 2430.13 1181.47C2439.65 1185.24 2447.82 1193.8 2448.62 1204.03C2452.74 1202.74 2457.13 1202.61 2461.32 1203.63C2465.51 1204.65 2469.34 1206.79 2472.41 1209.82C2478.48 1216.01 2482.46 1223.95 2483.77 1232.52C2484.79 1237.83 2485.82 1244.19 2490.74 1246.41C2494.75 1248.23 2499.35 1246.27 2503.74 1245.92C2518.64 1244.73 2531.01 1262.12 2545.65 1259.12C2561.36 1255.91 2565.21 1232.37 2580.53 1227.65C2589.33 1224.94 2601.68 1228.23 2605.89 1220.04C2609.61 1212.82 2602.2 1204.48 2602.96 1196.4C2603.9 1186.44 2615.64 1182.21 2624.68 1177.96C2655.87 1163.32 2670.67 1121.3 2655.55 1090.31C2646.6 1071.95 2628.98 1057.5 2625.73 1037.33C2623.23 1021.81 2629.34 1003.72 2619.45 991.501C2614.42 985.287 2605.91 981.857 2602.92 974.443C2601.04 969.776 2601.79 964.48 2600.78 959.55C2599.77 954.62 2595.47 949.463 2590.6 950.741C2576.49 954.451 2571.98 998.107 2564.42 1008.71C2552.93 1024.84 2529.34 1014.22 2532.96 994.352Z" fill="#E8F1FF"/>
<path d="M2271.04 908.092C2266.16 906.772 2260.83 905.471 2256.16 907.358C2251.48 909.245 2248.75 915.868 2252.51 919.155C2281.85 918.052 2311.38 916.956 2340.48 920.803C2374 925.235 2407.18 936.214 2440.85 932.984C2421.62 927.507 2402.07 923.127 2382.3 919.869L2349.34 913.791C2340.49 912.003 2331.56 910.67 2322.57 909.798C2303.76 908.299 2289.53 913.096 2271.04 908.092Z" fill="#E8F1FF"/>
<path d="M2299.3 805.247C2296.86 805.047 2293.84 804.876 2292.57 806.926C2291.37 808.886 2292.75 811.474 2292.1 813.671C2291.21 816.673 2287.19 817.439 2284.02 817.031C2280.85 816.622 2277.42 815.643 2274.61 817.137C2273.18 818.087 2272.11 819.463 2271.55 821.059C2271 822.654 2270.99 824.382 2271.52 825.985C2272.67 829.166 2274.53 832.058 2276.96 834.452C2281.12 839.566 2285.85 844.203 2291.07 848.276C2301.18 855.565 2314.88 859.077 2321.25 869.657C2322.15 871.708 2323.53 873.523 2325.28 874.954C2328.34 876.845 2332.32 875.407 2335.62 873.938L2347.15 868.79C2349.23 868.059 2351.09 866.826 2352.55 865.207C2355.18 861.715 2353.56 856.749 2351.35 852.986C2349.14 849.223 2346.31 845.329 2346.78 841.015C2347.63 833.324 2357.75 830.382 2361.92 823.801C2366.12 817.167 2363.38 808.62 2363.87 800.836C2364.43 791.733 2370.29 779.892 2360.87 773.091C2352.86 767.311 2345.2 772.652 2339.45 779.033C2327.33 792.49 2321.59 807.064 2299.3 805.247Z" fill="#E8F1FF"/>
<path d="M2368.34 668.756C2372.33 676.297 2380.66 680.798 2385.02 688.143C2389.74 696.104 2389.2 706.39 2394.32 714.106C2399.58 722.023 2410.16 726.226 2413.1 735.23C2416.32 745.061 2409.02 757.01 2414.84 765.599C2415.93 767.003 2417.29 768.17 2418.86 769.025C2420.43 769.88 2422.16 770.405 2423.94 770.566C2425.72 770.728 2427.52 770.522 2429.22 769.963C2430.92 769.404 2432.48 768.503 2433.8 767.317C2436.26 764.683 2437.57 761.208 2437.46 757.633C2437.36 754.058 2435.84 750.666 2433.23 748.18C2429.79 745.082 2424.84 743.743 2421.96 740.125C2420.46 738.037 2419.46 735.641 2419.04 733.117C2417.47 725.838 2417.72 718.292 2419.77 711.129C2420.54 709.312 2420.74 707.307 2420.33 705.378C2419.04 701.666 2413.94 701.403 2410.36 699.681C2402.24 695.77 2402.44 684.462 2403.86 675.657C2402.91 681.519 2381.73 671.549 2379.51 668.228C2375.11 661.631 2377.51 648.907 2376.63 641.617C2367.12 646.136 2363.46 659.535 2368.34 668.756Z" fill="#E8F1FF"/>
<path d="M2160.75 784.275C2156.97 780.038 2151.27 775.607 2146.2 778.162C2142.33 780.111 2141.27 785.466 2142.78 789.526C2144.63 793.469 2147.48 796.862 2151.04 799.368C2161.61 808.088 2172.99 815.958 2182.21 826.095C2198.71 844.235 2207.45 868.712 2225.4 885.423C2229.01 889.298 2233.78 891.883 2239 892.786C2244.23 893.272 2250.1 889.924 2250.7 884.706C2251.2 880.408 2248.2 876.56 2245.27 873.375C2238.3 865.79 2230.67 858.808 2224.09 850.882C2221.05 847.837 2219.14 843.847 2218.67 839.569C2218.64 835.301 2222.53 830.835 2226.66 831.892C2221.64 830.606 2217.91 822.228 2210.53 820.654C2204.36 819.338 2202.87 823.156 2195.53 820.008C2181.54 814.003 2170.56 795.251 2160.75 784.275Z" fill="#E8F1FF"/>
<path d="M2492.37 368.19C2488.29 366.992 2484.28 365.577 2480.36 363.95C2469.81 360.819 2455.85 368.486 2457.25 379.287C2458.19 386.464 2464.95 391.303 2468.68 397.528C2474.21 406.76 2472.74 418.469 2469.83 428.807C2469.11 432.009 2467.76 435.035 2465.84 437.707C2463.15 440.528 2459.94 442.811 2456.38 444.431C2442.13 452.33 2429.56 462.884 2419.37 475.508C2418.27 476.674 2417.5 478.112 2417.14 479.673C2416.64 483.32 2420.35 485.976 2422.44 489.018C2427.1 495.775 2423.73 504.867 2424.19 513.031C2424.12 514.185 2424.35 515.338 2424.86 516.38C2425.36 517.423 2426.13 518.32 2427.09 518.987C2429.89 520.397 2433.22 518.002 2434.74 515.278C2439.79 506.235 2435.99 491.72 2445.46 487.36C2447.25 486.535 2449.42 486.187 2450.62 484.631C2452.51 482.163 2450.69 478.509 2451.65 475.558C2453.09 471.129 2459.22 470.93 2463.92 471.126C2472.02 471.461 2480.12 470.395 2487.85 467.977C2490.89 467.264 2493.64 465.687 2495.78 463.442C2498.61 459.949 2498.36 454.982 2497.79 450.54C2494.96 428.399 2487.86 406.998 2476.89 387.494C2485.21 388.544 2494.26 389.454 2501.44 385.168C2505.46 382.768 2510.28 375.59 2508.29 370.704C2505.14 362.978 2499.44 369.481 2492.37 368.19Z" fill="#E8F1FF"/>
<path d="M1435.25 489.23C1436.24 494.53 1437.21 500.11 1435.48 505.214C1433.74 510.318 1428.29 514.583 1423.14 513.019C1419.14 511.805 1416.83 507.779 1413.99 504.709C1398.21 487.639 1362.59 497.522 1352.84 476.404C1348.86 467.785 1351.57 457.458 1348.85 448.36C1347.14 443.101 1343.73 438.561 1339.17 435.453C1334.6 432.345 1329.13 430.845 1323.62 431.187C1318.59 431.915 1313.7 433.378 1309.1 435.53C1278.27 447.898 1245.9 456.008 1212.89 459.635C1206.62 460.018 1200.41 461.149 1194.4 463.004C1180.85 467.927 1171.59 480.516 1165 493.362C1158.4 506.208 1153.54 520.115 1144.7 531.528C1135.41 543.523 1122.4 551.922 1110.26 561.007C1105.58 564.026 1101.69 568.114 1098.9 572.936C1096.27 578.348 1096.42 584.644 1096.62 590.661L1099.1 663.74C1099.42 673.14 1099.82 682.876 1104.02 691.287C1109.26 701.792 1119.62 708.671 1126.81 717.951C1134.15 727.487 1137.97 739.268 1137.63 751.301C1137.47 756.139 1136.99 761.862 1140.76 764.9C1143.04 766.386 1145.72 767.157 1148.45 767.116L1247.13 775.207C1264.49 776.63 1283.73 778.97 1295.06 792.218C1300.41 798.471 1304.71 807.463 1312.9 808.133C1316.41 808.421 1319.83 806.976 1323.35 806.697C1332.22 805.994 1340.01 812.736 1344.92 820.163C1352.36 831.482 1355.74 844.999 1354.5 858.495C1353.7 866.967 1351.07 875.202 1350.51 883.694C1348.36 916.002 1375.7 944.073 1376.23 976.449C1376.54 995.493 1367.52 1013.29 1358.72 1030.17C1372.92 1051.72 1361.29 1080.42 1366.94 1105.61C1372.31 1129.51 1392.2 1148.22 1397.16 1172.21C1399.43 1183.2 1399.56 1196.71 1409.23 1202.37C1413.47 1204.44 1418.17 1205.38 1422.88 1205.11C1451.3 1205.44 1479.39 1199.04 1504.86 1186.41C1516.81 1180.47 1529.2 1171.6 1531.29 1158.39C1532.97 1147.75 1527.58 1135.84 1533.07 1126.56C1539.53 1115.63 1556.1 1116.5 1565.61 1108.09C1581.04 1094.46 1569.01 1068.45 1575.26 1048.82C1580.88 1031.16 1600.23 1021.79 1609.82 1005.94C1613.59 999.13 1616.3 991.776 1617.85 984.14C1622.24 965.889 1624.98 947.277 1626.02 928.531C1626.28 917.142 1627.12 905.773 1628.53 894.47C1638.87 830.119 1702.38 787.028 1723 725.208C1724.97 719.304 1725.89 711.44 1720.65 708.099C1717.54 706.613 1714.02 706.243 1710.67 707.052L1665.18 712.797C1659.52 713.511 1653.54 714.178 1648.35 711.827C1643.16 709.476 1639.44 702.9 1642.19 697.906C1649.92 683.886 1634.02 666.17 1626.96 651.803C1607.95 613.116 1585.3 576.328 1559.34 541.936C1557.67 540.167 1556.63 537.903 1556.37 535.487L1569.28 535.918C1564.92 520.252 1557.73 503.109 1542.54 497.379C1533.98 494.149 1524.5 495.266 1515.36 495.766C1489.2 497.198 1461.15 493.241 1435.25 489.23Z" fill="#E8F1FF"/>
<path d="M1516.25 139.802C1523.09 147.067 1530.75 154.771 1540.65 156.037C1558.14 158.274 1570.71 140.193 1578.72 124.488C1579.01 128.492 1580.86 132.222 1583.86 134.886C1586.87 137.549 1590.79 138.935 1594.8 138.75C1599.12 138.024 1603.24 136.413 1606.9 134.019C1641.55 115.088 1680.35 105.057 1719.83 104.828C1719.45 101.838 1720.2 98.8126 1721.92 96.3369C1723.64 93.8611 1726.21 92.1101 1729.15 91.4216C1737.17 89.8303 1744.4 96.7698 1748.28 103.978C1752.15 111.187 1754.56 119.542 1760.71 124.938C1766.87 130.334 1778.78 130.099 1781.21 122.285C1783.54 114.784 1775.73 108.387 1769.23 103.964C1762.74 99.5415 1755.9 91.356 1760.27 84.8294C1793.44 77.487 1826.82 70.1169 1860.76 68.6575C1866.54 68.8586 1872.3 67.8667 1877.68 65.7436C1882.85 63.2036 1886.97 57.4377 1885.57 51.8425C1878.17 53.5836 1870.41 53.0794 1863.29 50.3942C1856.17 47.7089 1850.01 42.9643 1845.6 36.7652C1892.7 32.8788 1942.79 29.5662 1984.53 51.7267C1989.54 62.4788 1964.01 71.4244 1970.84 81.1223C1973.02 84.2152 1977.39 84.578 1981.17 84.6482C2010.17 85.1867 2039.35 85.7147 2068.03 81.3358C2078.51 79.7356 2089.09 77.4766 2099.61 78.7743C2117.14 80.9356 2132.13 92.6286 2149.37 96.4409C2156.39 97.9926 2164.26 98.0452 2170.17 93.9637C2176.09 89.8823 2178.63 80.5887 2173.78 75.2828C2190.02 59.373 2216.96 63.3162 2238.38 70.933C2259.8 78.5499 2280.08 90.8333 2302.75 92.5311C2319.01 93.7486 2335.49 89.3766 2351.55 92.1555C2361.64 93.9018 2371.03 98.3917 2380.9 101.15C2399.56 106.367 2419.29 105.266 2438.66 105.517C2488.09 106.183 2536.98 115.896 2582.9 134.176C2588.88 136.121 2594.35 139.355 2598.94 143.649C2603.21 148.225 2605.39 155.336 2602.52 160.899L2555.06 153.965C2559.53 162.767 2571.1 164.267 2580.49 167.303C2589.89 170.339 2599.63 180.713 2593.98 188.811C2583.8 185.571 2574.58 195.747 2569.44 205.109C2564.3 214.472 2558.03 225.685 2547.36 226.255C2537.81 226.766 2526.26 218.633 2520.03 225.894C2528.64 236.745 2536 248.52 2541.99 261.001C2548.15 273.815 2552.53 289.961 2544.21 301.489C2542.9 303.547 2540.92 305.086 2538.6 305.84C2531.81 307.559 2527.4 299.253 2522.53 294.219C2516.4 287.875 2507.12 286.078 2498.81 283.103C2490.5 280.128 2481.74 274.276 2481.09 265.474C2480.69 259.998 2483.58 254.908 2485.71 249.847C2489.29 241.316 2490.86 232.075 2490.29 222.841C2489.82 215.413 2487.74 207.685 2482.4 202.495C2477.07 197.305 2467.85 195.658 2462.13 200.412C2459.45 202.63 2457.31 206.178 2453.84 206.311C2447.71 206.545 2443 195.855 2438.07 199.504C2438.65 203.392 2437.84 207.361 2435.79 210.715C2421.07 223.518 2398.45 218.102 2379.47 222.625C2370.44 225.207 2361.8 228.981 2353.77 233.845C2350.77 235.13 2348.22 237.275 2346.43 240.01C2344.06 244.614 2346.67 250.51 2350.85 253.571C2355.28 256.287 2360.25 257.986 2365.42 258.544C2388.56 262.926 2412.03 269.71 2430.3 284.571C2448.57 299.433 2460.55 324 2454.77 346.829L2409.14 303.229C2410.87 321.536 2411.86 339.892 2412.09 358.3C2412.38 361.894 2411.89 365.509 2410.64 368.892C2407.39 376.077 2398.57 378.495 2390.85 380.081C2388.7 380.489 2386.66 381.347 2384.87 382.599C2383.07 383.851 2381.56 385.468 2380.44 387.344C2379.32 389.221 2378.6 391.313 2378.34 393.485C2378.09 395.657 2378.29 397.859 2378.94 399.947C2381.69 408.894 2388.53 415.869 2394.8 422.819C2401.07 429.77 2407.23 437.669 2408.06 446.992C2408.88 456.314 2401.84 466.822 2392.51 466.174C2385.43 465.683 2380.18 459.347 2377.16 452.927C2374.14 446.507 2372.34 439.355 2367.81 433.9C2354.08 417.389 2323.24 424.463 2310.94 406.86C2307.8 410.416 2305.63 414.715 2304.62 419.347C2303.62 423.98 2303.81 428.793 2305.19 433.329C2310.91 429.747 2318.74 433.075 2323.04 438.28C2327.34 443.484 2329.37 450.156 2332.75 456.002C2337.3 463.89 2344.55 470.882 2345.19 479.969C2345.02 483.404 2345.08 486.848 2345.36 490.276C2346.49 495.782 2351.14 499.735 2354.37 504.337C2361.88 515.045 2361.51 529.755 2356.67 541.904C2351.83 554.053 2343.13 564.205 2334.52 574.048C2319.48 591.239 2304.14 608.33 2286.3 622.606C2281.22 626.68 2275.79 630.686 2272.62 636.381C2269.45 642.077 2269.29 650.071 2274.16 654.403C2270.67 654.578 2264.42 656.291 2260.94 656.466C2259.71 642.489 2259.45 628.445 2260.14 614.432C2246.39 607.83 2231.59 625.51 2233.36 640.659C2235.13 655.808 2246.09 667.964 2253.89 681.071C2259.6 690.655 2263.84 701.83 2261.93 712.82C2260.03 723.81 2250.22 733.948 2239.11 732.979C2221.43 731.437 2214.04 706.064 2196.54 703.161C2194.99 702.798 2193.37 702.959 2191.93 703.618C2189.33 705.044 2188.88 708.52 2188.73 711.48C2188.02 726.008 2187.4 741.113 2193.07 754.507C2201.37 774.101 2222.8 790.559 2218.3 811.357C2194.08 800.099 2181.49 772.938 2175.77 746.849C2170.05 720.76 2169.1 693.371 2158.85 668.707C2151.07 678.682 2134.71 670.436 2127.6 659.972C2120.86 650.051 2116.71 638.575 2110.17 628.521C2103.63 618.467 2093.61 609.464 2081.62 608.911C2069.06 608.331 2058.17 616.952 2048.58 625.097C2040.7 631.795 2032.62 638.756 2028.01 648.015C2021.31 661.488 2023.06 677.371 2022.74 692.416C2022.39 708.68 2018.94 725.84 2007.86 737.746C1996.77 749.653 1976.31 753.8 1964.08 743.069C1957.7 737.467 1954.61 729.097 1951.85 721.063C1938.58 682.334 1927.53 642.88 1918.75 602.893C1916.7 612.019 1908.68 623.783 1901.03 618.407C1899.31 616.961 1897.92 615.168 1896.94 613.145C1882.66 588.941 1856.21 574.423 1829.49 565.718C1802.77 557.013 1774.65 552.953 1748.23 543.386C1733.42 538.023 1719.27 530.978 1706.07 522.389C1702.7 527.333 1700.74 533.096 1700.38 539.066C1700.03 545.036 1701.29 550.991 1704.04 556.301C1709.91 566.68 1723.17 572.685 1734.53 569.057C1740.39 567.182 1745.35 563.109 1751.17 561.097C1756.99 559.086 1764.81 560.074 1767.35 565.683C1769.79 571.051 1766.11 577.546 1767.93 583.152C1770.72 591.69 1783.59 592.348 1788.1 600.117C1791.45 605.898 1788.69 613.574 1783.91 618.238C1779.12 622.903 1772.74 625.461 1766.9 628.708C1747.95 639.244 1734.48 657.229 1717.92 671.222C1701.36 685.214 1678 695.43 1658.26 686.455C1662.97 662.636 1634.59 645.15 1629.37 621.439C1627.66 613.634 1628.55 605.344 1626.09 597.739C1622.54 586.728 1612.77 579.157 1604.76 570.812C1595.04 560.581 1587.46 548.507 1582.49 535.301C1577.51 522.096 1575.22 508.028 1575.77 493.926C1576.2 484.126 1578 474.167 1575.77 464.616C1573.54 455.064 1565.63 445.82 1555.83 446.253C1533.45 447.241 1505.25 448.906 1493.51 429.827C1489.32 423.017 1487.49 413.044 1493.55 407.827C1497.83 404.146 1504.14 404.493 1509.75 405.045L1560.18 410.006C1571.98 411.166 1584.73 412.124 1594.85 405.958C1604.97 399.792 1609.36 383.424 1599.98 376.17C1593.14 370.869 1580.87 371.157 1578.88 362.729C1577.22 355.71 1584.99 347.747 1580.79 341.881C1577.78 337.675 1571.02 338.842 1566.92 341.995C1562.82 345.148 1559.85 349.759 1555.26 352.146C1547.21 356.334 1537.6 352.348 1528.94 349.639C1520.28 346.931 1508.67 346.701 1504.47 354.741C1499.78 363.734 1508.64 375.518 1503.98 384.529C1497.82 396.443 1476.95 389.66 1468.29 399.908C1458.36 411.667 1475.05 429.202 1471.7 444.225C1467.43 446.342 1462.67 447.314 1457.91 447.047C1453.15 446.779 1448.53 445.281 1444.52 442.698C1440.58 440.014 1437.43 436.311 1435.42 431.983C1433.41 427.655 1432.62 422.863 1433.11 418.118C1433.94 411.36 1437.47 404.461 1435.1 398.075C1433.2 392.912 1428.01 389.838 1423.19 387.175L1374.18 360.095C1369.63 368.536 1375.39 378.999 1382.58 385.338C1389.77 391.678 1398.79 396.452 1403.51 404.795C1406.5 410.576 1407.17 417.279 1405.39 423.537C1403.6 429.795 1399.49 435.134 1393.9 438.466C1393.2 438.95 1392.4 439.276 1391.56 439.422C1390.73 439.568 1389.87 439.531 1389.04 439.313C1388.26 438.854 1387.58 438.242 1387.04 437.515C1386.5 436.787 1386.11 435.958 1385.89 435.077C1377.25 412.95 1364.26 391.133 1343.51 379.575C1322.75 368.016 1292.93 370.392 1279.32 389.864C1276.08 394.489 1273.91 399.76 1271.1 404.65C1256.13 430.628 1224.06 442.93 1194.09 442.126C1191.16 442.288 1188.24 441.603 1185.69 440.152C1180.84 436.807 1181.06 429.709 1181.8 423.87L1184.95 399.09C1185.58 394.114 1186.5 388.613 1190.43 385.507C1195.99 381.129 1203.99 383.892 1211.07 383.79C1216.42 383.539 1221.57 381.648 1225.82 378.371C1230.06 375.095 1233.2 370.593 1234.8 365.475C1236.23 360.307 1236.22 354.847 1234.77 349.683C1233.33 344.52 1230.5 339.849 1226.59 336.173C1223.35 333.13 1219 329.306 1220.72 325.204C1221.4 324.069 1222.32 323.097 1223.42 322.357C1224.52 321.617 1225.77 321.127 1227.08 320.921C1239.78 317.233 1253.2 316.267 1265.68 311.915C1278.17 307.564 1290.28 298.661 1293.24 285.772C1294.15 281.822 1294.56 277.037 1298.11 275.078C1299.89 274.327 1301.8 273.936 1303.73 273.929C1310.5 272.966 1316.67 269.503 1321.01 264.223C1325.36 258.942 1327.57 252.226 1327.21 245.397C1333.2 241.215 1341.58 244.291 1347.37 248.739C1353.16 253.187 1358.27 259.063 1365.32 260.981C1378.45 264.554 1391.14 252.93 1404.74 252.876C1410.47 252.853 1416.39 254.876 1421.77 252.936C1427.23 250.97 1430.49 245.538 1434.68 241.524C1438.87 237.511 1446.22 235.063 1450.08 239.387L1446.79 214.993C1453.42 216.668 1460.34 216.906 1467.07 215.688C1473.8 214.471 1480.19 211.828 1485.82 207.937L1443.26 193.555C1441.77 193.185 1440.41 192.454 1439.28 191.427C1436.18 188.095 1439.25 182.903 1441.77 179.115C1447.79 170.054 1448.8 155.128 1438.9 150.617C1432.14 147.537 1424.39 151.234 1417.9 154.85L1386.84 172.171C1385.85 178.076 1393.07 181.423 1397.54 185.4C1400.25 187.807 1402.17 190.976 1403.04 194.491C1403.91 198.007 1403.7 201.704 1402.44 205.098C1401.17 208.491 1398.91 211.423 1395.94 213.506C1392.98 215.59 1389.46 216.729 1385.84 216.773C1387.88 219.433 1389.3 222.519 1389.99 225.802C1390.69 229.085 1390.63 232.482 1389.83 235.741L1368.93 237.244C1366.58 237.716 1364.14 237.24 1362.15 235.921C1359.91 233.936 1360.22 230.456 1359.7 227.512C1358.45 220.405 1351.49 215.423 1344.38 214.146C1337.28 212.869 1330.02 214.506 1322.98 216.122C1320 217.197 1316.72 217.121 1313.78 215.91C1312.1 214.817 1310.82 213.204 1310.14 211.316C1307.06 203.84 1309.94 195.053 1314.89 188.66C1319.85 182.266 1326.63 177.592 1332.71 172.27C1347.27 159.495 1357.97 142.903 1363.6 124.369C1375.11 119.548 1387.02 112.997 1398.53 108.176C1416.27 99.1946 1436.16 95.3402 1455.97 97.0464L1494.94 97.7907C1506.48 98.0111 1518.33 98.2934 1529 102.692C1539.67 107.09 1549.04 116.603 1549.78 128.119C1550 129.422 1549.89 130.761 1549.45 132.009C1549.01 133.257 1548.27 134.374 1547.28 135.254C1545.77 136.076 1544.07 136.461 1542.35 136.365C1531.59 136.743 1527.01 139.424 1516.25 139.802Z" fill="#E8F1FF"/>
<path d="M1205.27 260.949C1206.86 259.482 1208.01 257.616 1208.59 255.557C1209.16 253.498 1209.14 251.325 1208.53 249.276C1204.65 247.821 1200.42 247.447 1196.34 248.197C1192.25 248.947 1188.46 250.791 1185.39 253.521C1182.97 255.897 1180.89 258.574 1179.19 261.482C1173.83 269.985 1169.08 280.142 1172.19 289.646C1172.44 290.683 1172.91 291.66 1173.56 292.52C1174.2 293.38 1175.02 294.106 1175.96 294.655C1177.35 295.198 1178.86 295.427 1180.35 295.323C1186.26 295.316 1192.17 294.963 1198.03 294.266C1201.63 293.838 1205.82 292.85 1207.21 289.594C1209.04 285.313 1204.61 280.469 1205.9 276.008C1206.75 274.012 1208.04 272.221 1209.67 270.759C1210.49 270.023 1211.11 269.113 1211.49 268.102C1211.88 267.091 1212.02 266.006 1211.9 264.934C1211.38 262.84 1208.08 261.653 1206.89 263.472" fill="#E8F1FF"/>
<path d="M1233.69 221.876C1228.55 220.709 1223.26 220.38 1218.01 220.902C1216.85 220.868 1215.7 221.127 1214.67 221.653C1213.67 222.382 1212.94 223.42 1212.61 224.602C1211.5 228.119 1211.77 231.92 1213.37 235.247C1214.97 238.574 1217.78 241.184 1221.23 242.556C1223.12 242.985 1224.92 243.702 1226.58 244.682C1231.02 248.085 1228.19 255.041 1229.03 260.53C1229.97 266.694 1236.01 271.868 1234.9 278.005C1234.03 282.84 1228.81 286.668 1229.65 291.509C1230.53 296.579 1237.04 298.102 1242.22 298.508C1245.23 299.028 1248.32 298.678 1251.13 297.499C1253.94 295.595 1255.95 292.728 1256.75 289.451C1258.87 283.202 1259.76 276.609 1259.38 270.028C1259.35 267.035 1258.59 264.092 1257.16 261.455C1255.6 259.366 1253.87 257.406 1251.99 255.594C1242.05 244.166 1252.51 227.12 1233.69 221.876Z" fill="#E8F1FF"/>
<path opacity="0.8" d="M2542.7 1106.7C2542.7 1106.7 1788.41 673.113 1463.68 755.267C1463.68 755.267 775.476 829.434 695.717 992.602C695.717 992.602 476.95 307.984 397.191 285.163" stroke="url(#paint0_linear_80_108)" stroke-width="2" stroke-miterlimit="10"/>
<path opacity="0.8" d="M695.717 992.763C822.192 655.496 1961.6 281.768 1961.6 281.768C1799.81 322.787 1463.68 755.765 1463.68 755.765C1463.68 755.765 752.688 238.471 397.191 286.326C397.191 286.326 1962.74 337.6 2542.7 1106.7" stroke="url(#paint1_linear_80_108)" stroke-width="2" stroke-miterlimit="10"/>
<path d="M395.497 315.716C413.308 315.716 427.747 301.277 427.747 283.466C427.747 265.654 413.308 251.215 395.497 251.215C377.685 251.215 363.246 265.654 363.246 283.466C363.246 301.277 377.685 315.716 395.497 315.716Z" fill="url(#paint2_linear_80_108)"/>
<path d="M695.936 1021.83C714.685 1021.83 729.884 1007.4 729.884 989.584C729.884 971.773 714.685 957.333 695.936 957.333C677.187 957.333 661.988 971.773 661.988 989.584C661.988 1007.4 677.187 1021.83 695.936 1021.83Z" fill="url(#paint3_linear_80_108)"/>
<path d="M1960.5 312.321C1978.31 312.321 1992.75 297.882 1992.75 280.071C1992.75 262.259 1978.31 247.82 1960.5 247.82C1942.69 247.82 1928.25 262.259 1928.25 280.071C1928.25 297.882 1942.69 312.321 1960.5 312.321Z" fill="url(#paint4_linear_80_108)"/>
<path d="M2544.4 1137.26C2562.21 1137.26 2576.65 1122.82 2576.65 1105.01C2576.65 1087.2 2562.21 1072.76 2544.4 1072.76C2526.59 1072.76 2512.15 1087.2 2512.15 1105.01C2512.15 1122.82 2526.59 1137.26 2544.4 1137.26Z" fill="url(#paint5_linear_80_108)"/>
<path d="M1447.89 790.988C1465.7 790.988 1480.14 776.549 1480.14 758.737C1480.14 740.926 1465.7 726.487 1447.89 726.487C1430.08 726.487 1415.64 740.926 1415.64 758.737C1415.64 776.549 1430.08 790.988 1447.89 790.988Z" fill="url(#paint6_linear_80_108)"/>
<defs>
<linearGradient id="paint0_linear_80_108" x1="1469.95" y1="285.163" x2="1469.95" y2="1106.7" gradientUnits="userSpaceOnUse">
<stop stop-color="#FFF965"/>
<stop offset="1" stop-color="#FF0000"/>
</linearGradient>
<linearGradient id="paint1_linear_80_108" x1="1469.95" y1="281.768" x2="1469.95" y2="1106.7" gradientUnits="userSpaceOnUse">
<stop stop-color="#FFF965"/>
<stop offset="1" stop-color="#FF0000"/>
</linearGradient>
<linearGradient id="paint2_linear_80_108" x1="388.626" y1="251.215" x2="447.194" y2="361.222" gradientUnits="userSpaceOnUse">
<stop stop-color="#FFF965"/>
<stop offset="1" stop-color="#79FF76"/>
</linearGradient>
<linearGradient id="paint3_linear_80_108" x1="688.704" y1="957.333" x2="745.568" y2="1069.76" gradientUnits="userSpaceOnUse">
<stop stop-color="#FFF965"/>
<stop offset="1" stop-color="#79FF76"/>
</linearGradient>
<linearGradient id="paint4_linear_80_108" x1="1953.63" y1="247.82" x2="2012.19" y2="357.827" gradientUnits="userSpaceOnUse">
<stop stop-color="#FFF965"/>
<stop offset="1" stop-color="#79FF76"/>
</linearGradient>
<linearGradient id="paint5_linear_80_108" x1="2537.53" y1="1072.76" x2="2596.1" y2="1182.76" gradientUnits="userSpaceOnUse">
<stop stop-color="#FFF965"/>
<stop offset="1" stop-color="#79FF76"/>
</linearGradient>
<linearGradient id="paint6_linear_80_108" x1="1441.02" y1="726.487" x2="1499.58" y2="836.494" gradientUnits="userSpaceOnUse">
<stop stop-color="#FFF965"/>
<stop offset="1" stop-color="#79FF76"/>
</linearGradient>
</defs>
</svg>
