<svg width="173" height="35" viewBox="0 0 173 35" fill="none" xmlns="http://www.w3.org/2000/svg">
<path d="M37.594 10.31C37.594 9.158 37.144 8.186 36.082 7.538C37.09 6.908 37.594 6.062 37.594 4.766V4.73C37.594 2.84 36.028 1.4 33.922 1.4H29.35V14H33.922C36.028 14 37.594 12.56 37.594 10.67V10.31ZM31.618 8.582H33.922C34.732 8.582 35.326 9.248 35.326 10.058V10.454C35.326 11.3 34.732 11.93 33.886 11.93H31.618V8.582ZM31.618 3.47H33.886C34.732 3.47 35.326 4.1 35.326 4.946V5.036C35.326 5.846 34.75 6.512 33.94 6.512H31.618V3.47ZM45.3045 14H46.3305V7.826C46.3305 6.026 44.9625 4.64 43.0365 4.64H42.6045C40.6785 4.64 39.3105 6.026 39.3105 7.826V7.88L41.5245 8.096V7.754C41.5245 7.232 42.0105 6.8 42.6045 6.8H43.0365C43.6305 6.8 44.1165 7.232 44.1165 7.754V8.708H42.1905C40.3365 8.708 39.2205 9.734 39.2205 11.246V11.606C39.2205 13.118 40.3365 14.18 42.1905 14.18H42.2265C43.3065 14.18 44.1885 13.73 44.6745 13.01L45.3045 14ZM41.4345 11.21C41.4345 10.724 41.8125 10.346 42.3705 10.346H44.1165V11.282C44.1165 11.768 43.6845 12.128 43.1985 12.128H42.3705C41.8125 12.128 41.4345 11.75 41.4345 11.264V11.21ZM49.6023 4.82H48.5763V14H50.7903V7.862C50.7903 7.232 51.2223 6.8 51.8523 6.8H52.4463C53.0763 6.8 53.5083 7.232 53.5083 7.862V14H55.7223V7.934C55.7223 5.828 54.6063 4.64 52.6083 4.64H52.5723C51.6183 4.64 50.8083 5.108 50.2503 5.846L49.6023 4.82ZM58.1605 14.792C58.1605 16.376 59.2945 17.6 61.1125 17.6H61.9945C63.8125 17.6 64.9465 16.376 64.9465 14.792C64.9465 13.208 63.8125 11.984 61.9945 11.984H60.2845C59.9785 11.984 59.7625 11.786 59.7625 11.48C59.7625 11.174 59.9785 10.958 60.2845 10.958H61.9225C63.8305 10.958 65.1265 9.626 65.1265 7.826V4.82H64.1005L63.5605 5.648C63.0205 4.982 62.2825 4.64 61.3285 4.64H61.0405C59.1145 4.64 57.8005 5.972 57.8005 7.772V7.826C57.8005 8.708 58.0705 9.428 58.6105 9.986C58.1965 10.346 57.9805 10.85 57.9805 11.48C57.9805 12.182 58.2505 12.722 58.7365 13.028C58.3585 13.514 58.1605 14.108 58.1605 14.792ZM63.0025 7.898C63.0025 8.6 62.4805 9.086 61.8325 9.086H61.0945C60.4285 9.086 59.9245 8.564 59.9245 7.898V7.7C59.9245 7.052 60.4285 6.512 61.0945 6.512H61.8325C62.4805 6.512 63.0025 7.052 63.0025 7.7V7.898ZM62.9305 14.864C62.9305 15.314 62.6065 15.656 61.9765 15.656H61.1305C60.5005 15.656 60.1765 15.314 60.1765 14.864V14.72C60.1765 14.288 60.5005 13.928 61.1305 13.928H61.9765C62.6065 13.928 62.9305 14.288 62.9305 14.72V14.864ZM73.0457 14H74.0717V4.82H71.8577V10.958C71.8577 11.588 71.4257 12.02 70.7957 12.02H70.2017C69.5717 12.02 69.1397 11.588 69.1397 10.958V4.82H66.9257V10.886C66.9257 12.992 68.0417 14.18 70.0397 14.18H70.0757C71.0297 14.18 71.8217 13.748 72.3797 12.974L73.0457 14ZM77.446 4.82H76.42V14H78.634V7.862C78.634 7.232 79.066 6.8 79.696 6.8H80.29C80.92 6.8 81.352 7.232 81.352 7.862V14H83.566V7.934C83.566 5.828 82.45 4.64 80.452 4.64H80.416C79.462 4.64 78.652 5.108 78.094 5.846L77.446 4.82ZM88.2723 11.84V3.56H90.5403C91.3863 3.56 91.9803 4.19 91.9803 5.036V10.364C91.9803 11.21 91.3863 11.84 90.5403 11.84H88.2723ZM86.0043 14H90.5763C92.6643 14 94.2483 12.434 94.2483 10.364V5.036C94.2483 2.966 92.6643 1.4 90.5763 1.4H86.0043V14ZM102.486 14H103.512V7.826C103.512 6.026 102.144 4.64 100.218 4.64H99.7861C97.8601 4.64 96.4921 6.026 96.4921 7.826V7.88L98.7061 8.096V7.754C98.7061 7.232 99.1921 6.8 99.7861 6.8H100.218C100.812 6.8 101.298 7.232 101.298 7.754V8.708H99.3721C97.5181 8.708 96.4021 9.734 96.4021 11.246V11.606C96.4021 13.118 97.5181 14.18 99.3721 14.18H99.4081C100.488 14.18 101.37 13.73 101.856 13.01L102.486 14ZM98.6161 11.21C98.6161 10.724 98.9941 10.346 99.5521 10.346H101.298V11.282C101.298 11.768 100.866 12.128 100.38 12.128H99.5521C98.9941 12.128 98.6161 11.75 98.6161 11.264V11.21ZM110.798 14V11.84H109.592C108.998 11.84 108.692 11.534 108.692 10.94V6.926H110.798V4.82H108.692V2.3L106.478 2.66V4.82H104.858V6.926H106.478V11.048C106.478 12.974 107.486 14 109.412 14H110.798ZM118.676 14H119.702V7.826C119.702 6.026 118.334 4.64 116.408 4.64H115.976C114.05 4.64 112.682 6.026 112.682 7.826V7.88L114.896 8.096V7.754C114.896 7.232 115.382 6.8 115.976 6.8H116.408C117.002 6.8 117.488 7.232 117.488 7.754V8.708H115.562C113.708 8.708 112.592 9.734 112.592 11.246V11.606C112.592 13.118 113.708 14.18 115.562 14.18H115.598C116.678 14.18 117.56 13.73 118.046 13.01L118.676 14ZM114.806 11.21C114.806 10.724 115.184 10.346 115.742 10.346H117.488V11.282C117.488 11.768 117.056 12.128 116.57 12.128H115.742C115.184 12.128 114.806 11.75 114.806 11.264V11.21ZM127.923 10.544C127.923 11.39 127.329 12.02 126.483 12.02H125.655C124.809 12.02 124.215 11.39 124.215 10.544V4.856C124.215 4.01 124.809 3.38 125.655 3.38H126.483C127.329 3.38 127.923 4.01 127.923 4.856V5.72L130.191 5.504V4.856C130.191 2.786 128.607 1.22 126.519 1.22H125.619C123.531 1.22 121.947 2.786 121.947 4.856V10.544C121.947 12.614 123.531 14.18 125.619 14.18H126.519C128.607 14.18 130.191 12.614 130.191 10.544V9.896L127.923 9.68V10.544ZM137.106 10.94C137.106 11.534 136.62 12.02 136.026 12.02H135.468C134.874 12.02 134.388 11.534 134.388 10.94V9.824H139.32V7.952C139.32 6.044 137.952 4.64 136.026 4.64H135.468C133.542 4.64 132.174 6.044 132.174 7.952V10.868C132.174 12.776 133.542 14.18 135.468 14.18H136.026C137.952 14.18 139.32 12.776 139.32 10.868V10.85L137.106 10.634V10.94ZM134.388 7.88C134.388 7.286 134.874 6.8 135.468 6.8H136.026C136.62 6.8 137.106 7.286 137.106 7.88V8.438H134.388V7.88ZM142.503 4.82H141.477V14H143.691V7.862C143.691 7.232 144.123 6.8 144.753 6.8H145.347C145.977 6.8 146.409 7.232 146.409 7.862V14H148.623V7.934C148.623 5.828 147.507 4.64 145.509 4.64H145.473C144.519 4.64 143.709 5.108 143.151 5.846L142.503 4.82ZM155.921 14V11.84H154.715C154.121 11.84 153.815 11.534 153.815 10.94V6.926H155.921V4.82H153.815V2.3L151.601 2.66V4.82H149.981V6.926H151.601V11.048C151.601 12.974 152.609 14 154.535 14H155.921ZM162.647 10.94C162.647 11.534 162.161 12.02 161.567 12.02H161.009C160.415 12.02 159.929 11.534 159.929 10.94V9.824H164.861V7.952C164.861 6.044 163.493 4.64 161.567 4.64H161.009C159.083 4.64 157.715 6.044 157.715 7.952V10.868C157.715 12.776 159.083 14.18 161.009 14.18H161.567C163.493 14.18 164.861 12.776 164.861 10.868V10.85L162.647 10.634V10.94ZM159.929 7.88C159.929 7.286 160.415 6.8 161.009 6.8H161.567C162.161 6.8 162.647 7.286 162.647 7.88V8.438H159.929V7.88ZM168.044 4.82H167.018V14H169.232V7.952C169.232 7.322 169.664 6.89 170.294 6.89H172.076V4.64H171.014C170.06 4.64 169.25 5.108 168.692 5.846L168.044 4.82Z" fill="url(#paint0_linear_182_417)"/>
<path d="M33.5166 29.0791C33.5166 29.3617 33.4619 29.6283 33.3525 29.8789C33.2477 30.1296 33.1019 30.3483 32.915 30.5352C32.7282 30.722 32.5094 30.8701 32.2588 30.9795C32.0081 31.0843 31.7415 31.1367 31.459 31.1367H30.8984C30.6159 31.1367 30.3493 31.0843 30.0986 30.9795C29.848 30.8701 29.6292 30.722 29.4424 30.5352C29.2555 30.3483 29.1074 30.1296 28.998 29.8789C28.8932 29.6283 28.8408 29.3617 28.8408 29.0791V21.1973H29.6816V24.5879C29.873 24.36 30.1032 24.1823 30.3721 24.0547C30.641 23.9271 30.9326 23.8633 31.2471 23.8633H31.459C31.7415 23.8633 32.0081 23.918 32.2588 24.0273C32.5094 24.1322 32.7282 24.278 32.915 24.4648C33.1019 24.6517 33.2477 24.8704 33.3525 25.1211C33.4619 25.3717 33.5166 25.6383 33.5166 25.9209V29.0791ZM32.6758 25.873C32.6758 25.7044 32.6439 25.5472 32.5801 25.4014C32.5163 25.251 32.4297 25.1211 32.3203 25.0117C32.2109 24.9023 32.0811 24.8158 31.9307 24.752C31.7848 24.6882 31.6276 24.6562 31.459 24.6562H30.8984C30.7298 24.6562 30.5703 24.6882 30.4199 24.752C30.2741 24.8158 30.1465 24.9023 30.0371 25.0117C29.9277 25.1211 29.8411 25.251 29.7773 25.4014C29.7135 25.5472 29.6816 25.7044 29.6816 25.873V29.127C29.6816 29.2956 29.7135 29.4551 29.7773 29.6055C29.8411 29.7513 29.9277 29.8789 30.0371 29.9883C30.1465 30.0977 30.2741 30.1842 30.4199 30.248C30.5703 30.3118 30.7298 30.3438 30.8984 30.3438H31.459C31.6276 30.3438 31.7848 30.3118 31.9307 30.248C32.0811 30.1842 32.2109 30.0977 32.3203 29.9883C32.4297 29.8789 32.5163 29.7513 32.5801 29.6055C32.6439 29.4551 32.6758 29.2956 32.6758 29.127V25.873ZM36.333 33.8027H35.5195L36.7637 30.3984L34.4941 24H35.335L37.1602 29.3047L37.1875 29.667L37.2148 29.3047L39.0332 24H39.874L36.333 33.8027ZM49.2803 31L45.1924 23.8633L45.1104 23.4395V31H44.2285V21.1973H44.6865L48.7744 28.3408L48.8633 28.7578V21.1973H49.7451V31H49.2803ZM57.5107 24.8271C57.5107 25.1598 57.4469 25.472 57.3193 25.7637C57.1963 26.0553 57.0254 26.3105 56.8066 26.5293C56.5879 26.748 56.3304 26.9212 56.0342 27.0488C55.7425 27.1719 55.4303 27.2334 55.0977 27.2334H52.876V31H51.9941V21.1973H55.0977C55.4303 21.1973 55.7425 21.2611 56.0342 21.3887C56.3304 21.5117 56.5879 21.6826 56.8066 21.9014C57.0254 22.1201 57.1963 22.3776 57.3193 22.6738C57.4469 22.9655 57.5107 23.2777 57.5107 23.6104V24.8271ZM56.6289 23.6104C56.6289 23.3916 56.5879 23.1888 56.5059 23.002C56.4238 22.8105 56.3099 22.6442 56.1641 22.5029C56.0228 22.3571 55.8564 22.2432 55.665 22.1611C55.4782 22.0791 55.2754 22.0381 55.0566 22.0381H52.876V26.3926H55.0566C55.2754 26.3926 55.4782 26.3516 55.665 26.2695C55.8564 26.1875 56.0228 26.0758 56.1641 25.9346C56.3099 25.7933 56.4238 25.6292 56.5059 25.4424C56.5879 25.251 56.6289 25.0459 56.6289 24.8271V23.6104ZM64.5723 28.7305C64.5723 29.0632 64.5039 29.3753 64.3672 29.667C64.235 29.9587 64.055 30.2139 63.8271 30.4326C63.6038 30.6514 63.3418 30.8245 63.041 30.9521C62.7448 31.0752 62.4303 31.1367 62.0977 31.1367H61.3936C61.0609 31.1367 60.7441 31.0752 60.4434 30.9521C60.1471 30.8245 59.8851 30.6514 59.6572 30.4326C59.4339 30.2139 59.2539 29.9587 59.1172 29.667C58.985 29.3753 58.9189 29.0632 58.9189 28.7305V28.3408L59.8008 28.1973V28.7305C59.8008 28.9492 59.8441 29.1543 59.9307 29.3457C60.0218 29.5326 60.1426 29.6989 60.293 29.8447C60.4434 29.986 60.6165 30.0977 60.8125 30.1797C61.013 30.2617 61.2227 30.3027 61.4414 30.3027H62.0566C62.2754 30.3027 62.4827 30.2617 62.6787 30.1797C62.8747 30.0977 63.0479 29.986 63.1982 29.8447C63.3486 29.6989 63.4671 29.5326 63.5537 29.3457C63.6449 29.1543 63.6904 28.9492 63.6904 28.7305V28.4365C63.6904 28.0993 63.6243 27.819 63.4922 27.5957C63.36 27.3724 63.1846 27.1833 62.9658 27.0283C62.7471 26.8688 62.4987 26.7344 62.2207 26.625C61.9473 26.5156 61.6647 26.4062 61.373 26.2969C61.0814 26.1875 60.7965 26.0667 60.5186 25.9346C60.2451 25.8024 59.999 25.6383 59.7803 25.4424C59.5615 25.2419 59.3861 24.998 59.2539 24.7109C59.1217 24.4238 59.0557 24.0706 59.0557 23.6514V23.4668C59.0557 23.1341 59.1172 22.8219 59.2402 22.5303C59.3678 22.2386 59.541 21.9834 59.7598 21.7646C59.9785 21.5459 60.2337 21.375 60.5254 21.252C60.8216 21.1243 61.1361 21.0605 61.4688 21.0605H62.0977C62.4303 21.0605 62.7425 21.1243 63.0342 21.252C63.3258 21.375 63.5811 21.5459 63.7998 21.7646C64.0186 21.9834 64.1895 22.2386 64.3125 22.5303C64.4401 22.8219 64.5039 23.1341 64.5039 23.4668V23.7197L63.6221 23.8633V23.4668C63.6221 23.248 63.5811 23.0452 63.499 22.8584C63.417 22.667 63.3053 22.5007 63.1641 22.3594C63.0228 22.2181 62.8564 22.1064 62.665 22.0244C62.4782 21.9424 62.2754 21.9014 62.0566 21.9014H61.5098C61.291 21.9014 61.0859 21.9424 60.8945 22.0244C60.7077 22.1064 60.5413 22.2181 60.3955 22.3594C60.2542 22.5007 60.1426 22.667 60.0605 22.8584C59.9785 23.0452 59.9375 23.248 59.9375 23.4668V23.6514C59.9375 23.9658 60.0036 24.2301 60.1357 24.4443C60.2679 24.6585 60.4434 24.8431 60.6621 24.998C60.8809 25.1484 61.127 25.2806 61.4004 25.3945C61.6784 25.5039 61.9632 25.6178 62.2549 25.7363C62.5465 25.8503 62.8291 25.9779 63.1025 26.1191C63.3805 26.2559 63.6289 26.4268 63.8477 26.6318C64.0664 26.8324 64.2419 27.0785 64.374 27.3701C64.5062 27.6618 64.5723 28.0173 64.5723 28.4365V28.7305ZM78.4424 24.8271C78.4424 25.1598 78.3786 25.472 78.251 25.7637C78.1279 26.0553 77.957 26.3105 77.7383 26.5293C77.5195 26.748 77.262 26.9212 76.9658 27.0488C76.6742 27.1719 76.362 27.2334 76.0293 27.2334H73.8076V31H72.9258V21.1973H76.0293C76.362 21.1973 76.6742 21.2611 76.9658 21.3887C77.262 21.5117 77.5195 21.6826 77.7383 21.9014C77.957 22.1201 78.1279 22.3776 78.251 22.6738C78.3786 22.9655 78.4424 23.2777 78.4424 23.6104V24.8271ZM77.5605 23.6104C77.5605 23.3916 77.5195 23.1888 77.4375 23.002C77.3555 22.8105 77.2415 22.6442 77.0957 22.5029C76.9544 22.3571 76.7881 22.2432 76.5967 22.1611C76.4098 22.0791 76.207 22.0381 75.9883 22.0381H73.8076V26.3926H75.9883C76.207 26.3926 76.4098 26.3516 76.5967 26.2695C76.7881 26.1875 76.9544 26.0758 77.0957 25.9346C77.2415 25.7933 77.3555 25.6292 77.4375 25.4424C77.5195 25.251 77.5605 25.0459 77.5605 24.8271V23.6104ZM84.5264 29.0791C84.5264 29.3617 84.4717 29.6283 84.3623 29.8789C84.2575 30.1296 84.1117 30.3483 83.9248 30.5352C83.738 30.722 83.5192 30.8701 83.2686 30.9795C83.0179 31.0843 82.7513 31.1367 82.4688 31.1367H81.9082C81.6257 31.1367 81.359 31.0843 81.1084 30.9795C80.8577 30.8701 80.639 30.722 80.4521 30.5352C80.2653 30.3483 80.1172 30.1296 80.0078 29.8789C79.903 29.6283 79.8506 29.3617 79.8506 29.0791V25.9209C79.8506 25.6383 79.903 25.3717 80.0078 25.1211C80.1172 24.8704 80.2653 24.6517 80.4521 24.4648C80.639 24.278 80.8577 24.1322 81.1084 24.0273C81.359 23.918 81.6257 23.8633 81.9082 23.8633H82.4688C82.7513 23.8633 83.0179 23.918 83.2686 24.0273C83.5192 24.1322 83.738 24.278 83.9248 24.4648C84.1117 24.6517 84.2575 24.8704 84.3623 25.1211C84.4717 25.3717 84.5264 25.6383 84.5264 25.9209V27.5684H80.6914V29.127C80.6914 29.2956 80.7233 29.4551 80.7871 29.6055C80.8509 29.7513 80.9375 29.8789 81.0469 29.9883C81.1562 30.0977 81.2839 30.1842 81.4297 30.248C81.5801 30.3118 81.7396 30.3438 81.9082 30.3438H82.4688C82.6374 30.3438 82.7946 30.3118 82.9404 30.248C83.0908 30.1842 83.2207 30.0977 83.3301 29.9883C83.4395 29.8789 83.526 29.7513 83.5898 29.6055C83.6536 29.4551 83.6855 29.2956 83.6855 29.127V28.6621L84.5264 28.7988V29.0791ZM83.6855 25.873C83.6855 25.7044 83.6536 25.5472 83.5898 25.4014C83.526 25.251 83.4395 25.1211 83.3301 25.0117C83.2207 24.9023 83.0908 24.8158 82.9404 24.752C82.7946 24.6882 82.6374 24.6562 82.4688 24.6562H81.9082C81.7396 24.6562 81.5801 24.6882 81.4297 24.752C81.2839 24.8158 81.1562 24.9023 81.0469 25.0117C80.9375 25.1211 80.8509 25.251 80.7871 25.4014C80.7233 25.5472 80.6914 25.7044 80.6914 25.873V26.9121H83.6855V25.873ZM93.5977 31V25.873C93.5977 25.7044 93.5658 25.5472 93.502 25.4014C93.4382 25.251 93.3516 25.1211 93.2422 25.0117C93.1328 24.9023 93.0029 24.8158 92.8525 24.752C92.7067 24.6882 92.5495 24.6562 92.3809 24.6562H91.9639C91.7952 24.6562 91.6357 24.6882 91.4854 24.752C91.3395 24.8158 91.2096 24.9023 91.0957 25.0117C90.9863 25.1211 90.8997 25.251 90.8359 25.4014C90.7721 25.5472 90.7402 25.7044 90.7402 25.873V31H89.9062V25.873C89.9062 25.7044 89.8743 25.5472 89.8105 25.4014C89.7467 25.251 89.6579 25.1211 89.5439 25.0117C89.4346 24.9023 89.3047 24.8158 89.1543 24.752C89.0085 24.6882 88.8512 24.6562 88.6826 24.6562H88.2656C88.097 24.6562 87.9375 24.6882 87.7871 24.752C87.6413 24.8158 87.5137 24.9023 87.4043 25.0117C87.2949 25.1211 87.2083 25.251 87.1445 25.4014C87.0807 25.5472 87.0488 25.7044 87.0488 25.873V31H86.208V24H86.4883L86.9463 24.7109C87.1377 24.4512 87.377 24.2461 87.6641 24.0957C87.9557 23.9408 88.2725 23.8633 88.6143 23.8633H88.6826C89.0791 23.8633 89.4368 23.9613 89.7559 24.1572C90.0749 24.3532 90.321 24.613 90.4941 24.9365C90.5807 24.777 90.6878 24.6312 90.8154 24.499C90.943 24.3669 91.0843 24.2552 91.2393 24.1641C91.3942 24.0684 91.5628 23.9954 91.7451 23.9453C91.9274 23.8906 92.1165 23.8633 92.3125 23.8633H92.3809C92.6634 23.8633 92.93 23.918 93.1807 24.0273C93.4313 24.1322 93.6501 24.278 93.8369 24.4648C94.0238 24.6517 94.1696 24.8704 94.2744 25.1211C94.3838 25.3717 94.4385 25.6383 94.4385 25.9209V31H93.5977ZM100.516 31L100.051 30.2891C99.8594 30.5488 99.6201 30.7562 99.333 30.9111C99.0459 31.0615 98.7314 31.1367 98.3896 31.1367H98.1777C97.8952 31.1367 97.6286 31.0843 97.3779 30.9795C97.1273 30.8701 96.9085 30.722 96.7217 30.5352C96.5348 30.3483 96.3867 30.1296 96.2773 29.8789C96.1725 29.6283 96.1201 29.3617 96.1201 29.0791V24H96.9609V29.127C96.9609 29.2956 96.9928 29.4551 97.0566 29.6055C97.1204 29.7513 97.207 29.8789 97.3164 29.9883C97.4258 30.0977 97.5534 30.1842 97.6992 30.248C97.8496 30.3118 98.0091 30.3438 98.1777 30.3438H98.7383C98.9069 30.3438 99.0641 30.3118 99.21 30.248C99.3604 30.1842 99.4902 30.0977 99.5996 29.9883C99.709 29.8789 99.7956 29.7513 99.8594 29.6055C99.9232 29.4551 99.9551 29.2956 99.9551 29.127V24H100.796V31H100.516ZM106.873 31L106.408 30.2891C106.217 30.5488 105.978 30.7562 105.69 30.9111C105.403 31.0615 105.089 31.1367 104.747 31.1367H104.535C104.253 31.1367 103.986 31.0843 103.735 30.9795C103.485 30.8701 103.266 30.722 103.079 30.5352C102.892 30.3483 102.744 30.1296 102.635 29.8789C102.53 29.6283 102.478 29.3617 102.478 29.0791V25.9209C102.478 25.6383 102.53 25.3717 102.635 25.1211C102.744 24.8704 102.892 24.6517 103.079 24.4648C103.266 24.278 103.485 24.1322 103.735 24.0273C103.986 23.918 104.253 23.8633 104.535 23.8633H104.747C105.062 23.8633 105.353 23.9271 105.622 24.0547C105.891 24.1823 106.121 24.36 106.312 24.5879V21.1973H107.153V31H106.873ZM106.312 25.873C106.312 25.7044 106.281 25.5472 106.217 25.4014C106.153 25.251 106.066 25.1211 105.957 25.0117C105.848 24.9023 105.718 24.8158 105.567 24.752C105.422 24.6882 105.264 24.6562 105.096 24.6562H104.535C104.367 24.6562 104.207 24.6882 104.057 24.752C103.911 24.8158 103.783 24.9023 103.674 25.0117C103.564 25.1211 103.478 25.251 103.414 25.4014C103.35 25.5472 103.318 25.7044 103.318 25.873V29.127C103.318 29.2956 103.35 29.4551 103.414 29.6055C103.478 29.7513 103.564 29.8789 103.674 29.9883C103.783 30.0977 103.911 30.1842 104.057 30.248C104.207 30.3118 104.367 30.3438 104.535 30.3438H105.096C105.264 30.3438 105.422 30.3118 105.567 30.248C105.718 30.1842 105.848 30.0977 105.957 29.9883C106.066 29.8789 106.153 29.7513 106.217 29.6055C106.281 29.4551 106.312 29.2956 106.312 29.127V25.873ZM113.23 31L112.766 30.3027C112.574 30.5534 112.335 30.7562 112.048 30.9111C111.761 31.0615 111.446 31.1367 111.104 31.1367H110.893C110.61 31.1367 110.343 31.0843 110.093 30.9795C109.842 30.8701 109.623 30.722 109.437 30.5352C109.25 30.3483 109.102 30.1296 108.992 29.8789C108.887 29.6283 108.835 29.3617 108.835 29.0791V29.0107C108.835 28.7282 108.887 28.4616 108.992 28.2109C109.102 27.9603 109.25 27.7415 109.437 27.5547C109.623 27.3678 109.842 27.222 110.093 27.1172C110.343 27.0078 110.61 26.9531 110.893 26.9531H112.67V25.873C112.67 25.7044 112.638 25.5472 112.574 25.4014C112.51 25.251 112.424 25.1211 112.314 25.0117C112.205 24.9023 112.075 24.8158 111.925 24.752C111.779 24.6882 111.622 24.6562 111.453 24.6562H110.961C110.792 24.6562 110.633 24.6882 110.482 24.752C110.337 24.8158 110.209 24.9023 110.1 25.0117C109.99 25.1211 109.904 25.251 109.84 25.4014C109.776 25.5472 109.744 25.7044 109.744 25.873V26.126L108.903 25.9893V25.9209C108.903 25.6383 108.956 25.3717 109.061 25.1211C109.17 24.8704 109.318 24.6517 109.505 24.4648C109.692 24.278 109.91 24.1322 110.161 24.0273C110.412 23.918 110.678 23.8633 110.961 23.8633H111.453C111.736 23.8633 112.002 23.918 112.253 24.0273C112.504 24.1322 112.722 24.278 112.909 24.4648C113.096 24.6517 113.242 24.8704 113.347 25.1211C113.456 25.3717 113.511 25.6383 113.511 25.9209V31H113.23ZM112.67 27.6094H110.893C110.724 27.6094 110.564 27.6413 110.414 27.7051C110.268 27.7689 110.141 27.8577 110.031 27.9717C109.922 28.0811 109.835 28.2109 109.771 28.3613C109.708 28.5072 109.676 28.6644 109.676 28.833V29.127C109.676 29.2956 109.708 29.4551 109.771 29.6055C109.835 29.7513 109.922 29.8789 110.031 29.9883C110.141 30.0977 110.268 30.1842 110.414 30.248C110.564 30.3118 110.724 30.3438 110.893 30.3438H111.453C111.622 30.3438 111.779 30.3118 111.925 30.248C112.075 30.1842 112.205 30.0977 112.314 29.9883C112.424 29.8789 112.51 29.7513 112.574 29.6055C112.638 29.4551 112.67 29.2956 112.67 29.127V27.6094Z" fill="white"/>
<path d="M0 7.97857L11.04 2L23 7.97857V33L18.6875 19.9219L11.04 10L2.875 20.4062L0 26.5V7.97857Z" fill="url(#paint1_linear_182_417)"/>
<defs>
<linearGradient id="paint0_linear_182_417" x1="52.7476" y1="-24.2609" x2="287.181" y2="149.76" gradientUnits="userSpaceOnUse">
<stop stop-color="#FFF965"/>
<stop offset="0.90625" stop-color="#79FF76"/>
</linearGradient>
<linearGradient id="paint1_linear_182_417" x1="13.2312" y1="-14.1889" x2="-10.1961" y2="-4.93744" gradientUnits="userSpaceOnUse">
<stop stop-color="#FFF965"/>
<stop offset="1" stop-color="#79FF76"/>
</linearGradient>
</defs>
</svg>
