<svg width="2385" height="1163" viewBox="0 0 2385 1163" fill="none" xmlns="http://www.w3.org/2000/svg">
<rect x="0.304688" width="736.929" height="165.211" rx="32.6075" fill="url(#paint0_linear_307_436)"/>
<rect x="824.188" width="736.929" height="165.211" rx="32.6075" fill="url(#paint1_linear_307_436)"/>
<rect x="1648.07" width="736.929" height="165.211" rx="32.6075" fill="url(#paint2_linear_307_436)"/>
<rect x="0.304688" y="332.596" width="736.929" height="165.211" rx="32.6075" fill="url(#paint3_linear_307_436)"/>
<rect x="0.304688" y="665.192" width="736.929" height="165.211" rx="32.6075" fill="url(#paint4_linear_307_436)"/>
<rect x="0.304688" y="997.789" width="736.929" height="165.211" rx="32.6075" fill="url(#paint5_linear_307_436)"/>
<rect x="824.188" y="332.596" width="736.929" height="165.211" rx="32.6075" fill="url(#paint6_linear_307_436)"/>
<rect x="1648.07" y="332.596" width="736.929" height="165.211" rx="32.6075" fill="url(#paint7_linear_307_436)"/>
<rect x="824.188" y="665.192" width="736.929" height="165.211" rx="32.6075" fill="url(#paint8_linear_307_436)"/>
<rect x="1648.07" y="665.192" width="736.929" height="165.211" rx="32.6075" fill="url(#paint9_linear_307_436)"/>
<rect x="824.188" y="997.789" width="736.929" height="165.211" rx="32.6075" fill="url(#paint10_linear_307_436)"/>
<rect x="1648.07" y="997.789" width="736.929" height="165.211" rx="32.6075" fill="url(#paint11_linear_307_436)"/>
<path d="M70.7451 102.52H76.2232V90.433H83.2229C89.8314 90.433 94.5269 86.694 94.5269 80.303C94.5269 73.8684 89.8749 70.1294 83.2229 70.1294H70.7451V102.52ZM76.2232 85.6506V74.9553H83.2229C86.6576 74.9553 88.9618 77.0857 88.9618 80.303C88.9618 83.5202 86.6576 85.6506 83.2229 85.6506H76.2232ZM98.937 102.52H104.415V90.433H111.11L117.936 102.52H124.197L116.719 89.4765C120.414 87.9983 122.719 84.7811 122.719 80.303C122.719 73.8684 118.067 70.1294 111.415 70.1294H98.937V102.52ZM104.415 85.6506V74.9553H111.415C114.849 74.9553 117.154 77.0857 117.154 80.303C117.154 83.5202 114.849 85.6506 111.415 85.6506H104.415ZM143.376 103.041C152.897 103.041 160.201 95.9111 160.201 86.3027C160.201 76.6944 152.897 69.6077 143.376 69.6077C133.855 69.6077 126.594 76.6944 126.594 86.3027C126.594 95.9111 133.898 103.041 143.376 103.041ZM143.376 97.998C136.898 97.998 132.072 92.9981 132.072 86.3027C132.072 79.6508 136.854 74.651 143.376 74.651C149.897 74.651 154.68 79.6508 154.68 86.3027C154.68 92.9981 149.897 97.998 143.376 97.998ZM165.044 102.52H175.608C185.782 102.52 192.347 95.8676 192.347 86.3027C192.347 76.7379 185.782 70.1294 175.608 70.1294H165.044V102.52ZM170.522 97.6936V74.9553H175.739C182.434 74.9553 186.782 79.39 186.782 86.3027C186.782 93.2155 182.478 97.6936 175.739 97.6936H170.522ZM216.835 70.1294V91.0417C216.835 95.172 213.923 98.0849 209.792 98.0849C205.618 98.0849 202.706 95.2155 202.706 91.0417V70.1294H197.184V91.0417C197.184 97.998 202.184 103.041 209.792 103.041C217.357 103.041 222.4 97.998 222.4 91.0417V70.1294H216.835ZM243.306 103.041C250.132 103.041 255.175 99.1284 256.827 94.6068L251.958 92.259C250.61 95.6937 247.523 98.0849 243.306 98.0849C237.002 98.0849 232.654 93.3025 232.654 86.3027C232.654 79.3465 237.002 74.5641 243.306 74.5641C247.523 74.5641 250.61 76.9553 251.958 80.3899L256.827 78.0422C255.175 73.5206 250.132 69.6077 243.306 69.6077C234.002 69.6077 227.176 76.6509 227.176 86.3027C227.176 95.9546 234.045 103.041 243.306 103.041ZM267.944 102.52H273.465V74.9553H281.9V70.1294H259.466V74.9553H267.944V102.52ZM293.436 102.52H298.914V70.1294H293.436V102.52ZM331.552 70.1294L320.77 84.7811L310.031 70.1294H304.814V102.52H310.292V79.5639L320.466 93.6068H321.074L331.248 79.9117V102.52H336.769V70.1294H331.552ZM342.644 102.52H348.122V90.433H355.122C361.73 90.433 366.426 86.694 366.426 80.303C366.426 73.8684 361.774 70.1294 355.122 70.1294H342.644V102.52ZM348.122 85.6506V74.9553H355.122C358.556 74.9553 360.861 77.0857 360.861 80.303C360.861 83.5202 358.556 85.6506 355.122 85.6506H348.122ZM370.836 102.52H390.835V97.6936H376.314V70.1294H370.836V102.52ZM394.952 102.52H416.342L416.386 97.6936H400.43V88.694H415.516V83.8681H400.43V74.9553H416.386V70.1294H394.952V102.52ZM448.141 70.1294L437.359 84.7811L426.62 70.1294H421.403V102.52H426.881V79.5639L437.054 93.6068H437.663L447.837 79.9117V102.52H453.358V70.1294H448.141ZM459.233 102.52H480.623L480.667 97.6936H464.711V88.694H479.797V83.8681H464.711V74.9553H480.667V70.1294H459.233V102.52ZM505.857 70.1294V91.9112L490.031 70.1294H485.684V102.52H491.162V80.5204L506.987 102.52H511.378V70.1294H505.857ZM523.751 102.52H529.273V74.9553H537.707V70.1294H515.273V74.9553H523.751V102.52ZM555.348 70.1294H548.391L537.044 102.52H542.87L545.261 95.3894H558.478L560.913 102.52H566.738L555.348 70.1294ZM546.87 90.5635L551.869 75.8684L556.869 90.5635H546.87ZM574.573 102.52H580.095V74.9553H588.529V70.1294H566.095V74.9553H574.573V102.52ZM592.422 102.52H597.9V70.1294H592.422V102.52ZM619.496 103.041C629.017 103.041 636.321 95.9111 636.321 86.3027C636.321 76.6944 629.017 69.6077 619.496 69.6077C609.975 69.6077 602.714 76.6944 602.714 86.3027C602.714 95.9111 610.018 103.041 619.496 103.041ZM619.496 97.998C613.018 97.998 608.192 92.9981 608.192 86.3027C608.192 79.6508 612.974 74.651 619.496 74.651C626.017 74.651 630.8 79.6508 630.8 86.3027C630.8 92.9981 626.017 97.998 619.496 97.998ZM661.337 70.1294V91.9112L645.511 70.1294H641.164V102.52H646.642V80.5204L662.467 102.52H666.858V70.1294H661.337Z" fill="black"/>
<path d="M938.457 102.52H943.935V90.433H950.935C957.543 90.433 962.239 86.694 962.239 80.303C962.239 73.8684 957.587 70.1294 950.935 70.1294H938.457V102.52ZM943.935 85.6506V74.9553H950.935C954.37 74.9553 956.674 77.0857 956.674 80.303C956.674 83.5202 954.37 85.6506 950.935 85.6506H943.935ZM966.649 102.52H972.127V90.433H978.823L985.648 102.52H991.909L984.431 89.4765C988.127 87.9983 990.431 84.7811 990.431 80.303C990.431 73.8684 985.779 70.1294 979.127 70.1294H966.649V102.52ZM972.127 85.6506V74.9553H979.127C982.562 74.9553 984.866 77.0857 984.866 80.303C984.866 83.5202 982.562 85.6506 979.127 85.6506H972.127ZM1011.09 103.041C1020.61 103.041 1027.91 95.9111 1027.91 86.3027C1027.91 76.6944 1020.61 69.6077 1011.09 69.6077C1001.57 69.6077 994.306 76.6944 994.306 86.3027C994.306 95.9111 1001.61 103.041 1011.09 103.041ZM1011.09 97.998C1004.61 97.998 999.784 92.9981 999.784 86.3027C999.784 79.6508 1004.57 74.651 1011.09 74.651C1017.61 74.651 1022.39 79.6508 1022.39 86.3027C1022.39 92.9981 1017.61 97.998 1011.09 97.998ZM1030.58 102.52H1032.49C1038.71 102.52 1042.67 98.6066 1042.67 92.6503V70.1294H1037.15V92.8242C1037.15 95.6067 1035.32 97.3893 1032.49 97.3893H1030.58V102.52ZM1048.55 102.52H1069.94L1069.98 97.6936H1054.03V88.694H1069.11V83.8681H1054.03V74.9553H1069.98V70.1294H1048.55V102.52ZM1090.04 103.041C1096.87 103.041 1101.91 99.1284 1103.57 94.6068L1098.7 92.259C1097.35 95.6937 1094.26 98.0849 1090.04 98.0849C1083.74 98.0849 1079.39 93.3025 1079.39 86.3027C1079.39 79.3465 1083.74 74.5641 1090.04 74.5641C1094.26 74.5641 1097.35 76.9553 1098.7 80.3899L1103.57 78.0422C1101.91 73.5206 1096.87 69.6077 1090.04 69.6077C1080.74 69.6077 1073.91 76.6509 1073.91 86.3027C1073.91 95.9546 1080.78 103.041 1090.04 103.041ZM1114.68 102.52H1120.2V74.9553H1128.64V70.1294H1106.2V74.9553H1114.68V102.52ZM1166.91 70.1294L1156.13 84.7811L1145.39 70.1294H1140.17V102.52H1145.65V79.5639L1155.83 93.6068H1156.43L1166.61 79.9117V102.52H1172.13V70.1294H1166.91ZM1193.92 70.1294H1186.96L1175.61 102.52H1181.44L1183.83 95.3894H1197.05L1199.48 102.52H1205.31L1193.92 70.1294ZM1185.44 90.5635L1190.44 75.8684L1195.44 90.5635H1185.44ZM1228.96 70.1294V91.9112L1213.13 70.1294H1208.79V102.52H1214.26V80.5204L1230.09 102.52H1234.48V70.1294H1228.96ZM1256.24 70.1294H1249.29L1237.94 102.52H1243.77L1246.16 95.3894H1259.37L1261.81 102.52H1267.63L1256.24 70.1294ZM1247.77 90.5635L1252.77 75.8684L1257.77 90.5635H1247.77ZM1285.27 103.041C1292.67 103.041 1297.75 99.0849 1299.32 93.8242V84.8245H1285.32V89.6504H1294.01V93.3894C1292.88 96.0415 1289.8 98.0849 1285.27 98.0849C1278.58 98.0849 1274.19 93.3025 1274.19 86.3027C1274.19 79.39 1278.54 74.5641 1284.84 74.5641C1288.97 74.5641 1292.14 76.8683 1293.49 80.3899L1298.36 78.0422C1296.58 73.2598 1291.4 69.6077 1284.84 69.6077C1275.58 69.6077 1268.71 76.7379 1268.71 86.3027C1268.71 95.9111 1275.71 103.041 1285.27 103.041ZM1303.93 102.52H1325.32L1325.37 97.6936H1309.41V88.694H1324.5V83.8681H1309.41V74.9553H1325.37V70.1294H1303.93V102.52ZM1357.12 70.1294L1346.34 84.7811L1335.6 70.1294H1330.38V102.52H1335.86V79.5639L1346.04 93.6068H1346.64L1356.82 79.9117V102.52H1362.34V70.1294H1357.12ZM1368.21 102.52H1389.6L1389.65 97.6936H1373.69V88.694H1388.78V83.8681H1373.69V74.9553H1389.65V70.1294H1368.21V102.52ZM1414.84 70.1294V91.9112L1399.01 70.1294H1394.66V102.52H1400.14V80.5204L1415.97 102.52H1420.36V70.1294H1414.84ZM1432.73 102.52H1438.25V74.9553H1446.69V70.1294H1424.25V74.9553H1432.73V102.52Z" fill="black"/>
<path d="M1797.59 70.1294H1790.64L1779.29 102.52H1785.12L1787.51 95.3894H1800.72L1803.16 102.52H1808.98L1797.59 70.1294ZM1789.12 90.5635L1794.12 75.8684L1799.12 90.5635H1789.12ZM1812.46 102.52H1817.94V89.2157H1832.46V84.4333H1817.94V74.9553H1834.11V70.1294H1812.46V102.52ZM1844.8 102.52H1850.32V74.9553H1858.75V70.1294H1836.32V74.9553H1844.8V102.52ZM1862.65 102.52H1884.04L1884.08 97.6936H1868.13V88.694H1883.21V83.8681H1868.13V74.9553H1884.08V70.1294H1862.65V102.52ZM1889.1 102.52H1894.58V90.433H1901.27L1908.1 102.52H1914.36L1906.88 89.4765C1910.58 87.9983 1912.88 84.7811 1912.88 80.303C1912.88 73.8684 1908.23 70.1294 1901.58 70.1294H1889.1V102.52ZM1894.58 85.6506V74.9553H1901.58C1905.01 74.9553 1907.32 77.0857 1907.32 80.303C1907.32 83.5202 1905.01 85.6506 1901.58 85.6506H1894.58ZM1938.07 103.041C1944.94 103.041 1949.59 99.2588 1949.59 93.6503C1949.59 89.3026 1946.86 86.4332 1941.51 84.7811L1935.38 82.9116C1932.77 82.129 1931.38 80.6508 1931.38 78.6509C1931.38 76.1727 1933.64 74.4336 1937.03 74.4336C1940.73 74.4336 1943.51 76.3901 1944.68 79.8247L1949.42 77.6509C1947.77 73.0858 1943.12 69.6077 1936.99 69.6077C1930.38 69.6077 1925.86 73.3902 1925.86 78.9117C1925.86 83.0855 1928.47 86.3027 1933.81 87.9114L1940.16 89.8678C1942.73 90.6504 1944.07 91.8243 1944.07 94.0416C1944.07 96.4328 1941.73 98.2153 1938.07 98.2153C1934.38 98.2153 1931.03 95.998 1929.51 91.9547L1924.81 94.0851C1926.47 99.3023 1931.68 103.041 1938.07 103.041ZM1970.06 70.1294H1963.1L1951.75 102.52H1957.58L1959.97 95.3894H1973.19L1975.62 102.52H1981.45L1970.06 70.1294ZM1961.58 90.5635L1966.58 75.8684L1971.58 90.5635H1961.58ZM1984.93 102.52H2004.93V97.6936H1990.4V70.1294H1984.93V102.52ZM2009.04 102.52H2030.43L2030.48 97.6936H2014.52V88.694H2029.61V83.8681H2014.52V74.9553H2030.48V70.1294H2009.04V102.52ZM2047.23 103.041C2054.1 103.041 2058.75 99.2588 2058.75 93.6503C2058.75 89.3026 2056.01 86.4332 2050.67 84.7811L2044.54 82.9116C2041.93 82.129 2040.54 80.6508 2040.54 78.6509C2040.54 76.1727 2042.8 74.4336 2046.19 74.4336C2049.88 74.4336 2052.67 76.3901 2053.84 79.8247L2058.58 77.6509C2056.93 73.0858 2052.28 69.6077 2046.15 69.6077C2039.54 69.6077 2035.02 73.3902 2035.02 78.9117C2035.02 83.0855 2037.62 86.3027 2042.97 87.9114L2049.32 89.8678C2051.88 90.6504 2053.23 91.8243 2053.23 94.0416C2053.23 96.4328 2050.88 98.2153 2047.23 98.2153C2043.54 98.2153 2040.19 95.998 2038.67 91.9547L2033.97 94.0851C2035.62 99.3023 2040.84 103.041 2047.23 103.041ZM2082.68 103.041C2089.55 103.041 2094.21 99.2588 2094.21 93.6503C2094.21 89.3026 2091.47 86.4332 2086.12 84.7811L2079.99 82.9116C2077.38 82.129 2075.99 80.6508 2075.99 78.6509C2075.99 76.1727 2078.25 74.4336 2081.64 74.4336C2085.34 74.4336 2088.12 76.3901 2089.29 79.8247L2094.03 77.6509C2092.38 73.0858 2087.73 69.6077 2081.6 69.6077C2074.99 69.6077 2070.47 73.3902 2070.47 78.9117C2070.47 83.0855 2073.08 86.3027 2078.42 87.9114L2084.77 89.8678C2087.34 90.6504 2088.68 91.8243 2088.68 94.0416C2088.68 96.4328 2086.34 98.2153 2082.68 98.2153C2078.99 98.2153 2075.64 95.998 2074.12 91.9547L2069.42 94.0851C2071.08 99.3023 2076.29 103.041 2082.68 103.041ZM2098.76 102.52H2120.15L2120.19 97.6936H2104.23V88.694H2119.32V83.8681H2104.23V74.9553H2120.19V70.1294H2098.76V102.52ZM2125.21 102.52H2130.68V90.433H2137.38L2144.21 102.52H2150.47L2142.99 89.4765C2146.68 87.9983 2148.99 84.7811 2148.99 80.303C2148.99 73.8684 2144.34 70.1294 2137.68 70.1294H2125.21V102.52ZM2130.68 85.6506V74.9553H2137.68C2141.12 74.9553 2143.42 77.0857 2143.42 80.303C2143.42 83.5202 2141.12 85.6506 2137.68 85.6506H2130.68ZM2174.51 70.1294L2166.08 96.4763L2157.65 70.1294H2151.56L2162.38 102.52H2169.78L2180.6 70.1294H2174.51ZM2184.14 102.52H2189.62V70.1294H2184.14V102.52ZM2210.56 103.041C2217.38 103.041 2222.43 99.1284 2224.08 94.6068L2219.21 92.259C2217.86 95.6937 2214.78 98.0849 2210.56 98.0849C2204.25 98.0849 2199.91 93.3025 2199.91 86.3027C2199.91 79.3465 2204.25 74.5641 2210.56 74.5641C2214.78 74.5641 2217.86 76.9553 2219.21 80.3899L2224.08 78.0422C2222.43 73.5206 2217.38 69.6077 2210.56 69.6077C2201.26 69.6077 2194.43 76.6509 2194.43 86.3027C2194.43 95.9546 2201.3 103.041 2210.56 103.041ZM2228.68 102.52H2250.07L2250.11 97.6936H2234.15V88.694H2249.24V83.8681H2234.15V74.9553H2250.11V70.1294H2228.68V102.52Z" fill="black"/>
<path d="M243.305 400.552H236.349L225.001 432.942H230.827L233.218 425.812H246.435L248.87 432.942H254.696L243.305 400.552ZM234.827 420.986L239.827 406.291L244.827 420.986H234.827ZM269.913 433.464C276.782 433.464 281.434 429.681 281.434 424.073C281.434 419.725 278.695 416.856 273.348 415.203L267.217 413.334C264.609 412.551 263.217 411.073 263.217 409.073C263.217 406.595 265.478 404.856 268.869 404.856C272.565 404.856 275.347 406.812 276.521 410.247L281.26 408.073C279.608 403.508 274.956 400.03 268.826 400.03C262.218 400.03 257.696 403.813 257.696 409.334C257.696 413.508 260.305 416.725 265.652 418.334L272 420.29C274.565 421.073 275.913 422.247 275.913 424.464C275.913 426.855 273.565 428.638 269.913 428.638C266.217 428.638 262.87 426.42 261.348 422.377L256.653 424.507C258.305 429.725 263.522 433.464 269.913 433.464ZM297.723 433.464C304.592 433.464 309.244 429.681 309.244 424.073C309.244 419.725 306.505 416.856 301.157 415.203L295.027 413.334C292.418 412.551 291.027 411.073 291.027 409.073C291.027 406.595 293.288 404.856 296.679 404.856C300.375 404.856 303.157 406.812 304.331 410.247L309.07 408.073C307.418 403.508 302.766 400.03 296.636 400.03C290.027 400.03 285.506 403.813 285.506 409.334C285.506 413.508 288.114 416.725 293.462 418.334L299.81 420.29C302.375 421.073 303.722 422.247 303.722 424.464C303.722 426.855 301.375 428.638 297.723 428.638C294.027 428.638 290.679 426.42 289.158 422.377L284.462 424.507C286.114 429.725 291.332 433.464 297.723 433.464ZM313.794 432.942H335.184L335.228 428.116H319.272V419.116H334.358V414.29H319.272V405.378H335.228V400.552H313.794V432.942ZM351.984 433.464C358.853 433.464 363.505 429.681 363.505 424.073C363.505 419.725 360.766 416.856 355.418 415.203L349.288 413.334C346.679 412.551 345.288 411.073 345.288 409.073C345.288 406.595 347.549 404.856 350.94 404.856C354.636 404.856 357.418 406.812 358.592 410.247L363.331 408.073C361.679 403.508 357.027 400.03 350.897 400.03C344.288 400.03 339.767 403.813 339.767 409.334C339.767 413.508 342.375 416.725 347.723 418.334L354.07 420.29C356.636 421.073 357.983 422.247 357.983 424.464C357.983 426.855 355.636 428.638 351.984 428.638C348.288 428.638 344.94 426.42 343.419 422.377L338.723 424.507C340.375 429.725 345.592 433.464 351.984 433.464ZM379.793 433.464C386.663 433.464 391.315 429.681 391.315 424.073C391.315 419.725 388.576 416.856 383.228 415.203L377.098 413.334C374.489 412.551 373.098 411.073 373.098 409.073C373.098 406.595 375.359 404.856 378.75 404.856C382.445 404.856 385.228 406.812 386.402 410.247L391.141 408.073C389.489 403.508 384.837 400.03 378.706 400.03C372.098 400.03 367.576 403.813 367.576 409.334C367.576 413.508 370.185 416.725 375.533 418.334L381.88 420.29C384.445 421.073 385.793 422.247 385.793 424.464C385.793 426.855 383.445 428.638 379.793 428.638C376.098 428.638 372.75 426.42 371.228 422.377L366.533 424.507C368.185 429.725 373.402 433.464 379.793 433.464ZM422.602 400.552L411.82 415.203L401.082 400.552H395.864V432.942H401.342V409.986L411.516 424.029H412.125L422.298 410.334V432.942H427.82V400.552H422.602ZM433.694 432.942H455.085L455.128 428.116H439.172V419.116H454.259V414.29H439.172V405.378H455.128V400.552H433.694V432.942ZM480.318 400.552V422.334L464.493 400.552H460.145V432.942H465.623V410.943L481.449 432.942H485.84V400.552H480.318ZM498.213 432.942H503.734V405.378H512.169V400.552H489.735V405.378H498.213V432.942Z" fill="black"/>
<path d="M288.909 765.538H299.474C309.648 765.538 316.212 758.886 316.212 749.321C316.212 739.756 309.648 733.148 299.474 733.148H288.909V765.538ZM294.387 760.712V737.974H299.604C306.3 737.974 310.647 742.409 310.647 749.321C310.647 756.234 306.343 760.712 299.604 760.712H294.387ZM321.05 765.538H342.44L342.484 760.712H326.528V751.713H341.614V746.887H326.528V737.974H342.484V733.148H321.05V765.538ZM359.239 766.06C366.109 766.06 370.761 762.277 370.761 756.669C370.761 752.321 368.022 749.452 362.674 747.8L356.544 745.93C353.935 745.148 352.544 743.669 352.544 741.669C352.544 739.191 354.805 737.452 358.196 737.452C361.891 737.452 364.674 739.409 365.848 742.843L370.587 740.669C368.935 736.104 364.283 732.626 358.152 732.626C351.544 732.626 347.022 736.409 347.022 741.93C347.022 746.104 349.631 749.321 354.979 750.93L361.326 752.886C363.891 753.669 365.239 754.843 365.239 757.06C365.239 759.451 362.891 761.234 359.239 761.234C355.544 761.234 352.196 759.017 350.675 754.973L345.979 757.104C347.631 762.321 352.848 766.06 359.239 766.06ZM375.31 765.538H380.789V733.148H375.31V765.538ZM402.167 766.06C409.558 766.06 414.645 762.103 416.21 756.843V747.843H402.21V752.669H410.906V756.408C409.775 759.06 406.688 761.103 402.167 761.103C395.471 761.103 391.08 756.321 391.08 749.321C391.08 742.409 395.428 737.583 401.732 737.583C405.862 737.583 409.036 739.887 410.384 743.408L415.253 741.061C413.471 736.278 408.297 732.626 401.732 732.626C392.472 732.626 385.602 739.756 385.602 749.321C385.602 758.93 392.602 766.06 402.167 766.06ZM440.998 733.148V754.93L425.173 733.148H420.825V765.538H426.303V743.539L442.129 765.538H446.52V733.148H440.998Z" fill="black"/>
<path d="M182.088 1098.13H187.566V1065.74H182.088V1098.13ZM220.205 1065.74L209.423 1080.4L198.684 1065.74H193.467V1098.13H198.945V1075.18L209.118 1089.22H209.727L219.901 1075.53V1098.13H225.422V1065.74H220.205ZM231.297 1098.13H236.775V1086.05H243.774C250.383 1086.05 255.078 1082.31 255.078 1075.92C255.078 1069.48 250.426 1065.74 243.774 1065.74H231.297V1098.13ZM236.775 1081.27V1070.57H243.774C247.209 1070.57 249.513 1072.7 249.513 1075.92C249.513 1079.14 247.209 1081.27 243.774 1081.27H236.775ZM259.488 1098.13H279.488V1093.31H264.967V1065.74H259.488V1098.13ZM283.604 1098.13H304.995L305.038 1093.31H289.082V1084.31H304.169V1079.48H289.082V1070.57H305.038V1065.74H283.604V1098.13ZM336.794 1065.74L326.011 1080.4L315.273 1065.74H310.056V1098.13H315.534V1075.18L325.707 1089.22H326.316L336.489 1075.53V1098.13H342.011V1065.74H336.794ZM347.885 1098.13H369.276L369.319 1093.31H353.363V1084.31H368.45V1079.48H353.363V1070.57H369.319V1065.74H347.885V1098.13ZM394.51 1065.74V1087.53L378.684 1065.74H374.336V1098.13H379.814V1076.14L395.64 1098.13H400.031V1065.74H394.51ZM412.404 1098.13H417.925V1070.57H426.36V1065.74H403.926V1070.57H412.404V1098.13ZM444 1065.74H437.044L425.697 1098.13H431.522L433.914 1091H447.131L449.565 1098.13H455.391L444 1065.74ZM435.522 1086.18L440.522 1071.48L445.522 1086.18H435.522ZM463.226 1098.13H468.747V1070.57H477.182V1065.74H454.748V1070.57H463.226V1098.13ZM481.075 1098.13H486.553V1065.74H481.075V1098.13ZM508.149 1098.66C517.67 1098.66 524.974 1091.53 524.974 1081.92C524.974 1072.31 517.67 1065.22 508.149 1065.22C498.627 1065.22 491.367 1072.31 491.367 1081.92C491.367 1091.53 498.671 1098.66 508.149 1098.66ZM508.149 1093.61C501.671 1093.61 496.845 1088.61 496.845 1081.92C496.845 1075.27 501.627 1070.27 508.149 1070.27C514.67 1070.27 519.453 1075.27 519.453 1081.92C519.453 1088.61 514.67 1093.61 508.149 1093.61ZM549.99 1065.74V1087.53L534.164 1065.74H529.816V1098.13H535.294V1076.14L551.12 1098.13H555.511V1065.74H549.99Z" fill="black"/>
<path d="M1051.73 433.464C1058.56 433.464 1063.6 429.551 1065.25 425.029L1060.38 422.681C1059.04 426.116 1055.95 428.507 1051.73 428.507C1045.43 428.507 1041.08 423.725 1041.08 416.725C1041.08 409.769 1045.43 404.986 1051.73 404.986C1055.95 404.986 1059.04 407.378 1060.38 410.812L1065.25 408.465C1063.6 403.943 1058.56 400.03 1051.73 400.03C1042.43 400.03 1035.6 407.073 1035.6 416.725C1035.6 426.377 1042.47 433.464 1051.73 433.464ZM1085.54 433.464C1095.06 433.464 1102.37 426.333 1102.37 416.725C1102.37 407.117 1095.06 400.03 1085.54 400.03C1076.02 400.03 1068.76 407.117 1068.76 416.725C1068.76 426.333 1076.07 433.464 1085.54 433.464ZM1085.54 428.42C1079.07 428.42 1074.24 423.421 1074.24 416.725C1074.24 410.073 1079.02 405.073 1085.54 405.073C1092.07 405.073 1096.85 410.073 1096.85 416.725C1096.85 423.421 1092.07 428.42 1085.54 428.42ZM1127.38 400.552V422.334L1111.56 400.552H1107.21V432.942H1112.69V410.943L1128.51 432.942H1132.91V400.552H1127.38ZM1145.28 432.942H1150.8V405.378H1159.23V400.552H1136.8V405.378H1145.28V432.942ZM1163.13 432.942H1168.61V420.855H1175.3L1182.13 432.942H1188.39L1180.91 419.899C1184.61 418.421 1186.91 415.203 1186.91 410.725C1186.91 404.291 1182.26 400.552 1175.61 400.552H1163.13V432.942ZM1168.61 416.073V405.378H1175.61C1179.04 405.378 1181.34 407.508 1181.34 410.725C1181.34 413.943 1179.04 416.073 1175.61 416.073H1168.61ZM1207.57 433.464C1217.09 433.464 1224.39 426.333 1224.39 416.725C1224.39 407.117 1217.09 400.03 1207.57 400.03C1198.05 400.03 1190.78 407.117 1190.78 416.725C1190.78 426.333 1198.09 433.464 1207.57 433.464ZM1207.57 428.42C1201.09 428.42 1196.26 423.421 1196.26 416.725C1196.26 410.073 1201.05 405.073 1207.57 405.073C1214.09 405.073 1218.87 410.073 1218.87 416.725C1218.87 423.421 1214.09 428.42 1207.57 428.42ZM1229.23 432.942H1249.23V428.116H1234.71V400.552H1229.23V432.942ZM1253.35 432.942H1273.35V428.116H1258.83V400.552H1253.35V432.942ZM1277.47 432.942H1282.94V400.552H1277.47V432.942ZM1309.02 400.552V422.334L1293.19 400.552H1288.85V432.942H1294.32V410.943L1310.15 432.942H1314.54V400.552H1309.02ZM1335.87 433.464C1343.26 433.464 1348.35 429.507 1349.91 424.247V415.247H1335.91V420.073H1344.61V423.812C1343.48 426.464 1340.39 428.507 1335.87 428.507C1329.17 428.507 1324.78 423.725 1324.78 416.725C1324.78 409.812 1329.13 404.986 1335.43 404.986C1339.56 404.986 1342.74 407.291 1344.09 410.812L1348.96 408.465C1347.17 403.682 1342 400.03 1335.43 400.03C1326.17 400.03 1319.3 407.16 1319.3 416.725C1319.3 426.333 1326.3 433.464 1335.87 433.464Z" fill="black"/>
<path d="M1725.34 432.942H1730.82V420.855H1737.82C1744.43 420.855 1749.13 417.116 1749.13 410.725C1749.13 404.291 1744.47 400.552 1737.82 400.552H1725.34V432.942ZM1730.82 416.073V405.378H1737.82C1741.26 405.378 1743.56 407.508 1743.56 410.725C1743.56 413.943 1741.26 416.073 1737.82 416.073H1730.82ZM1753.54 432.942H1759.01V420.855H1765.71L1772.54 432.942H1778.8L1771.32 419.899C1775.01 418.421 1777.32 415.203 1777.32 410.725C1777.32 404.291 1772.67 400.552 1766.01 400.552H1753.54V432.942ZM1759.01 416.073V405.378H1766.01C1769.45 405.378 1771.75 407.508 1771.75 410.725C1771.75 413.943 1769.45 416.073 1766.01 416.073H1759.01ZM1783.13 432.942H1804.52L1804.56 428.116H1788.61V419.116H1803.69V414.29H1788.61V405.378H1804.56V400.552H1783.13V432.942ZM1830.14 400.552L1821.71 426.899L1813.28 400.552H1807.19L1818.01 432.942H1825.41L1836.23 400.552H1830.14ZM1839.77 432.942H1861.16L1861.2 428.116H1845.25V419.116H1860.33V414.29H1845.25V405.378H1861.2V400.552H1839.77V432.942ZM1886.39 400.552V422.334L1870.57 400.552H1866.22V432.942H1871.7V410.943L1887.52 432.942H1891.91V400.552H1886.39ZM1904.29 432.942H1909.81V405.378H1918.24V400.552H1895.81V405.378H1904.29V432.942ZM1922.14 432.942H1927.61V400.552H1922.14V432.942ZM1954.08 400.552L1945.64 426.899L1937.21 400.552H1931.12L1941.95 432.942H1949.34L1960.17 400.552H1954.08ZM1963.7 432.942H1985.09L1985.14 428.116H1969.18V419.116H1984.27V414.29H1969.18V405.378H1985.14V400.552H1963.7V432.942ZM2024.53 400.552L2013.75 415.203L2003.01 400.552H1997.8V432.942H2003.27V409.986L2013.45 424.029H2014.06L2024.23 410.334V432.942H2029.75V400.552H2024.53ZM2051.54 400.552H2044.58L2033.23 432.942H2039.06L2041.45 425.812H2054.67L2057.1 432.942H2062.93L2051.54 400.552ZM2043.06 420.986L2048.06 406.291L2053.06 420.986H2043.06ZM2066.41 432.942H2071.88V400.552H2066.41V432.942ZM2097.96 400.552V422.334L2082.13 400.552H2077.79V432.942H2083.26V410.943L2099.09 432.942H2103.48V400.552H2097.96ZM2115.85 432.942H2121.37V405.378H2129.81V400.552H2107.38V405.378H2115.85V432.942ZM2133.7 432.942H2155.09L2155.14 428.116H2139.18V419.116H2154.27V414.29H2139.18V405.378H2155.14V400.552H2133.7V432.942ZM2180.33 400.552V422.334L2164.5 400.552H2160.15V432.942H2165.63V410.943L2181.46 432.942H2185.85V400.552H2180.33ZM2207.61 400.552H2200.66L2189.31 432.942H2195.13L2197.53 425.812H2210.74L2213.18 432.942H2219L2207.61 400.552ZM2199.13 420.986L2204.13 406.291L2209.13 420.986H2199.13ZM2242.65 400.552V422.334L2226.83 400.552H2222.48V432.942H2227.96V410.943L2243.78 432.942H2248.18V400.552H2242.65ZM2269.07 433.464C2275.9 433.464 2280.94 429.551 2282.59 425.029L2277.72 422.681C2276.37 426.116 2273.29 428.507 2269.07 428.507C2262.77 428.507 2258.42 423.725 2258.42 416.725C2258.42 409.769 2262.77 404.986 2269.07 404.986C2273.29 404.986 2276.37 407.378 2277.72 410.812L2282.59 408.465C2280.94 403.943 2275.9 400.03 2269.07 400.03C2259.77 400.03 2252.94 407.073 2252.94 416.725C2252.94 426.377 2259.81 433.464 2269.07 433.464ZM2287.19 432.942H2308.58L2308.62 428.116H2292.66V419.116H2307.75V414.29H2292.66V405.378H2308.62V400.552H2287.19V432.942Z" fill="black"/>
<path d="M1078.66 735.322L1067.88 749.973L1057.14 735.322H1051.93V767.712H1057.4V744.756L1067.58 758.799H1068.19L1078.36 745.104V767.712H1083.88V735.322H1078.66ZM1105.45 768.234C1114.97 768.234 1122.28 761.103 1122.28 751.495C1122.28 741.887 1114.97 734.8 1105.45 734.8C1095.93 734.8 1088.67 741.887 1088.67 751.495C1088.67 761.103 1095.97 768.234 1105.45 768.234ZM1105.45 763.19C1098.97 763.19 1094.15 758.191 1094.15 751.495C1094.15 744.843 1098.93 739.843 1105.45 739.843C1111.97 739.843 1116.75 744.843 1116.75 751.495C1116.75 758.191 1111.97 763.19 1105.45 763.19ZM1147.29 735.322V757.104L1131.47 735.322H1127.12V767.712H1132.6V745.713L1148.42 767.712H1152.81V735.322H1147.29ZM1158.66 767.712H1164.14V735.322H1158.66V767.712ZM1176.56 767.712H1182.09V740.148H1190.52V735.322H1168.09V740.148H1176.56V767.712ZM1208.79 768.234C1218.31 768.234 1225.62 761.103 1225.62 751.495C1225.62 741.887 1218.31 734.8 1208.79 734.8C1199.27 734.8 1192.01 741.887 1192.01 751.495C1192.01 761.103 1199.31 768.234 1208.79 768.234ZM1208.79 763.19C1202.31 763.19 1197.49 758.191 1197.49 751.495C1197.49 744.843 1202.27 739.843 1208.79 739.843C1215.31 739.843 1220.1 744.843 1220.1 751.495C1220.1 758.191 1215.31 763.19 1208.79 763.19ZM1230.46 767.712H1235.94V755.625H1242.63L1249.46 767.712H1255.72L1248.24 754.669C1251.94 753.191 1254.24 749.973 1254.24 745.495C1254.24 739.061 1249.59 735.322 1242.94 735.322H1230.46V767.712ZM1235.94 750.843V740.148H1242.94C1246.37 740.148 1248.68 742.278 1248.68 745.495C1248.68 748.713 1246.37 750.843 1242.94 750.843H1235.94ZM1260.05 767.712H1265.53V735.322H1260.05V767.712ZM1291.6 735.322V757.104L1275.78 735.322H1271.43V767.712H1276.91V745.713L1292.73 767.712H1297.13V735.322H1291.6ZM1318.45 768.234C1325.85 768.234 1330.93 764.277 1332.5 759.017V750.017H1318.5V754.843H1327.19V758.582C1326.06 761.234 1322.98 763.277 1318.45 763.277C1311.76 763.277 1307.37 758.495 1307.37 751.495C1307.37 744.582 1311.72 739.756 1318.02 739.756C1322.15 739.756 1325.32 742.061 1326.67 745.582L1331.54 743.235C1329.76 738.452 1324.59 734.8 1318.02 734.8C1308.76 734.8 1301.89 741.93 1301.89 751.495C1301.89 761.103 1308.89 768.234 1318.45 768.234Z" fill="black"/>
<path d="M1731.94 768.234C1738.76 768.234 1743.81 764.321 1745.46 759.799L1740.59 757.451C1739.24 760.886 1736.16 763.277 1731.94 763.277C1725.63 763.277 1721.29 758.495 1721.29 751.495C1721.29 744.539 1725.63 739.756 1731.94 739.756C1736.16 739.756 1739.24 742.148 1740.59 745.582L1745.46 743.235C1743.81 738.713 1738.76 734.8 1731.94 734.8C1722.63 734.8 1715.81 741.843 1715.81 751.495C1715.81 761.147 1722.68 768.234 1731.94 768.234ZM1765.75 768.234C1775.27 768.234 1782.58 761.103 1782.58 751.495C1782.58 741.887 1775.27 734.8 1765.75 734.8C1756.23 734.8 1748.97 741.887 1748.97 751.495C1748.97 761.103 1756.27 768.234 1765.75 768.234ZM1765.75 763.19C1759.27 763.19 1754.45 758.191 1754.45 751.495C1754.45 744.843 1759.23 739.843 1765.75 739.843C1772.27 739.843 1777.05 744.843 1777.05 751.495C1777.05 758.191 1772.27 763.19 1765.75 763.19ZM1787.42 767.712H1792.9V755.625H1799.59L1806.42 767.712H1812.68L1805.2 754.669C1808.9 753.191 1811.2 749.973 1811.2 745.495C1811.2 739.061 1806.55 735.322 1799.9 735.322H1787.42V767.712ZM1792.9 750.843V740.148H1799.9C1803.33 740.148 1805.63 742.278 1805.63 745.495C1805.63 748.713 1803.33 750.843 1799.9 750.843H1792.9ZM1817.01 767.712H1822.49V755.625H1829.18L1836.01 767.712H1842.27L1834.79 754.669C1838.49 753.191 1840.79 749.973 1840.79 745.495C1840.79 739.061 1836.14 735.322 1829.49 735.322H1817.01V767.712ZM1822.49 750.843V740.148H1829.49C1832.92 740.148 1835.23 742.278 1835.23 745.495C1835.23 748.713 1832.92 750.843 1829.49 750.843H1822.49ZM1846.6 767.712H1867.99L1868.04 762.886H1852.08V753.886H1867.17V749.06H1852.08V740.148H1868.04V735.322H1846.6V767.712ZM1888.1 768.234C1894.92 768.234 1899.97 764.321 1901.62 759.799L1896.75 757.451C1895.4 760.886 1892.31 763.277 1888.1 763.277C1881.79 763.277 1877.45 758.495 1877.45 751.495C1877.45 744.539 1881.79 739.756 1888.1 739.756C1892.31 739.756 1895.4 742.148 1896.75 745.582L1901.62 743.235C1899.97 738.713 1894.92 734.8 1888.1 734.8C1878.79 734.8 1871.97 741.843 1871.97 751.495C1871.97 761.147 1878.84 768.234 1888.1 768.234ZM1912.74 767.712H1918.26V740.148H1926.69V735.322H1904.26V740.148H1912.74V767.712ZM1930.58 767.712H1936.06V735.322H1930.58V767.712ZM1962.53 735.322L1954.09 761.669L1945.66 735.322H1939.57L1950.4 767.712H1957.79L1968.61 735.322H1962.53ZM1972.15 767.712H1993.54L1993.58 762.886H1977.63V753.886H1992.72V749.06H1977.63V740.148H1993.58V735.322H1972.15V767.712ZM2032.98 735.322L2022.2 749.973L2011.46 735.322H2006.24V767.712H2011.72V744.756L2021.9 758.799H2022.5L2032.68 745.104V767.712H2038.2V735.322H2032.98ZM2059.99 735.322H2053.03L2041.68 767.712H2047.51L2049.9 760.582H2063.12L2065.55 767.712H2071.38L2059.99 735.322ZM2051.51 755.756L2056.51 741.061L2061.51 755.756H2051.51ZM2074.86 767.712H2080.33V735.322H2074.86V767.712ZM2106.41 735.322V757.104L2090.58 735.322H2086.23V767.712H2091.71V745.713L2107.54 767.712H2111.93V735.322H2106.41ZM2124.3 767.712H2129.82V740.148H2138.26V735.322H2115.82V740.148H2124.3V767.712ZM2142.15 767.712H2163.54L2163.59 762.886H2147.63V753.886H2162.72V749.06H2147.63V740.148H2163.59V735.322H2142.15V767.712ZM2188.78 735.322V757.104L2172.95 735.322H2168.6V767.712H2174.08V745.713L2189.91 767.712H2194.3V735.322H2188.78ZM2216.06 735.322H2209.1L2197.76 767.712H2203.58L2205.97 760.582H2219.19L2221.63 767.712H2227.45L2216.06 735.322ZM2207.58 755.756L2212.58 741.061L2217.58 755.756H2207.58ZM2251.1 735.322V757.104L2235.28 735.322H2230.93V767.712H2236.41V745.713L2252.23 767.712H2256.62V735.322H2251.1ZM2277.52 768.234C2284.34 768.234 2289.39 764.321 2291.04 759.799L2286.17 757.451C2284.82 760.886 2281.74 763.277 2277.52 763.277C2271.22 763.277 2266.87 758.495 2266.87 751.495C2266.87 744.539 2271.22 739.756 2277.52 739.756C2281.74 739.756 2284.82 742.148 2286.17 745.582L2291.04 743.235C2289.39 738.713 2284.34 734.8 2277.52 734.8C2268.22 734.8 2261.39 741.843 2261.39 751.495C2261.39 761.147 2268.26 768.234 2277.52 768.234ZM2295.64 767.712H2317.03L2317.07 762.886H2301.11V753.886H2316.2V749.06H2301.11V740.148H2317.07V735.322H2295.64V767.712Z" fill="black"/>
<path d="M1002 1100.31H1012.56C1022.74 1100.31 1029.3 1093.66 1029.3 1084.09C1029.3 1074.53 1022.74 1067.92 1012.56 1067.92H1002V1100.31ZM1007.48 1095.48V1072.74H1012.69C1019.39 1072.74 1023.74 1077.18 1023.74 1084.09C1023.74 1091 1019.43 1095.48 1012.69 1095.48H1007.48ZM1049.83 1100.83C1059.35 1100.83 1066.66 1093.7 1066.66 1084.09C1066.66 1074.48 1059.35 1067.4 1049.83 1067.4C1040.31 1067.4 1033.05 1074.48 1033.05 1084.09C1033.05 1093.7 1040.35 1100.83 1049.83 1100.83ZM1049.83 1095.79C1043.35 1095.79 1038.53 1090.79 1038.53 1084.09C1038.53 1077.44 1043.31 1072.44 1049.83 1072.44C1056.35 1072.44 1061.14 1077.44 1061.14 1084.09C1061.14 1090.79 1056.35 1095.79 1049.83 1095.79ZM1086.54 1100.83C1093.37 1100.83 1098.41 1096.92 1100.06 1092.4L1095.19 1090.05C1093.85 1093.48 1090.76 1095.87 1086.54 1095.87C1080.24 1095.87 1075.89 1091.09 1075.89 1084.09C1075.89 1077.14 1080.24 1072.35 1086.54 1072.35C1090.76 1072.35 1093.85 1074.74 1095.19 1078.18L1100.06 1075.83C1098.41 1071.31 1093.37 1067.4 1086.54 1067.4C1077.24 1067.4 1070.41 1074.44 1070.41 1084.09C1070.41 1093.74 1077.28 1100.83 1086.54 1100.83ZM1124.31 1067.92V1088.83C1124.31 1092.96 1121.4 1095.87 1117.27 1095.87C1113.09 1095.87 1110.18 1093 1110.18 1088.83V1067.92H1104.66V1088.83C1104.66 1095.79 1109.66 1100.83 1117.27 1100.83C1124.83 1100.83 1129.88 1095.79 1129.88 1088.83V1067.92H1124.31ZM1162.48 1067.92L1151.69 1082.57L1140.96 1067.92H1135.74V1100.31H1141.22V1077.35L1151.39 1091.4H1152L1162.17 1077.7V1100.31H1167.69V1067.92H1162.48ZM1173.57 1100.31H1194.96L1195 1095.48H1179.05V1086.48H1194.13V1081.66H1179.05V1072.74H1195V1067.92H1173.57V1100.31ZM1220.19 1067.92V1089.7L1204.37 1067.92H1200.02V1100.31H1205.5V1078.31L1221.32 1100.31H1225.71V1067.92H1220.19ZM1238.09 1100.31H1243.61V1072.74H1252.04V1067.92H1229.61V1072.74H1238.09V1100.31ZM1269.68 1067.92H1262.73L1251.38 1100.31H1257.21L1259.6 1093.18H1272.81L1275.25 1100.31H1281.07L1269.68 1067.92ZM1261.21 1088.35L1266.21 1073.66L1271.2 1088.35H1261.21ZM1288.91 1100.31H1294.43V1072.74H1302.86V1067.92H1280.43V1072.74H1288.91V1100.31ZM1306.76 1100.31H1312.24V1067.92H1306.76V1100.31ZM1333.83 1100.83C1343.35 1100.83 1350.66 1093.7 1350.66 1084.09C1350.66 1074.48 1343.35 1067.4 1333.83 1067.4C1324.31 1067.4 1317.05 1074.48 1317.05 1084.09C1317.05 1093.7 1324.35 1100.83 1333.83 1100.83ZM1333.83 1095.79C1327.35 1095.79 1322.53 1090.79 1322.53 1084.09C1322.53 1077.44 1327.31 1072.44 1333.83 1072.44C1340.35 1072.44 1345.14 1077.44 1345.14 1084.09C1345.14 1090.79 1340.35 1095.79 1333.83 1095.79ZM1375.67 1067.92V1089.7L1359.85 1067.92H1355.5V1100.31H1360.98V1078.31L1376.8 1100.31H1381.19V1067.92H1375.67Z" fill="black"/>
<path d="M1784.14 1100.31H1789.62V1088.22H1796.32L1803.14 1100.31H1809.4L1801.92 1087.27C1805.62 1085.79 1807.92 1082.57 1807.92 1078.09C1807.92 1071.66 1803.27 1067.92 1796.62 1067.92H1784.14V1100.31ZM1789.62 1083.44V1072.74H1796.62C1800.05 1072.74 1802.36 1074.87 1802.36 1078.09C1802.36 1081.31 1800.05 1083.44 1796.62 1083.44H1789.62ZM1813.74 1100.31H1835.13L1835.17 1095.48H1819.21V1086.48H1834.3V1081.66H1819.21V1072.74H1835.17V1067.92H1813.74V1100.31ZM1860.36 1067.92V1089.7L1844.53 1067.92H1840.19V1100.31H1845.66V1078.31L1861.49 1100.31H1865.88V1067.92H1860.36ZM1871.73 1100.31H1893.12L1893.17 1095.48H1877.21V1086.48H1892.3V1081.66H1877.21V1072.74H1893.17V1067.92H1871.73V1100.31ZM1933.7 1067.92L1927.31 1093.09L1921.23 1067.92H1914.57L1908.49 1093.09L1902.14 1067.92H1896.23L1904.7 1100.31H1911.57L1917.79 1075.27L1923.96 1100.31H1930.83L1939.36 1067.92H1933.7ZM1957.45 1067.92H1950.49L1939.14 1100.31H1944.97L1947.36 1093.18H1960.58L1963.01 1100.31H1968.84L1957.45 1067.92ZM1948.97 1088.35L1953.97 1073.66L1958.97 1088.35H1948.97ZM1972.31 1100.31H1992.31V1095.48H1977.79V1067.92H1972.31V1100.31ZM2039.59 1067.92L2033.2 1093.09L2027.12 1067.92H2020.46L2014.38 1093.09L2008.03 1067.92H2002.12L2010.59 1100.31H2017.46L2023.68 1075.27L2029.85 1100.31H2036.72L2045.25 1067.92H2039.59ZM2063.33 1067.92H2056.38L2045.03 1100.31H2050.86L2053.25 1093.18H2066.46L2068.9 1100.31H2074.73L2063.33 1067.92ZM2054.86 1088.35L2059.86 1073.66L2064.86 1088.35H2054.86ZM2078.2 1100.31H2083.68V1088.22H2090.38L2097.2 1100.31H2103.46L2095.99 1087.27C2099.68 1085.79 2101.99 1082.57 2101.99 1078.09C2101.99 1071.66 2097.33 1067.92 2090.68 1067.92H2078.2V1100.31ZM2083.68 1083.44V1072.74H2090.68C2094.12 1072.74 2096.42 1074.87 2096.42 1078.09C2096.42 1081.31 2094.12 1083.44 2090.68 1083.44H2083.68ZM2107.8 1100.31H2113.27V1088.22H2119.97L2126.8 1100.31H2133.06L2125.58 1087.27C2129.27 1085.79 2131.58 1082.57 2131.58 1078.09C2131.58 1071.66 2126.93 1067.92 2120.27 1067.92H2107.8V1100.31ZM2113.27 1083.44V1072.74H2120.27C2123.71 1072.74 2126.01 1074.87 2126.01 1078.09C2126.01 1081.31 2123.71 1083.44 2120.27 1083.44H2113.27ZM2153.3 1067.92H2146.35L2135 1100.31H2140.82L2143.22 1093.18H2156.43L2158.87 1100.31H2164.69L2153.3 1067.92ZM2144.82 1088.35L2149.82 1073.66L2154.82 1088.35H2144.82ZM2188.34 1067.92V1089.7L2172.52 1067.92H2168.17V1100.31H2173.65V1078.31L2189.48 1100.31H2193.87V1067.92H2188.34ZM2206.24 1100.31H2211.76V1072.74H2220.2V1067.92H2197.76V1072.74H2206.24V1100.31ZM2243 1067.92L2235.44 1080.44L2227.83 1067.92H2221.7L2232.7 1085.83V1100.31H2238.22V1085.79L2249.17 1067.92H2243Z" fill="black"/>
<path d="M365.378 291.425C366.651 292.699 368.716 292.699 369.989 291.425L390.741 270.674C392.014 269.401 392.014 267.336 390.741 266.063C389.467 264.789 387.403 264.789 386.129 266.063L367.684 284.508L349.238 266.063C347.965 264.789 345.9 264.789 344.627 266.063C343.353 267.336 343.353 269.401 344.627 270.674L365.378 291.425ZM364.423 208.688L364.423 289.12L370.944 289.12L370.944 208.688L364.423 208.688Z" fill="black"/>
<path d="M1189.26 291.425C1190.53 292.699 1192.6 292.699 1193.87 291.425L1214.62 270.674C1215.9 269.401 1215.9 267.336 1214.62 266.063C1213.35 264.789 1211.29 264.789 1210.01 266.063L1191.57 284.508L1173.12 266.063C1171.85 264.789 1169.78 264.789 1168.51 266.063C1167.24 267.336 1167.24 269.401 1168.51 270.674L1189.26 291.425ZM1188.31 208.688L1188.31 289.12L1194.83 289.12L1194.83 208.688L1188.31 208.688Z" fill="black"/>
<path d="M2013.14 291.425C2014.41 292.699 2016.48 292.699 2017.75 291.425L2038.5 270.674C2039.78 269.401 2039.78 267.336 2038.5 266.063C2037.23 264.789 2035.16 264.789 2033.89 266.063L2015.45 284.508L1997 266.063C1995.73 264.789 1993.66 264.789 1992.39 266.063C1991.11 267.336 1991.11 269.401 1992.39 270.674L2013.14 291.425ZM2012.18 208.688L2012.18 289.12L2018.71 289.12L2018.71 208.688L2012.18 208.688Z" fill="black"/>
<path d="M365.378 624.022C366.651 625.295 368.716 625.295 369.989 624.022L390.741 603.27C392.014 601.997 392.014 599.932 390.741 598.659C389.467 597.386 387.403 597.386 386.129 598.659L367.684 617.105L349.238 598.659C347.965 597.386 345.9 597.386 344.627 598.659C343.353 599.932 343.353 601.997 344.627 603.27L365.378 624.022ZM364.423 541.284L364.423 621.716L370.944 621.716L370.944 541.284L364.423 541.284Z" fill="black"/>
<path d="M1189.26 624.022C1190.53 625.295 1192.6 625.295 1193.87 624.022L1214.62 603.27C1215.9 601.997 1215.9 599.932 1214.62 598.659C1213.35 597.386 1211.29 597.386 1210.01 598.659L1191.57 617.105L1173.12 598.659C1171.85 597.386 1169.78 597.386 1168.51 598.659C1167.24 599.932 1167.24 601.997 1168.51 603.27L1189.26 624.022ZM1188.31 541.284L1188.31 621.716L1194.83 621.716L1194.83 541.284L1188.31 541.284Z" fill="black"/>
<path d="M2013.14 624.022C2014.41 625.295 2016.48 625.295 2017.75 624.022L2038.5 603.27C2039.78 601.997 2039.78 599.932 2038.5 598.659C2037.23 597.386 2035.16 597.386 2033.89 598.659L2015.45 617.105L1997 598.659C1995.73 597.386 1993.66 597.386 1992.39 598.659C1991.11 599.932 1991.11 601.997 1992.39 603.27L2013.14 624.022ZM2012.18 541.284L2012.18 621.716L2018.71 621.716L2018.71 541.284L2012.18 541.284Z" fill="black"/>
<path d="M365.378 956.618C366.651 957.891 368.716 957.891 369.989 956.618L390.741 935.867C392.014 934.593 392.014 932.529 390.741 931.255C389.467 929.982 387.403 929.982 386.129 931.255L367.684 949.701L349.238 931.255C347.965 929.982 345.9 929.982 344.627 931.255C343.353 932.529 343.353 934.593 344.627 935.867L365.378 956.618ZM364.423 873.88L364.423 954.312L370.944 954.312L370.944 873.88L364.423 873.88Z" fill="black"/>
<path d="M1189.26 956.618C1190.53 957.891 1192.6 957.891 1193.87 956.618L1214.62 935.867C1215.9 934.593 1215.9 932.529 1214.62 931.255C1213.35 929.982 1211.29 929.982 1210.01 931.255L1191.57 949.701L1173.12 931.255C1171.85 929.982 1169.78 929.982 1168.51 931.255C1167.24 932.529 1167.24 934.593 1168.51 935.867L1189.26 956.618ZM1188.31 873.88L1188.31 954.312L1194.83 954.312L1194.83 873.88L1188.31 873.88Z" fill="black"/>
<path d="M2013.14 956.618C2014.41 957.891 2016.48 957.891 2017.75 956.618L2038.5 935.867C2039.78 934.593 2039.78 932.529 2038.5 931.255C2037.23 929.982 2035.16 929.982 2033.89 931.255L2015.45 949.701L1997 931.255C1995.73 929.982 1993.66 929.982 1992.39 931.255C1991.11 932.529 1991.11 934.593 1992.39 935.867L2013.14 956.618ZM2012.18 873.88L2012.18 954.312L2018.71 954.312L2018.71 873.88L2012.18 873.88Z" fill="black"/>
<defs>
<linearGradient id="paint0_linear_307_436" x1="440.085" y1="-156.033" x2="719.731" y2="392.491" gradientUnits="userSpaceOnUse">
<stop stop-color="#FFF965"/>
<stop offset="1" stop-color="#79FF76"/>
</linearGradient>
<linearGradient id="paint1_linear_307_436" x1="1163.45" y1="-304.723" x2="1680.84" y2="205.563" gradientUnits="userSpaceOnUse">
<stop stop-color="#FFF965"/>
<stop offset="1" stop-color="#FF7676"/>
</linearGradient>
<linearGradient id="paint2_linear_307_436" x1="2087.85" y1="-156.033" x2="2367.5" y2="392.491" gradientUnits="userSpaceOnUse">
<stop stop-color="#FFF965"/>
<stop offset="1" stop-color="#79FF76"/>
</linearGradient>
<linearGradient id="paint3_linear_307_436" x1="440.085" y1="176.563" x2="719.731" y2="725.087" gradientUnits="userSpaceOnUse">
<stop stop-color="#FFF965"/>
<stop offset="1" stop-color="#79FF76"/>
</linearGradient>
<linearGradient id="paint4_linear_307_436" x1="440.085" y1="509.16" x2="719.731" y2="1057.68" gradientUnits="userSpaceOnUse">
<stop stop-color="#FFF965"/>
<stop offset="1" stop-color="#79FF76"/>
</linearGradient>
<linearGradient id="paint5_linear_307_436" x1="440.085" y1="841.756" x2="719.731" y2="1390.28" gradientUnits="userSpaceOnUse">
<stop stop-color="#FFF965"/>
<stop offset="1" stop-color="#79FF76"/>
</linearGradient>
<linearGradient id="paint6_linear_307_436" x1="1163.45" y1="27.8733" x2="1680.84" y2="538.159" gradientUnits="userSpaceOnUse">
<stop stop-color="#FFF965"/>
<stop offset="1" stop-color="#FF7676"/>
</linearGradient>
<linearGradient id="paint7_linear_307_436" x1="2087.85" y1="176.563" x2="2367.5" y2="725.087" gradientUnits="userSpaceOnUse">
<stop stop-color="#FFF965"/>
<stop offset="1" stop-color="#79FF76"/>
</linearGradient>
<linearGradient id="paint8_linear_307_436" x1="1163.45" y1="360.47" x2="1680.84" y2="870.755" gradientUnits="userSpaceOnUse">
<stop stop-color="#FFF965"/>
<stop offset="1" stop-color="#FF7676"/>
</linearGradient>
<linearGradient id="paint9_linear_307_436" x1="2087.85" y1="509.16" x2="2367.5" y2="1057.68" gradientUnits="userSpaceOnUse">
<stop stop-color="#FFF965"/>
<stop offset="1" stop-color="#79FF76"/>
</linearGradient>
<linearGradient id="paint10_linear_307_436" x1="1163.45" y1="693.066" x2="1680.84" y2="1203.35" gradientUnits="userSpaceOnUse">
<stop stop-color="#FFF965"/>
<stop offset="1" stop-color="#FF7676"/>
</linearGradient>
<linearGradient id="paint11_linear_307_436" x1="2087.85" y1="841.756" x2="2367.5" y2="1390.28" gradientUnits="userSpaceOnUse">
<stop stop-color="#FFF965"/>
<stop offset="1" stop-color="#79FF76"/>
</linearGradient>
</defs>
</svg>
