<svg width="120" height="39" viewBox="0 0 120 39" fill="none" xmlns="http://www.w3.org/2000/svg">
<path d="M119.209 30.2197H24.1521C21.7071 30.2197 19.7192 32.1884 19.7192 34.6099C19.7192 37.0314 21.7071 39.0001 24.1521 39.0001H114.777C117.222 39.0001 119.209 37.0314 119.209 34.6099V30.2197Z" fill="#D31245"/>
<path d="M25.3448 37.602L25.1261 36.8539L25.146 36.8342L25.5635 37.5036C25.7622 37.4051 25.961 37.287 26.1399 37.1492L25.7622 36.5389L25.7821 36.5192L26.3188 36.9917C26.4977 36.8342 26.6568 36.6373 26.7959 36.4601L26.2989 36.027L26.3188 36.0073L26.9152 36.283C27.0543 36.0861 27.1537 35.8302 27.2332 35.5939L26.6766 35.338V35.3183L27.273 35.397C27.3326 35.1608 27.3724 34.9049 27.3724 34.6489H25.3845C25.3845 35.3183 24.828 35.8695 24.1322 35.8695C23.4564 35.8695 22.8998 35.3183 22.8998 34.6489C22.8998 34.0189 23.357 33.5071 23.9732 33.4283L23.4762 31.5187C23.3769 31.5384 23.2377 31.5778 23.1383 31.6171L23.6353 33.4086H23.6154L22.6811 31.7943C22.5817 31.8534 22.4426 31.9124 22.3631 31.9912L23.2775 33.4874L23.2576 33.5071L22.0053 32.2668C21.9059 32.3455 21.8065 32.444 21.727 32.5424L22.9395 33.6843L22.9197 33.704L21.4686 32.8771C21.389 32.9755 21.3095 33.1133 21.2499 33.2315L22.6414 33.9993L22.6215 34.0189L21.0909 33.6055C21.0511 33.7433 20.9915 33.9008 20.9716 34.0386L22.4227 34.393V34.4127H20.912C20.912 34.4914 20.8921 34.5702 20.8921 34.6489C20.8921 34.7277 20.8921 34.8064 20.912 34.8852L22.3233 34.8655V34.8852L20.9517 35.2199C20.9716 35.3774 21.0312 35.5348 21.071 35.6923L22.3432 35.338L22.3631 35.3577L21.2101 35.9876C21.2897 36.1451 21.3692 36.283 21.4686 36.4208L22.5221 35.8105L22.542 35.8302L21.6673 36.6767C21.7866 36.8145 21.9059 36.9326 22.045 37.0507L22.8203 36.283L22.8401 36.3026L22.2836 37.2476C22.4227 37.3461 22.5817 37.4445 22.7606 37.5232L23.2775 36.657H23.2973L23.0389 37.6217C23.2178 37.6807 23.3967 37.7398 23.5955 37.7595L23.8341 36.8736H23.8539V37.7989C23.9334 37.7989 24.0328 37.8185 24.1322 37.8185C24.2316 37.8185 24.3509 37.8185 24.4503 37.7989V36.9523H24.4702L24.7087 37.7792C24.9472 37.7398 25.1659 37.6807 25.3448 37.602ZM24.3111 31.4399C24.2515 31.4399 24.1919 31.4399 24.1322 31.4399C24.0925 31.4399 24.013 31.4399 23.9732 31.4399L23.9931 33.4086C24.0328 33.4086 24.0925 33.4086 24.1322 33.4086C24.1919 33.4086 24.2316 33.4086 24.2913 33.4086L24.3111 31.4399ZM24.331 33.4086C24.4304 33.4283 24.5298 33.448 24.6093 33.4874L25.146 31.5974C25.0665 31.5581 24.9274 31.5384 24.8478 31.5187L24.331 33.4086ZM24.6689 33.5071C24.7484 33.5465 24.828 33.5858 24.9075 33.6449L25.9213 31.9715C25.8417 31.9124 25.7424 31.8534 25.6628 31.814L24.6689 33.5071ZM26.5772 32.5227C26.5176 32.4637 26.4381 32.3652 26.3785 32.3259L24.9671 33.704C25.0267 33.763 25.0864 33.8221 25.146 33.8811L26.5772 32.5227ZM25.2056 33.9599C25.2454 34.0189 25.2653 34.078 25.2852 34.1174L27.0146 33.1724C26.9947 33.1133 26.935 33.0149 26.8953 32.9755L25.2056 33.9599ZM25.3845 34.4324C25.3647 34.3733 25.3647 34.3143 25.3448 34.2552L27.2531 33.763C27.273 33.8221 27.2929 33.9008 27.3127 33.9599L25.3845 34.4324Z" fill="white"/>
<path d="M29.3003 32.6802H30.1551V35.1608C30.1551 35.3183 30.1948 35.4364 30.3936 35.4364C30.5526 35.4364 30.6321 35.3379 30.6321 35.1608V32.6802H31.4869V35.082C31.4869 35.6332 31.2086 36.0664 30.3936 36.0664C29.7177 36.0664 29.3003 35.7514 29.3003 35.082V32.6802ZM32.6597 33.5267L32.6796 33.7433H32.6995C32.779 33.6448 32.9579 33.448 33.2958 33.448C33.7132 33.448 33.9319 33.7433 33.9319 34.0976V35.9876H33.1169V34.2551C33.1169 34.1173 33.0374 34.0583 32.938 34.0583C32.8585 34.0583 32.7591 34.1173 32.7591 34.2551V35.9876H31.964V33.5267H32.6597ZM34.3891 33.5267H35.2041V36.0073H34.3891V33.5267ZM34.3891 32.6802H35.2041V33.2708H34.3891V32.6802ZM35.5023 34.0189V33.507H35.7408V32.7983H36.5558V33.507H36.8937V34.0189H36.5558V35.2789C36.5558 35.4167 36.6552 35.4954 36.7745 35.4954C36.8341 35.4954 36.8937 35.4954 36.8937 35.4954V36.0073H36.4365C35.9794 36.0073 35.7408 35.771 35.7408 35.3773V34.0189H35.5023ZM40.2134 35.3379C40.2134 35.4757 40.2929 35.5348 40.3923 35.5348C40.4718 35.5348 40.5712 35.4757 40.5712 35.3576V34.1567C40.5712 34.0386 40.4718 33.9795 40.3923 33.9795C40.3128 33.9795 40.2134 34.0386 40.2134 34.1567C40.2134 34.2945 40.2134 35.3379 40.2134 35.3379ZM41.3465 32.6802V36.0073H40.6507L40.6308 35.8104H40.611C40.5712 35.8695 40.4122 36.086 40.0544 36.086C39.6369 36.086 39.4183 35.8104 39.4183 35.3773V34.137C39.4183 33.7236 39.6767 33.448 40.0345 33.448C40.3327 33.448 40.4718 33.5858 40.5314 33.6252V32.6999H41.3465V32.6802Z" fill="white"/>
<path d="M42.7979 32.6606H44.8254V33.33H44.249V35.9681H43.3544V33.33H42.7979V32.6606Z" fill="white"/>
<path d="M46.5346 34.9052V34.2753C46.5346 33.7634 46.2364 33.4287 45.6003 33.4287C45.0238 33.4287 44.666 33.724 44.666 34.2753V35.2005C44.666 35.7715 45.0238 36.0471 45.6003 36.0471C46.2364 36.0471 46.5147 35.7124 46.5147 35.2005V35.1218H45.7593V35.3384C45.7593 35.4368 45.6798 35.5155 45.5804 35.5155C45.481 35.5155 45.4015 35.4368 45.4015 35.3384V34.8855H46.5346V34.9052ZM45.4413 34.1374C45.4413 34.039 45.5208 33.9603 45.6202 33.9603C45.7196 33.9603 45.7991 34.0193 45.7991 34.1178V34.4131H45.4413V34.1374Z" fill="white"/>
<path d="M39.0009 34.9052V34.2753C39.0009 33.7634 38.7027 33.4287 38.0666 33.4287C37.4901 33.4287 37.1323 33.724 37.1323 34.2753V35.2005C37.1323 35.7715 37.4901 36.0471 38.0666 36.0471C38.6828 36.0471 38.981 35.7124 38.981 35.2005V35.1218H38.2256V35.3384C38.2256 35.4368 38.1461 35.5155 38.0467 35.5155C37.9473 35.5155 37.8678 35.4368 37.8678 35.3384V34.8855H39.0009V34.9052ZM37.9076 34.1374C37.9076 34.039 37.9871 33.9603 38.0865 33.9603C38.1859 33.9603 38.2654 34.0193 38.2654 34.1178V34.4131H37.9076V34.1374Z" fill="white"/>
<path d="M48.9202 35.0234V35.2005C48.9202 35.7124 48.5823 36.0471 47.9462 36.0471C47.3697 36.0471 46.9722 35.7518 46.9722 35.2005V34.2753C46.9722 33.724 47.3697 33.4287 47.9462 33.4287C48.5823 33.4287 48.9202 33.7634 48.9202 34.2753V34.4327H48.1052V34.1374C48.1052 34.039 48.0257 33.98 47.9462 33.98C47.8468 33.98 47.7673 34.0587 47.7673 34.1374V35.358C47.7673 35.4565 47.8269 35.5155 47.9462 35.5155C48.0456 35.5155 48.1052 35.4565 48.1052 35.358V35.0234H48.9202Z" fill="white"/>
<path d="M50.1329 32.6606V33.645C50.2124 33.5466 50.4112 33.4284 50.6497 33.4284C51.087 33.4284 51.266 33.7238 51.266 34.0781C51.266 34.3537 51.266 35.9681 51.266 35.9681H50.4509V34.2356C50.4509 34.1175 50.3714 34.0387 50.2919 34.0387C50.2124 34.0387 50.113 34.0978 50.113 34.2159V35.9484H49.3179V32.6606H50.1329Z" fill="white"/>
<path d="M52.4985 33.5075L52.5184 33.724H52.5382C52.6177 33.6256 52.7966 33.4287 53.1346 33.4287C53.552 33.4287 53.7508 33.724 53.7508 34.0784V35.9684H52.9358V34.2359C52.9358 34.0981 52.8563 34.039 52.7768 34.039C52.6973 34.039 52.5979 34.0981 52.5979 34.2359V35.9684H51.8027V33.4878H52.4985V33.5075Z" fill="white"/>
<path d="M55.142 33.4287C54.5655 33.4287 54.168 33.724 54.168 34.2753V35.2005C54.168 35.7518 54.5655 36.0471 55.142 36.0471C55.7781 36.0471 56.116 35.7124 56.116 35.2005V34.2753C56.116 33.7634 55.7781 33.4287 55.142 33.4287ZM55.3209 35.358C55.3209 35.4565 55.2215 35.5155 55.142 35.5155C55.0426 35.5155 54.9631 35.4368 54.9631 35.358V34.1374C54.9631 34.039 55.0426 33.9603 55.142 33.9603C55.2215 33.9603 55.3209 34.039 55.3209 34.1374V35.358Z" fill="white"/>
<path d="M58.7797 33.4287C58.2032 33.4287 57.8057 33.724 57.8057 34.2753V35.2005C57.8057 35.7518 58.2032 36.0471 58.7797 36.0471C59.4158 36.0471 59.7537 35.7124 59.7537 35.2005V34.2753C59.7537 33.7634 59.4158 33.4287 58.7797 33.4287ZM58.9586 35.358C58.9586 35.4565 58.8592 35.5155 58.7797 35.5155C58.6803 35.5155 58.6008 35.4368 58.6008 35.358V34.1374C58.6008 34.039 58.6803 33.9603 58.7797 33.9603C58.8592 33.9603 58.9586 34.039 58.9586 34.1374V35.358Z" fill="white"/>
<path d="M57.3681 32.6606H56.5332V35.9681H57.3681V32.6606Z" fill="white"/>
<path d="M61.4036 33.5073L61.3837 33.7042C61.344 33.6451 61.185 33.4482 60.8272 33.4482C60.4296 33.4482 60.2109 33.7435 60.2109 34.1373V35.2201C60.2109 35.6335 60.4296 35.8894 60.8272 35.8894C61.0657 35.8894 61.2247 35.791 61.3241 35.7319V36.1257C61.3241 36.2241 61.2446 36.2832 61.1452 36.2832C61.0458 36.2832 60.9862 36.2044 60.9862 36.1257V36.0863H60.2109C60.2308 36.5391 60.5489 36.8147 61.1651 36.8147C61.8608 36.8147 62.1192 36.48 62.1192 35.9682V33.527H61.4036V33.5073ZM61.3241 35.2201C61.3241 35.3382 61.2247 35.3973 61.1452 35.3973C61.0657 35.3973 60.9663 35.3382 60.9663 35.2201V34.157C60.9663 34.0192 61.0458 33.9601 61.1452 33.9601C61.2247 33.9601 61.3241 34.0192 61.3241 34.1373V35.2201Z" fill="white"/>
<path d="M63.4312 33.5073H62.6162V35.9879H63.4312V33.5073Z" fill="white"/>
<path d="M63.4312 32.6606H62.6162V33.2513H63.4312V32.6606Z" fill="white"/>
<path d="M65.7568 34.9052V34.2753C65.7568 33.7634 65.4586 33.4287 64.8225 33.4287C64.246 33.4287 63.8882 33.724 63.8882 34.2753V35.2005C63.8882 35.7715 64.246 36.0471 64.8225 36.0471C65.4387 36.0471 65.7369 35.7124 65.7369 35.2005V35.1218H65.0014V35.3384C65.0014 35.4368 64.9219 35.5155 64.8225 35.5155C64.7231 35.5155 64.6436 35.4368 64.6436 35.3384V34.8855H65.7568V34.9052ZM64.6436 34.1374C64.6436 34.039 64.7231 33.9603 64.8225 33.9603C64.902 33.9603 65.0014 34.0193 65.0014 34.1178V34.4131H64.6634V34.1374H64.6436Z" fill="white"/>
<path d="M67.9832 34.295H67.6253H67.2675V34.2359V34.1571C67.2675 34.0981 67.2477 34.0587 67.2079 34.0193C67.1681 33.98 67.1284 33.9603 67.0489 33.9603C66.9694 33.9603 66.9097 33.98 66.8899 34.0193C66.8501 34.039 66.8501 34.0981 66.8501 34.1375C66.8501 34.2359 66.9097 34.295 67.029 34.3737C67.1483 34.4328 67.2675 34.4918 67.4067 34.5706C67.5856 34.6493 67.7446 34.7281 67.8639 34.8462C67.9832 34.9643 68.0627 35.1021 68.0627 35.3187C68.0627 35.5746 67.9633 35.7715 67.7844 35.9093C67.6055 36.0274 67.3471 36.1062 67.0688 36.1062C66.7507 36.1062 66.5122 36.0274 66.3531 35.8896C66.1941 35.7518 66.0947 35.5352 66.0947 35.2793V35.2399V35.2006H66.4724H66.8501V35.2793V35.3974C66.8501 35.4565 66.87 35.5156 66.9097 35.5549C66.9495 35.5943 67.0091 35.614 67.0886 35.614C67.1483 35.614 67.2079 35.5943 67.2477 35.5549C67.2874 35.5156 67.3073 35.4762 67.3073 35.4171C67.3073 35.3384 67.2675 35.2793 67.188 35.2202C67.1085 35.1612 66.9892 35.1021 66.8302 35.0234C66.6116 34.9446 66.4327 34.8462 66.3333 34.7281C66.214 34.6099 66.1544 34.4525 66.1544 34.2359C66.1544 33.98 66.2736 33.8028 66.4327 33.665C66.6116 33.5469 66.8302 33.4878 67.0688 33.4878C67.3272 33.4878 67.5657 33.5469 67.7247 33.665C67.9036 33.8028 68.003 33.9996 68.003 34.295V34.3343V34.295H67.9832Z" fill="white"/>
<path d="M58.9783 10.9851C58.9783 10.237 59.5946 9.62672 60.3499 9.62672H63.5304V26.5773H58.9982V10.9851H58.9783ZM36.9136 26.5773H41.9229V14.1547L51.862 26.5773H57.8055L47.2502 13.5051L56.0562 2.40158H51.5638C50.8879 2.40158 50.3115 2.71658 49.9139 3.18907L41.9229 13.4854V2.3819H38.2852C37.5298 2.3819 36.9136 2.9922 36.9136 3.7403V26.5773ZM61.2444 1.63379C59.9325 1.63379 58.8591 2.69689 58.8591 3.99623C58.8591 5.29558 59.9325 6.35868 61.2444 6.35868C62.5564 6.35868 63.6298 5.29558 63.6298 3.99623C63.6298 2.69689 62.5564 1.63379 61.2444 1.63379ZM113.763 24.077C116.049 24.077 117.997 23.3289 118.692 23.0533C118.692 23.0533 118.454 23.9983 118.255 24.5298C118.116 24.9039 117.877 25.2779 117.52 25.5732C116.625 26.2623 114.975 27.0104 112.57 27.0104C106.507 27.0104 103.327 23.3092 103.327 18.2103C103.327 12.9735 106.666 9.23298 111.556 9.23298C112.749 9.23298 113.981 9.44954 115.094 9.9614C119.209 11.8317 119.249 16.34 119.269 18.3874H107.879C107.978 19.4899 108.117 21.3011 109.469 22.6398C110.602 23.7029 112.152 24.077 113.763 24.077ZM107.918 15.8281H114.935C114.896 15.2178 114.836 13.9382 113.981 12.9735C113.405 12.3238 112.61 11.9498 111.636 11.9498C109.548 11.9498 108.316 13.6035 107.918 15.8281ZM82.4942 2.40158V26.5773H77.9222L77.9421 25.9276C77.147 26.3804 75.517 26.9907 73.39 26.9907C67.7247 26.9907 65.4189 22.7777 65.4189 18.4071C65.4189 13.5444 68.4801 9.25267 73.6087 9.25267C75.1989 9.25267 76.5904 9.58735 77.9222 10.3945V3.77968C77.9222 3.03157 78.5384 2.42127 79.2938 2.42127H82.4942V2.40158ZM77.9222 13.3279C76.5904 12.4617 75.4176 12.3238 74.6622 12.3238C74.0659 12.3238 72.9527 12.4223 71.8793 13.2885C70.4083 14.4894 69.8914 16.4778 69.8914 18.4268C69.8914 19.1749 69.9511 19.923 70.1896 20.6515C70.7263 22.502 72.1774 23.9589 74.6225 23.9589C75.7754 23.9589 76.8687 23.6636 77.9222 23.132V13.3279ZM101.418 2.40158V26.5773H96.8462L96.8661 25.9276C96.071 26.3804 94.441 26.9907 92.314 26.9907C86.6487 26.9907 84.3429 22.7777 84.3429 18.4071C84.3429 13.5444 87.4041 9.25267 92.5526 9.25267C94.1428 9.25267 95.5343 9.58735 96.8661 10.3945V3.77968C96.8661 3.03157 97.4823 2.42127 98.2377 2.42127H101.418V2.40158ZM96.8462 13.3279C95.5144 12.4617 94.3416 12.3238 93.5862 12.3238C92.9899 12.3238 91.8767 12.4223 90.8033 13.2885C89.3323 14.4894 88.8155 16.4778 88.8155 18.4268C88.8155 19.1749 88.8751 19.923 89.1136 20.6515C89.6503 22.502 91.1014 23.9589 93.5465 23.9589C94.6994 23.9589 95.7927 23.6636 96.8462 23.132V13.3279Z" fill="black"/>
<path d="M4.81051 22.4039C3.02148 23.4079 1.43123 24.4513 0.0596345 25.4357C-0.0198782 26.7154 -0.0198782 27.9753 0.0596345 29.1762C0.377685 33.5074 1.84867 37.2085 4.89003 38.5866C7.23565 37.5038 10.1577 35.043 12.066 33.4089C13.9346 31.8143 16.0019 29.7078 16.8169 28.8219C19.6794 25.8294 22.5617 22.5023 25.1061 19.1752C25.8217 18.2499 26.4976 17.3246 27.1337 16.419C18.109 16.3994 10.4162 19.254 4.81051 22.4039Z" fill="#D31245"/>
<path d="M15.684 4.3902C12.4439 5.96517 9.46216 7.75668 7.27556 9.39071C5.72506 10.5522 4.57213 11.635 3.99566 12.5013C2.16687 15.2968 0.934428 18.8995 0.338083 22.7582C0.278449 23.1913 0.218814 23.6244 0.15918 24.0575C3.08127 21.951 5.88409 20.1398 8.92545 18.5649C14.4118 15.7299 20.6734 13.7022 29.9367 12.1469C30.1752 11.7531 30.3939 11.3791 30.6324 10.9854C33.3955 6.20141 34.6279 2.26401 32.9979 0.708731C32.5009 0.25593 31.7655 0 30.7318 0C26.3984 0.039374 20.7331 1.9687 15.684 4.3902Z" fill="#FDB845"/>
<path d="M30.5527 5.33501L30.6521 5.11845L12.8214 15.9463L24.9669 0.885742C24.8278 0.925116 24.7085 0.944803 24.5892 0.984177L11.3504 15.9069L15.6242 4.42941C15.485 4.48847 15.3658 4.54753 15.2465 4.60659L10.2173 16.0841L10.4161 7.28402C10.2769 7.36277 10.1378 7.46121 9.99865 7.55964L9.20353 16.4779L6.91754 9.66615C6.77839 9.76459 6.65912 9.86302 6.53985 9.96146L8.24937 16.9504L4.35325 12.0286C4.25386 12.1467 4.17435 12.2648 4.09484 12.3633L7.47413 17.5606L2.72324 14.7848C2.66361 14.9029 2.60398 15.0407 2.54434 15.1588L6.77839 18.2891L1.55043 17.6591C1.51068 17.7772 1.47092 17.915 1.43116 18.0528L6.12241 19.2734L0.616159 21.2815C0.596281 21.3406 0.596281 21.3996 0.576403 21.4784L5.64533 20.4546C3.79666 21.5571 2.00763 22.7777 0.158961 24.1164L0.0595703 25.4748C5.66521 21.3996 15.1869 16.4385 27.1336 16.4385L29.9365 12.2058C23.3767 13.3083 18.3674 14.6273 14.0339 16.3204V16.3401L30.5527 5.33501Z" fill="white"/>
</svg>
