<svg width="366" height="314" viewBox="0 0 366 314" fill="none" xmlns="http://www.w3.org/2000/svg">
<g clip-path="url(#clip0_17_1293)">
<path d="M107.56 310.713C113.436 305.753 117.005 297.918 116.069 290.291C115.133 282.663 109.336 275.651 101.817 274.032C94.2973 272.412 85.7258 276.895 83.4419 284.234C82.185 270.086 80.7367 255.346 73.2076 243.298C66.3902 232.389 54.5823 224.583 41.7853 223.186C28.9883 221.79 15.5146 227.064 7.53358 237.155C-0.44746 247.246 -2.40158 261.915 3.18814 273.5C7.30588 282.034 14.8922 288.386 22.8408 293.553C48.5256 310.109 79.3311 316.841 109.589 312.512" fill="#F2F2F2"/>
<path d="M20.1874 227.357C30.7465 235.949 40.4334 245.559 49.108 256.047C62.6836 272.404 73.6691 290.744 81.6819 310.428C82.2684 311.864 79.9344 312.489 79.3544 311.069C74.2589 298.624 67.9548 286.708 60.5324 275.492C48.9581 257.97 34.778 242.314 18.4806 229.062C17.2757 228.082 18.9923 226.385 20.1874 227.357V227.357Z" fill="white"/>
<path d="M111.618 310.713C105.742 305.753 102.173 297.918 103.109 290.291C104.045 282.663 109.842 275.651 117.361 274.032C124.881 272.412 133.452 276.895 135.736 284.234C136.993 270.086 138.441 255.346 145.97 243.298C152.788 232.389 164.596 224.583 177.393 223.186C190.19 221.79 203.663 227.064 211.644 237.155C219.625 247.246 221.58 261.915 215.99 273.5C211.872 282.034 204.286 288.386 196.337 293.553C170.652 310.109 139.847 316.841 109.589 312.512" fill="#F2F2F2"/>
<path d="M198.991 227.357C188.431 235.949 178.745 245.559 170.07 256.047C156.494 272.404 145.509 290.744 137.496 310.428C136.91 311.864 139.244 312.489 139.824 311.069C152.934 279.079 173.863 250.884 200.697 229.062C201.902 228.082 200.186 226.385 198.991 227.357V227.357Z" fill="white"/>
<path d="M129.054 141.782C139.923 141.782 148.735 132.979 148.735 122.12C148.735 111.261 139.923 102.458 129.054 102.458C118.184 102.458 109.373 111.261 109.373 122.12C109.373 132.979 118.184 141.782 129.054 141.782Z" fill="#F2F2F2"/>
<path d="M68.3717 54.3432H203.967V61.7545H85.6817C78.727 61.7545 71.8403 63.123 65.415 65.7819C58.9896 68.4407 53.1514 72.3379 48.2336 77.2508C43.3159 82.1638 39.4149 87.9963 36.7534 94.4153C34.0919 100.834 32.7221 107.714 32.7221 114.662V198.864H17.885C17.2291 198.864 16.6002 198.603 16.1364 198.14C15.6727 197.677 15.4121 197.049 15.4121 196.393V107.251C15.4121 100.303 16.7819 93.423 19.4434 87.004C22.1049 80.5849 26.0059 74.7524 30.9236 69.8395C35.8414 64.9265 41.6796 61.0294 48.105 58.3705C54.5303 55.7117 61.417 54.3432 68.3717 54.3432Z" fill="#F2F2F2"/>
<path d="M94.4531 311.125V198.547H127.466V311.125C127.465 311.882 127.164 312.607 126.628 313.142C126.093 313.677 125.367 313.978 124.609 313.979H97.31C96.5526 313.978 95.8264 313.677 95.2908 313.142C94.7553 312.607 94.454 311.882 94.4531 311.125Z" fill="#F2F2F2"/>
<path d="M8.42969 196.327V104.783C8.44616 90.2102 14.2483 76.2386 24.5631 65.9338C34.878 55.6291 48.8632 49.8326 63.4506 49.8161H203.334V199.498H11.604C10.7624 199.497 9.95559 199.163 9.3605 198.568C8.76541 197.974 8.43065 197.168 8.42969 196.327ZM202.064 51.0846H63.4506C49.1998 51.1007 35.5373 56.7634 25.4605 66.8304C15.3837 76.8974 9.71553 90.5465 9.69942 104.783V196.327C9.69997 196.831 9.90081 197.315 10.2579 197.672C10.6149 198.028 11.0991 198.229 11.604 198.229H202.064V51.0846Z" fill="#ACACAC"/>
<path d="M129.053 132.268C126.023 132.265 123.118 131.061 120.976 128.92C118.834 126.78 117.628 123.878 117.625 120.852V39.034C117.624 38.5295 117.424 38.0458 117.067 37.6891C116.71 37.3324 116.225 37.1318 115.72 37.1312H71.2798C70.4382 37.1302 69.6314 36.7958 69.0363 36.2013C68.4412 35.6068 68.1064 34.8008 68.1055 33.96V4.15047C68.1064 3.30971 68.4412 2.50366 69.0363 1.90915C69.6314 1.31464 70.4382 0.980222 71.2798 0.979248H137.306C138.148 0.98021 138.954 1.31463 139.549 1.90914C140.145 2.50365 140.479 3.30971 140.48 4.15047V120.852C140.477 123.878 139.272 126.78 137.129 128.92C134.987 131.061 132.082 132.265 129.053 132.268Z" fill="#F2F2F2"/>
<path d="M208.412 48.5476C217.989 48.5276 227.182 52.3092 233.969 59.0607C240.755 65.8121 244.579 74.9803 244.599 84.5483V188.761H315.704C318.561 188.755 321.303 189.883 323.327 191.896C325.351 193.91 326.491 196.644 326.497 199.498H172.225V84.5483C172.245 74.9803 176.069 65.8121 182.855 59.0607C189.641 52.3092 198.835 48.5276 208.412 48.5476Z" fill="#F2F2F2"/>
<path d="M199.727 107.892L207.221 138.816L353.8 103.367L346.306 72.4434C346.216 72.0653 346.031 71.7162 345.769 71.4285C345.508 71.1407 345.178 70.9237 344.809 70.7975C344.538 70.702 344.25 70.6588 343.963 70.6702L259.234 26.8426C258.737 26.5893 258.166 26.5217 257.624 26.6518C257.082 26.782 256.605 27.1014 256.278 27.5525L215.443 84.4403L200.049 105.892C200.021 105.93 200.001 105.973 199.992 106.019C199.982 106.065 199.982 106.112 199.992 106.158C199.679 106.678 199.584 107.302 199.727 107.892Z" fill="white"/>
<path d="M199.994 106.157C200.001 106.198 200.017 106.236 200.039 106.27C200.061 106.305 200.089 106.335 200.123 106.358C200.163 106.385 200.208 106.404 200.255 106.413C200.302 106.423 200.351 106.422 200.398 106.412C200.475 106.392 200.542 106.345 200.588 106.281L200.641 106.207L201.442 105.088L215.999 84.8145L256.822 27.9397C257.055 27.6174 257.395 27.3892 257.782 27.2966C258.169 27.2039 258.577 27.2529 258.931 27.4347L343.003 70.9227L343.757 71.3139C343.788 71.3267 343.819 71.3377 343.851 71.3467C343.908 71.3364 343.965 71.3309 344.023 71.3302C344.102 71.3038 344.168 71.2483 344.207 71.175C344.228 71.1364 344.24 71.0941 344.244 71.0506C344.249 71.0071 344.244 70.9632 344.231 70.9215C344.218 70.8797 344.197 70.8409 344.169 70.8073C344.141 70.7737 344.107 70.7459 344.068 70.7255L343.964 70.6702L259.235 26.8426C258.739 26.5893 258.168 26.5217 257.626 26.6518C257.084 26.782 256.606 27.1014 256.279 27.5525L215.445 84.4403L200.051 105.892C200.023 105.93 200.003 105.973 199.993 106.019C199.984 106.064 199.984 106.112 199.994 106.157Z" fill="#ACACAC"/>
<path d="M244.014 109.311L247.277 109.672L271.493 112.352L287.546 114.128L288.494 114.233L308.525 98.6022L309.293 98.0035L314.024 94.312L330.857 81.1792L330.958 80.2567L336.945 26.2735C337.026 25.5302 336.81 24.7848 336.342 24.2009C335.874 23.6169 335.194 23.242 334.45 23.1584L254.549 14.3159C253.805 14.2347 253.059 14.4514 252.474 14.9185C251.89 15.3856 251.514 16.065 251.43 16.808L247.208 54.8865L244.866 75.9979L242.771 94.8847L241.8 103.656L241.517 106.196C241.436 106.94 241.653 107.685 242.121 108.269C242.59 108.853 243.27 109.227 244.014 109.311Z" fill="#E6E6E6"/>
<path d="M265.973 61.9922L300.584 65.8218L312.858 67.1795C313.4 67.2395 313.948 67.1922 314.472 67.0405C314.995 66.8887 315.484 66.6353 315.91 66.2949C316.335 65.9545 316.69 65.5337 316.952 65.0564C317.215 64.5792 317.381 64.055 317.441 63.5136C317.501 62.9722 317.454 62.4243 317.302 61.9012C317.15 61.3781 316.897 60.89 316.556 60.4648C316.215 60.0395 315.794 59.6855 315.316 59.423C314.839 59.1604 314.314 58.9944 313.772 58.9344L298.505 57.2453L266.889 53.7431C265.795 53.6222 264.697 53.9406 263.837 54.6283C262.977 55.3159 262.426 56.3165 262.305 57.41C262.183 58.5036 262.501 59.6005 263.189 60.4598C263.877 61.3191 264.878 61.8702 265.973 61.9922Z" fill="white"/>
<path d="M264.001 77.2877C264.09 77.3036 264.18 77.3196 264.271 77.3283L304.448 81.775L311.156 82.5189C312.251 82.6399 313.349 82.3214 314.209 81.6335C315.069 80.9456 315.62 79.9447 315.741 78.8509C315.862 77.7571 315.544 76.66 314.855 75.801C314.166 74.942 313.164 74.3915 312.07 74.2705L302.37 73.1984L270.544 69.6753L265.188 69.0824C264.117 68.963 263.041 69.2645 262.189 69.923C261.336 70.5815 260.773 71.5454 260.619 72.6111C260.465 73.6767 260.731 74.7604 261.363 75.6331C261.994 76.5059 262.94 77.0992 264.001 77.2876V77.2877Z" fill="white"/>
<path d="M259.455 90.8503C259.784 91.3964 260.235 91.8593 260.772 92.2031C261.309 92.5469 261.919 92.7623 262.553 92.8325L279.021 94.6546L308.35 97.9007L308.356 97.8991L309.294 98.0035L314.025 94.3121C314.054 94.0317 314.055 93.749 314.026 93.4685C313.926 92.5269 313.508 91.6475 312.84 90.9758C312.171 90.3042 311.294 89.8804 310.352 89.7748L306.278 89.3226L290.116 87.5358L278.487 86.2473L263.466 84.5842C262.696 84.4991 261.918 84.6308 261.219 84.9644C260.52 85.298 259.929 85.8202 259.512 86.4721C259.094 87.1239 258.868 87.8793 258.858 88.653C258.848 89.4267 259.054 90.1878 259.455 90.8502L259.455 90.8503Z" fill="white"/>
<path d="M282.584 43.2958L291.196 44.2486L295 44.6707L300.745 45.3059C301.84 45.4269 302.938 45.1084 303.798 44.4205C304.658 43.7327 305.209 42.7317 305.33 41.6379C305.451 40.5441 305.132 39.4471 304.444 38.5881C303.755 37.7291 302.753 37.1785 301.658 37.0575L283.502 35.0499C282.407 34.9283 281.309 35.2462 280.449 35.9334C279.589 36.6207 279.038 37.6211 278.916 38.7146C278.794 39.8081 279.113 40.905 279.8 41.7642C280.488 42.6233 281.49 43.1743 282.584 43.2958V43.2958Z" fill="white"/>
<path d="M212.169 66.2632L222.668 109.591L240.191 112.92L256.4 116.003L273.791 119.309L279.348 120.365C279.674 120.426 280.008 120.418 280.33 120.34C280.652 120.262 280.954 120.117 281.215 119.914L285.673 116.435L288.495 114.233L308.527 98.6022L295.79 46.04C295.664 45.5171 295.39 45.0415 295 44.6706C294.658 44.3424 294.239 44.1054 293.782 43.9816C293.324 43.8578 292.842 43.851 292.381 43.962L214.249 62.8579C213.521 63.0343 212.893 63.4921 212.503 64.1306C212.113 64.7691 211.993 65.5361 212.169 66.2632Z" fill="url(#paint0_linear_17_1293)"/>
<path d="M236.243 100.732C236.503 101.801 237.177 102.723 238.116 103.296C239.056 103.869 240.185 104.046 241.256 103.788L287.102 92.7002C288.172 92.4399 289.094 91.7666 289.668 90.8279C290.241 89.8891 290.418 88.7615 290.161 87.6923C290.149 87.6393 290.134 87.587 290.116 87.5358C289.823 86.505 289.143 85.6274 288.216 85.0869C287.29 84.5464 286.191 84.385 285.148 84.6365L239.302 95.7242C238.232 95.9839 237.309 96.6571 236.735 97.596C236.162 98.5349 235.985 99.6628 236.243 100.732Z" fill="white"/>
<path d="M240.189 112.92L256.399 116.003L290.735 107.699C291.806 107.44 292.729 106.767 293.303 105.828C293.877 104.888 294.053 103.76 293.794 102.691C293.535 101.621 292.861 100.699 291.921 100.126C290.981 99.5526 289.852 99.3761 288.781 99.635L242.935 110.723C241.977 110.952 241.133 111.518 240.556 112.315C240.417 112.506 240.294 112.708 240.189 112.92Z" fill="white"/>
<path d="M273.791 119.309L279.348 120.365C279.673 120.426 280.008 120.418 280.33 120.34C280.652 120.262 280.953 120.117 281.214 119.914L285.672 116.435L273.791 119.309Z" fill="white"/>
<path d="M245.48 77.4988C245.74 78.5676 246.414 79.4897 247.353 80.0626C248.293 80.6355 249.422 80.8124 250.493 80.5546L268.25 76.2601C269.319 75.9998 270.242 75.3265 270.815 74.3878C271.389 73.449 271.566 72.3214 271.309 71.2522C271.17 70.6777 270.909 70.1398 270.544 69.6753C270.052 69.0475 269.391 68.5742 268.637 68.312C267.884 68.0497 267.071 68.0096 266.296 68.1964L248.539 72.4909C247.468 72.7499 246.545 73.423 245.971 74.3621C245.398 75.3012 245.221 76.4295 245.48 77.4988Z" fill="white"/>
<path d="M256.398 116.002L273.792 119.309L279.347 120.366C279.672 120.427 280.007 120.418 280.328 120.34C280.65 120.262 280.951 120.117 281.212 119.915L285.674 116.435L284.108 116.814L280.803 119.39C280.616 119.534 280.401 119.638 280.172 119.693C279.942 119.749 279.703 119.755 279.471 119.712L275.357 118.93L257.963 115.624L256.398 116.002ZM308.354 97.9016L308.523 98.6004L309.294 98.0012L308.354 97.9016ZM256.398 116.002L273.792 119.309L279.347 120.366C279.672 120.427 280.007 120.418 280.328 120.34C280.65 120.262 280.951 120.117 281.212 119.915L285.674 116.435L284.108 116.814L280.803 119.39C280.616 119.534 280.401 119.638 280.172 119.693C279.942 119.749 279.703 119.755 279.471 119.712L275.357 118.93L257.963 115.624L256.398 116.002ZM256.398 116.002L273.792 119.309L279.347 120.366C279.672 120.427 280.007 120.418 280.328 120.34C280.65 120.262 280.951 120.117 281.212 119.915L285.674 116.435L284.108 116.814L280.803 119.39C280.616 119.534 280.401 119.638 280.172 119.693C279.942 119.749 279.703 119.755 279.471 119.712L275.357 118.93L257.963 115.624L256.398 116.002ZM199.727 107.892L219.355 188.892C219.501 189.49 219.878 190.007 220.404 190.328C220.931 190.649 221.563 190.748 222.162 190.603L364.221 156.248C364.82 156.102 365.337 155.725 365.658 155.199C365.979 154.673 366.078 154.042 365.934 153.443L346.306 72.4434C346.216 72.0653 346.031 71.7161 345.769 71.4284C345.508 71.1407 345.177 70.9236 344.809 70.7974C344.538 70.702 344.25 70.6588 343.962 70.6701C343.627 70.6798 343.298 70.7662 343.001 70.9227C342.864 70.9877 342.735 71.0679 342.616 71.1619L330.957 80.2568L314.025 93.4703L308.352 97.8968L308.354 97.9016L308.349 97.9027L287.547 114.125L284.108 116.814L280.803 119.39C280.616 119.534 280.401 119.638 280.172 119.693C279.942 119.749 279.703 119.755 279.471 119.712L275.357 118.93L257.963 115.624L240.554 112.316L202.423 105.066C202.098 105.002 201.763 105.009 201.441 105.088C201.007 105.193 200.613 105.422 200.305 105.745C200.188 105.872 200.083 106.01 199.992 106.158C199.679 106.678 199.584 107.302 199.727 107.892ZM256.398 116.002L273.792 119.309L279.347 120.366C279.672 120.427 280.007 120.418 280.328 120.34C280.65 120.262 280.951 120.117 281.212 119.915L285.674 116.435L284.108 116.814L280.803 119.39C280.616 119.534 280.401 119.638 280.172 119.693C279.942 119.749 279.703 119.755 279.471 119.712L275.357 118.93L257.963 115.624L256.398 116.002ZM256.398 116.002L273.792 119.309L279.347 120.366C279.672 120.427 280.007 120.418 280.328 120.34C280.65 120.262 280.951 120.117 281.212 119.915L285.674 116.435L284.108 116.814L280.803 119.39C280.616 119.534 280.401 119.638 280.172 119.693C279.942 119.749 279.703 119.755 279.471 119.712L275.357 118.93L257.963 115.624L256.398 116.002ZM256.398 116.002L273.792 119.309L279.347 120.366C279.672 120.427 280.007 120.418 280.328 120.34C280.65 120.262 280.951 120.117 281.212 119.915L285.674 116.435L284.108 116.814L280.803 119.39C280.616 119.534 280.401 119.638 280.172 119.693C279.942 119.749 279.703 119.755 279.471 119.712L275.357 118.93L257.963 115.624L256.398 116.002Z" fill="white"/>
<path d="M256.398 116.002L273.792 119.309L279.347 120.366C279.672 120.427 280.007 120.418 280.328 120.34C280.65 120.262 280.951 120.117 281.212 119.915L285.674 116.436L284.108 116.814L280.803 119.39C280.616 119.534 280.401 119.638 280.172 119.694C279.942 119.749 279.703 119.755 279.471 119.712L275.357 118.93L257.963 115.624L256.398 116.002ZM308.354 97.9016L308.523 98.6005L309.294 98.0012L308.354 97.9016ZM256.398 116.002L273.792 119.309L279.347 120.366C279.672 120.427 280.007 120.418 280.328 120.34C280.65 120.262 280.951 120.117 281.212 119.915L285.674 116.436L284.108 116.814L280.803 119.39C280.616 119.534 280.401 119.638 280.172 119.694C279.942 119.749 279.703 119.755 279.471 119.712L275.357 118.93L257.963 115.624L256.398 116.002ZM256.398 116.002L273.792 119.309L279.347 120.366C279.672 120.427 280.007 120.418 280.328 120.34C280.65 120.262 280.951 120.117 281.212 119.915L285.674 116.436L284.108 116.814L280.803 119.39C280.616 119.534 280.401 119.638 280.172 119.694C279.942 119.749 279.703 119.755 279.471 119.712L275.357 118.93L257.963 115.624L256.398 116.002ZM200.639 106.208L200.725 106.272C200.74 106.249 200.765 106.227 200.784 106.203C200.976 106.003 201.215 105.853 201.48 105.768C201.744 105.683 202.025 105.665 202.298 105.716L240.191 112.917L256.398 116.002L273.792 119.309L279.347 120.366C279.672 120.427 280.007 120.418 280.328 120.34C280.65 120.262 280.951 120.117 281.212 119.915L285.674 116.435L284.108 116.814L280.803 119.39C280.616 119.534 280.401 119.638 280.172 119.694C279.942 119.749 279.703 119.755 279.471 119.712L275.357 118.93L257.963 115.624L240.554 112.316L202.423 105.066C202.098 105.002 201.763 105.009 201.441 105.088L200.639 106.208ZM199.727 107.892L219.355 188.892C219.501 189.491 219.878 190.007 220.404 190.328C220.931 190.649 221.563 190.748 222.162 190.603L364.221 156.248C364.82 156.102 365.337 155.725 365.658 155.199C365.979 154.673 366.078 154.042 365.934 153.443L346.306 72.4434C346.216 72.0653 346.031 71.7162 345.769 71.4285C345.508 71.1407 345.177 70.9237 344.809 70.7975C344.538 70.702 344.25 70.6588 343.962 70.6702C343.627 70.6799 343.298 70.7663 343.001 70.9228C342.864 70.9878 342.735 71.068 342.616 71.162L330.957 80.2569L314.025 93.4704L308.352 97.8969L308.354 97.9016L308.349 97.9028L287.547 114.126L284.108 116.814L280.803 119.39C280.616 119.534 280.401 119.638 280.172 119.694C279.942 119.749 279.703 119.755 279.471 119.712L275.357 118.93L257.963 115.624L240.554 112.316L202.423 105.066C202.098 105.002 201.763 105.009 201.441 105.088C201.007 105.194 200.613 105.422 200.305 105.745C200.188 105.872 200.083 106.01 199.992 106.158C199.679 106.678 199.584 107.302 199.727 107.892ZM200.375 107.736C200.317 107.497 200.313 107.248 200.364 107.008C200.414 106.768 200.518 106.542 200.668 106.347C200.681 106.318 200.701 106.292 200.725 106.272C200.74 106.249 200.765 106.227 200.784 106.203C200.976 106.003 201.215 105.853 201.48 105.768C201.744 105.683 202.025 105.665 202.298 105.716L240.191 112.917L256.398 116.002L273.792 119.309L279.347 120.366C279.672 120.427 280.007 120.418 280.328 120.34C280.65 120.262 280.951 120.117 281.212 119.915L285.674 116.436L288.495 114.233L308.523 98.6004L309.294 98.0012L314.022 94.3115L330.858 81.1767L343.029 71.681C343.214 71.5369 343.427 71.4337 343.655 71.3785C343.719 71.3629 343.784 71.3523 343.849 71.3467C343.906 71.3364 343.964 71.3309 344.022 71.3302C344.216 71.3284 344.409 71.3599 344.593 71.4234C344.856 71.5147 345.091 71.67 345.278 71.8753C345.465 72.0806 345.598 72.3293 345.664 72.5988L365.291 153.598C365.343 153.811 365.352 154.031 365.318 154.247C365.285 154.463 365.209 154.67 365.095 154.856C364.981 155.043 364.831 155.205 364.655 155.333C364.478 155.462 364.278 155.555 364.065 155.606L222.007 189.962C221.578 190.065 221.126 189.993 220.75 189.763C220.374 189.533 220.105 189.164 220.002 188.735L200.375 107.736ZM256.398 116.002L273.792 119.309L279.347 120.366C279.672 120.427 280.007 120.418 280.328 120.34C280.65 120.262 280.951 120.117 281.212 119.915L285.674 116.436L284.108 116.814L280.803 119.39C280.616 119.534 280.401 119.638 280.172 119.694C279.942 119.749 279.703 119.755 279.471 119.712L275.357 118.93L257.963 115.624L256.398 116.002ZM256.398 116.002L273.792 119.309L279.347 120.366C279.672 120.427 280.007 120.418 280.328 120.34C280.65 120.262 280.951 120.117 281.212 119.915L285.674 116.436L284.108 116.814L280.803 119.39C280.616 119.534 280.401 119.638 280.172 119.694C279.942 119.749 279.703 119.755 279.471 119.712L275.357 118.93L257.963 115.624L256.398 116.002ZM256.398 116.002L273.792 119.309L279.347 120.366C279.672 120.427 280.007 120.418 280.328 120.34C280.65 120.262 280.951 120.117 281.212 119.915L285.674 116.436L284.108 116.814L280.803 119.39C280.616 119.534 280.401 119.638 280.172 119.694C279.942 119.749 279.703 119.755 279.471 119.712L275.357 118.93L257.963 115.624L256.398 116.002Z" fill="#ACACAC"/>
<path d="M327.196 140.334C326.876 139.007 327.096 137.607 327.808 136.441C328.52 135.276 329.665 134.44 330.993 134.118L348.923 129.781C350.25 129.465 351.648 129.688 352.811 130.4C353.974 131.111 354.807 132.255 355.128 133.579C355.449 134.903 355.231 136.301 354.523 137.465C353.814 138.629 352.673 139.466 351.348 139.791L333.419 144.127C332.09 144.447 330.689 144.227 329.522 143.516C328.356 142.805 327.519 141.661 327.196 140.334Z" fill="url(#paint1_linear_17_1293)"/>
<path d="M129.053 125.291C131.508 125.291 133.498 123.304 133.498 120.852C133.498 118.4 131.508 116.412 129.053 116.412C126.599 116.412 124.609 118.4 124.609 120.852C124.609 123.304 126.599 125.291 129.053 125.291Z" fill="white"/>
</g>
<defs>
<linearGradient id="paint0_linear_17_1293" x1="228.549" y1="-59.2551" x2="467.162" y2="-31.5449" gradientUnits="userSpaceOnUse">
<stop stop-color="#FFF965"/>
<stop offset="0.90625" stop-color="#79FF76"/>
</linearGradient>
<linearGradient id="paint1_linear_17_1293" x1="344.221" y1="118.588" x2="352.073" y2="147.18" gradientUnits="userSpaceOnUse">
<stop stop-color="#FFF965"/>
<stop offset="1" stop-color="#FF7676"/>
</linearGradient>
<clipPath id="clip0_17_1293">
<rect width="366" height="313" fill="white" transform="translate(0 0.979248)"/>
</clipPath>
</defs>
</svg>
