<svg width="163" height="39" viewBox="0 0 163 39" fill="none" xmlns="http://www.w3.org/2000/svg">
<path d="M17.8388 0.251516C21.4031 -0.293503 25.1122 0.0468327 28.4954 1.27654C32.361 2.66196 35.7722 5.19441 38.2063 8.43C39.8518 10.6205 41.0527 13.1289 41.703 15.7697C42.5657 19.2501 42.4842 22.9521 41.4503 26.3891C39.9761 31.3657 36.4801 35.7283 31.9008 38.3482C31.4835 38.5987 31.0563 38.8403 30.5912 39C29.6174 38.0938 28.6938 37.1378 27.7365 36.2147C25.4942 34.0089 23.2461 31.8088 21.0096 29.599C17.8157 32.6821 14.663 35.8053 11.4774 38.8965C10.3974 38.4365 9.42277 37.7711 8.47284 37.0977C4.38914 34.1261 1.44633 29.6825 0.432198 24.8062C-0.525962 20.2438 0.110341 15.3515 2.32794 11.2169C4.33728 13.1666 6.31533 15.146 8.31891 17.1021C12.4627 21.1709 16.5983 25.2477 20.7281 29.3293C20.8664 29.5228 21.1084 29.5212 21.2574 29.339C23.647 27.0112 26.0251 24.6722 28.4164 22.346C32.2359 18.6152 36.0702 14.898 39.8616 11.1398C36.5748 11.1254 33.2879 11.2201 30.0002 11.2362C29.7721 11.2418 29.54 11.2281 29.3161 11.2755C29.1004 11.3261 28.9663 11.5147 28.8156 11.6568C26.733 13.7734 24.6389 15.8797 22.5514 17.9915C22.0731 18.4498 21.641 18.9579 21.1339 19.3866C18.5236 16.8718 15.9134 14.3562 13.3213 11.8229C13.0529 11.5749 12.7969 11.2153 12.3804 11.2466C9.04741 11.1992 5.71443 11.1711 2.38144 11.1126C3.58161 8.8193 5.26498 6.77488 7.24715 5.07722C10.2179 2.53995 13.9345 0.839879 17.8388 0.251516ZM76.7508 11.0652C81.4008 11.0716 86.0509 11.0724 90.7009 11.0636C90.7017 12.4241 90.7026 13.7855 90.7026 15.146C87.5136 15.1516 84.3247 15.1412 81.1358 15.154C81.1374 16.2505 81.1366 17.347 81.1366 18.4426C83.7279 18.4506 86.3192 18.4418 88.9105 18.4474C88.9089 19.6723 88.9089 20.8972 88.9105 22.1221C86.3192 22.1438 83.7271 22.1229 81.135 22.1325C81.1399 23.4272 81.1325 24.722 81.1391 26.0159C84.3263 26.0279 87.5136 26.0135 90.7009 26.0231C90.7001 27.3178 90.7058 28.6125 90.6984 29.9073C86.0484 29.9073 81.3992 29.9089 76.75 29.9065C76.7417 23.6263 76.7409 17.3454 76.7508 11.0652ZM95.6901 11.0644C97.8855 11.0869 100.081 11.0451 102.275 11.0467C103.176 11.0467 104.08 11.0259 104.975 11.1358C106.516 11.3654 108.01 12.0437 109.098 13.1449C109.968 14.011 110.495 15.1685 110.665 16.3629C110.881 17.8711 110.683 19.4989 109.787 20.78C109.043 21.8925 107.845 22.6141 106.608 23.1086C108.235 25.3761 109.898 27.6212 111.515 29.896C109.838 29.9177 108.159 29.9105 106.483 29.9C105.084 27.9487 103.662 26.0143 102.268 24.0614C102.114 23.8808 101.981 23.6038 101.7 23.6231C101.156 23.5942 100.611 23.6207 100.067 23.6239C100.071 25.7181 100.068 27.8123 100.071 29.9065C98.6098 29.9121 97.1487 29.9097 95.6876 29.9089C95.6852 23.6271 95.6802 17.3454 95.6901 11.0644ZM100.072 15.1195C100.069 16.753 100.07 18.3864 100.073 20.0191C101.404 19.9998 102.737 20.0512 104.068 20.0014C105.166 19.9131 106.027 18.9595 106.215 17.9377C106.351 17.2546 106.178 16.5049 105.701 15.98C105.198 15.4189 104.433 15.1067 103.672 15.1155C102.472 15.1115 101.272 15.1203 100.072 15.1195ZM113.226 11.0668C115.558 11.0941 117.889 11.0467 120.221 11.0435C122.306 11.0122 124.39 11.0804 126.476 11.0692C127.509 11.07 128.544 11.0676 129.578 11.0708C129.571 12.4265 129.566 13.7831 129.579 15.1396C127.649 15.1605 125.719 15.138 123.79 15.1508C123.794 20.0704 123.795 24.9901 123.79 29.9097C122.194 29.9081 120.6 29.9129 119.005 29.9073C119.004 24.9901 119.001 20.072 119.003 15.1548C117.077 15.1412 115.15 15.1516 113.224 15.146C113.224 13.7863 113.22 12.4265 113.226 11.0668ZM132.964 11.0684C134.422 11.0692 135.881 11.0724 137.34 11.0668C137.349 17.3478 137.344 23.6287 137.343 29.9097C135.882 29.9089 134.421 29.9129 132.961 29.9065C132.959 23.6271 132.954 17.3478 132.964 11.0684ZM54.1196 11.1856C55.7824 11.176 57.446 11.1479 59.1096 11.1559C60.6127 15.3041 62.0746 19.4668 63.609 23.603C65.2109 19.5367 66.6983 15.4269 68.2558 11.3437C68.2846 11.2193 68.3883 11.1447 68.5208 11.1728C70.0429 11.1776 71.5657 11.1776 73.0877 11.188C70.7014 17.4328 68.2681 23.6616 65.8735 29.9041C64.396 29.9137 62.9184 29.9041 61.4408 29.9089C58.996 23.6688 56.5553 17.428 54.1196 11.1856ZM140.881 11.1856C142.549 11.1792 144.215 11.1415 145.883 11.1607C147.139 14.6668 148.391 18.1745 149.663 21.675C149.91 22.3147 150.11 22.9729 150.389 23.6014C151.947 19.5423 153.471 15.4719 154.992 11.3999C155.031 11.3084 155.063 11.1583 155.204 11.1816C156.751 11.1687 158.298 11.1808 159.845 11.1872C157.477 17.4352 155.031 23.6552 152.641 29.8952C151.161 29.9177 149.681 29.9073 148.201 29.9016C145.758 23.664 143.326 17.4224 140.881 11.1856ZM157.615 26.8932C158.363 26.9044 159.112 26.8852 159.861 26.9052C159.855 27.0368 159.85 27.1685 159.846 27.3002C159.541 27.301 159.237 27.3018 158.934 27.2986C158.928 28.2353 158.94 29.172 158.926 30.1087C158.79 30.1039 158.657 30.0999 158.524 30.0951C158.528 29.1632 158.538 28.2305 158.519 27.2986C158.213 27.3026 157.909 27.3026 157.606 27.2921C157.607 27.1589 157.611 27.0256 157.615 26.8932ZM160.316 26.8924C160.503 26.894 160.692 26.8948 160.881 26.894C161.163 27.7665 161.398 28.6519 161.664 29.5284C161.961 28.6591 162.198 27.7713 162.474 26.8956C162.646 26.8956 162.821 26.8948 162.996 26.8932C163.001 27.9608 162.993 29.0283 163 30.0967C162.871 30.1007 162.743 30.1047 162.619 30.1095C162.604 29.2852 162.642 28.46 162.595 27.6365C162.308 28.4552 162.099 29.2972 161.815 30.1176C161.696 30.1095 161.579 30.1031 161.465 30.0967C161.215 29.2956 161.026 28.4745 160.722 27.6919C160.665 28.4921 160.708 29.2956 160.698 30.0975C160.568 30.1015 160.44 30.1047 160.314 30.1087C160.313 29.0364 160.307 27.964 160.316 26.8924Z" fill="black"/>
</svg>
