<svg width="145" height="36" viewBox="0 0 145 36" fill="none" xmlns="http://www.w3.org/2000/svg">
<path d="M9.594 10.31C9.594 9.158 9.144 8.186 8.082 7.538C9.09 6.908 9.594 6.062 9.594 4.766V4.73C9.594 2.84 8.028 1.4 5.922 1.4H1.35V14H5.922C8.028 14 9.594 12.56 9.594 10.67V10.31ZM3.618 8.582H5.922C6.732 8.582 7.326 9.248 7.326 10.058V10.454C7.326 11.3 6.732 11.93 5.886 11.93H3.618V8.582ZM3.618 3.47H5.886C6.732 3.47 7.326 4.1 7.326 4.946V5.036C7.326 5.846 6.75 6.512 5.94 6.512H3.618V3.47ZM17.3045 14H18.3305V7.826C18.3305 6.026 16.9625 4.64 15.0365 4.64H14.6045C12.6785 4.64 11.3105 6.026 11.3105 7.826V7.88L13.5245 8.096V7.754C13.5245 7.232 14.0105 6.8 14.6045 6.8H15.0365C15.6305 6.8 16.1165 7.232 16.1165 7.754V8.708H14.1905C12.3365 8.708 11.2205 9.734 11.2205 11.246V11.606C11.2205 13.118 12.3365 14.18 14.1905 14.18H14.2265C15.3065 14.18 16.1885 13.73 16.6745 13.01L17.3045 14ZM13.4345 11.21C13.4345 10.724 13.8125 10.346 14.3705 10.346H16.1165V11.282C16.1165 11.768 15.6845 12.128 15.1985 12.128H14.3705C13.8125 12.128 13.4345 11.75 13.4345 11.264V11.21ZM21.6023 4.82H20.5763V14H22.7903V7.862C22.7903 7.232 23.2223 6.8 23.8523 6.8H24.4463C25.0763 6.8 25.5083 7.232 25.5083 7.862V14H27.7223V7.934C27.7223 5.828 26.6063 4.64 24.6083 4.64H24.5723C23.6183 4.64 22.8083 5.108 22.2503 5.846L21.6023 4.82ZM30.1605 14.792C30.1605 16.376 31.2945 17.6 33.1125 17.6H33.9945C35.8125 17.6 36.9465 16.376 36.9465 14.792C36.9465 13.208 35.8125 11.984 33.9945 11.984H32.2845C31.9785 11.984 31.7625 11.786 31.7625 11.48C31.7625 11.174 31.9785 10.958 32.2845 10.958H33.9225C35.8305 10.958 37.1265 9.626 37.1265 7.826V4.82H36.1005L35.5605 5.648C35.0205 4.982 34.2825 4.64 33.3285 4.64H33.0405C31.1145 4.64 29.8005 5.972 29.8005 7.772V7.826C29.8005 8.708 30.0705 9.428 30.6105 9.986C30.1965 10.346 29.9805 10.85 29.9805 11.48C29.9805 12.182 30.2505 12.722 30.7365 13.028C30.3585 13.514 30.1605 14.108 30.1605 14.792ZM35.0025 7.898C35.0025 8.6 34.4805 9.086 33.8325 9.086H33.0945C32.4285 9.086 31.9245 8.564 31.9245 7.898V7.7C31.9245 7.052 32.4285 6.512 33.0945 6.512H33.8325C34.4805 6.512 35.0025 7.052 35.0025 7.7V7.898ZM34.9305 14.864C34.9305 15.314 34.6065 15.656 33.9765 15.656H33.1305C32.5005 15.656 32.1765 15.314 32.1765 14.864V14.72C32.1765 14.288 32.5005 13.928 33.1305 13.928H33.9765C34.6065 13.928 34.9305 14.288 34.9305 14.72V14.864ZM45.0457 14H46.0717V4.82H43.8577V10.958C43.8577 11.588 43.4257 12.02 42.7957 12.02H42.2017C41.5717 12.02 41.1397 11.588 41.1397 10.958V4.82H38.9257V10.886C38.9257 12.992 40.0417 14.18 42.0397 14.18H42.0757C43.0297 14.18 43.8217 13.748 44.3797 12.974L45.0457 14ZM49.446 4.82H48.42V14H50.634V7.862C50.634 7.232 51.066 6.8 51.696 6.8H52.29C52.92 6.8 53.352 7.232 53.352 7.862V14H55.566V7.934C55.566 5.828 54.45 4.64 52.452 4.64H52.416C51.462 4.64 50.652 5.108 50.094 5.846L49.446 4.82ZM60.2723 11.84V3.56H62.5403C63.3863 3.56 63.9803 4.19 63.9803 5.036V10.364C63.9803 11.21 63.3863 11.84 62.5403 11.84H60.2723ZM58.0043 14H62.5763C64.6643 14 66.2483 12.434 66.2483 10.364V5.036C66.2483 2.966 64.6643 1.4 62.5763 1.4H58.0043V14ZM74.4861 14H75.5121V7.826C75.5121 6.026 74.1441 4.64 72.2181 4.64H71.7861C69.8601 4.64 68.4921 6.026 68.4921 7.826V7.88L70.7061 8.096V7.754C70.7061 7.232 71.1921 6.8 71.7861 6.8H72.2181C72.8121 6.8 73.2981 7.232 73.2981 7.754V8.708H71.3721C69.5181 8.708 68.4021 9.734 68.4021 11.246V11.606C68.4021 13.118 69.5181 14.18 71.3721 14.18H71.4081C72.4881 14.18 73.3701 13.73 73.8561 13.01L74.4861 14ZM70.6161 11.21C70.6161 10.724 70.9941 10.346 71.5521 10.346H73.2981V11.282C73.2981 11.768 72.8661 12.128 72.3801 12.128H71.5521C70.9941 12.128 70.6161 11.75 70.6161 11.264V11.21ZM82.7979 14V11.84H81.5919C80.9979 11.84 80.6919 11.534 80.6919 10.94V6.926H82.7979V4.82H80.6919V2.3L78.4779 2.66V4.82H76.8579V6.926H78.4779V11.048C78.4779 12.974 79.4859 14 81.4119 14H82.7979ZM90.6756 14H91.7016V7.826C91.7016 6.026 90.3336 4.64 88.4076 4.64H87.9756C86.0496 4.64 84.6816 6.026 84.6816 7.826V7.88L86.8956 8.096V7.754C86.8956 7.232 87.3816 6.8 87.9756 6.8H88.4076C89.0016 6.8 89.4876 7.232 89.4876 7.754V8.708H87.5616C85.7076 8.708 84.5916 9.734 84.5916 11.246V11.606C84.5916 13.118 85.7076 14.18 87.5616 14.18H87.5976C88.6776 14.18 89.5596 13.73 90.0456 13.01L90.6756 14ZM86.8056 11.21C86.8056 10.724 87.1836 10.346 87.7416 10.346H89.4876V11.282C89.4876 11.768 89.0556 12.128 88.5696 12.128H87.7416C87.1836 12.128 86.8056 11.75 86.8056 11.264V11.21ZM99.9233 10.544C99.9233 11.39 99.3293 12.02 98.4833 12.02H97.6553C96.8093 12.02 96.2153 11.39 96.2153 10.544V4.856C96.2153 4.01 96.8093 3.38 97.6553 3.38H98.4833C99.3293 3.38 99.9233 4.01 99.9233 4.856V5.72L102.191 5.504V4.856C102.191 2.786 100.607 1.22 98.5193 1.22H97.6193C95.5313 1.22 93.9473 2.786 93.9473 4.856V10.544C93.9473 12.614 95.5313 14.18 97.6193 14.18H98.5193C100.607 14.18 102.191 12.614 102.191 10.544V9.896L99.9233 9.68V10.544ZM109.106 10.94C109.106 11.534 108.62 12.02 108.026 12.02H107.468C106.874 12.02 106.388 11.534 106.388 10.94V9.824H111.32V7.952C111.32 6.044 109.952 4.64 108.026 4.64H107.468C105.542 4.64 104.174 6.044 104.174 7.952V10.868C104.174 12.776 105.542 14.18 107.468 14.18H108.026C109.952 14.18 111.32 12.776 111.32 10.868V10.85L109.106 10.634V10.94ZM106.388 7.88C106.388 7.286 106.874 6.8 107.468 6.8H108.026C108.62 6.8 109.106 7.286 109.106 7.88V8.438H106.388V7.88ZM114.503 4.82H113.477V14H115.691V7.862C115.691 7.232 116.123 6.8 116.753 6.8H117.347C117.977 6.8 118.409 7.232 118.409 7.862V14H120.623V7.934C120.623 5.828 119.507 4.64 117.509 4.64H117.473C116.519 4.64 115.709 5.108 115.151 5.846L114.503 4.82ZM127.921 14V11.84H126.715C126.121 11.84 125.815 11.534 125.815 10.94V6.926H127.921V4.82H125.815V2.3L123.601 2.66V4.82H121.981V6.926H123.601V11.048C123.601 12.974 124.609 14 126.535 14H127.921ZM134.647 10.94C134.647 11.534 134.161 12.02 133.567 12.02H133.009C132.415 12.02 131.929 11.534 131.929 10.94V9.824H136.861V7.952C136.861 6.044 135.493 4.64 133.567 4.64H133.009C131.083 4.64 129.715 6.044 129.715 7.952V10.868C129.715 12.776 131.083 14.18 133.009 14.18H133.567C135.493 14.18 136.861 12.776 136.861 10.868V10.85L134.647 10.634V10.94ZM131.929 7.88C131.929 7.286 132.415 6.8 133.009 6.8H133.567C134.161 6.8 134.647 7.286 134.647 7.88V8.438H131.929V7.88ZM140.044 4.82H139.018V14H141.232V7.952C141.232 7.322 141.664 6.89 142.294 6.89H144.076V4.64H143.014C142.06 4.64 141.25 5.108 140.692 5.846L140.044 4.82Z" fill="url(#paint0_linear_268_85)"/>
<path d="M5.5166 30.0791C5.5166 30.3617 5.46191 30.6283 5.35254 30.8789C5.24772 31.1296 5.10189 31.3483 4.91504 31.5352C4.72819 31.722 4.50944 31.8701 4.25879 31.9795C4.00814 32.0843 3.74154 32.1367 3.45898 32.1367H2.89844C2.61589 32.1367 2.34928 32.0843 2.09863 31.9795C1.84798 31.8701 1.62923 31.722 1.44238 31.5352C1.25553 31.3483 1.10742 31.1296 0.998047 30.8789C0.893229 30.6283 0.84082 30.3617 0.84082 30.0791V22.1973H1.68164V25.5879C1.87305 25.36 2.10319 25.1823 2.37207 25.0547C2.64095 24.9271 2.93262 24.8633 3.24707 24.8633H3.45898C3.74154 24.8633 4.00814 24.918 4.25879 25.0273C4.50944 25.1322 4.72819 25.278 4.91504 25.4648C5.10189 25.6517 5.24772 25.8704 5.35254 26.1211C5.46191 26.3717 5.5166 26.6383 5.5166 26.9209V30.0791ZM4.67578 26.873C4.67578 26.7044 4.64388 26.5472 4.58008 26.4014C4.51628 26.251 4.42969 26.1211 4.32031 26.0117C4.21094 25.9023 4.08105 25.8158 3.93066 25.752C3.78483 25.6882 3.6276 25.6562 3.45898 25.6562H2.89844C2.72982 25.6562 2.57031 25.6882 2.41992 25.752C2.27409 25.8158 2.14648 25.9023 2.03711 26.0117C1.92773 26.1211 1.84115 26.251 1.77734 26.4014C1.71354 26.5472 1.68164 26.7044 1.68164 26.873V30.127C1.68164 30.2956 1.71354 30.4551 1.77734 30.6055C1.84115 30.7513 1.92773 30.8789 2.03711 30.9883C2.14648 31.0977 2.27409 31.1842 2.41992 31.248C2.57031 31.3118 2.72982 31.3438 2.89844 31.3438H3.45898C3.6276 31.3438 3.78483 31.3118 3.93066 31.248C4.08105 31.1842 4.21094 31.0977 4.32031 30.9883C4.42969 30.8789 4.51628 30.7513 4.58008 30.6055C4.64388 30.4551 4.67578 30.2956 4.67578 30.127V26.873ZM8.33301 34.8027H7.51953L8.76367 31.3984L6.49414 25H7.33496L9.16016 30.3047L9.1875 30.667L9.21484 30.3047L11.0332 25H11.874L8.33301 34.8027ZM21.2803 32L17.1924 24.8633L17.1104 24.4395V32H16.2285V22.1973H16.6865L20.7744 29.3408L20.8633 29.7578V22.1973H21.7451V32H21.2803ZM29.5107 25.8271C29.5107 26.1598 29.4469 26.472 29.3193 26.7637C29.1963 27.0553 29.0254 27.3105 28.8066 27.5293C28.5879 27.748 28.3304 27.9212 28.0342 28.0488C27.7425 28.1719 27.4303 28.2334 27.0977 28.2334H24.876V32H23.9941V22.1973H27.0977C27.4303 22.1973 27.7425 22.2611 28.0342 22.3887C28.3304 22.5117 28.5879 22.6826 28.8066 22.9014C29.0254 23.1201 29.1963 23.3776 29.3193 23.6738C29.4469 23.9655 29.5107 24.2777 29.5107 24.6104V25.8271ZM28.6289 24.6104C28.6289 24.3916 28.5879 24.1888 28.5059 24.002C28.4238 23.8105 28.3099 23.6442 28.1641 23.5029C28.0228 23.3571 27.8564 23.2432 27.665 23.1611C27.4782 23.0791 27.2754 23.0381 27.0566 23.0381H24.876V27.3926H27.0566C27.2754 27.3926 27.4782 27.3516 27.665 27.2695C27.8564 27.1875 28.0228 27.0758 28.1641 26.9346C28.3099 26.7933 28.4238 26.6292 28.5059 26.4424C28.5879 26.251 28.6289 26.0459 28.6289 25.8271V24.6104ZM36.5723 29.7305C36.5723 30.0632 36.5039 30.3753 36.3672 30.667C36.235 30.9587 36.055 31.2139 35.8271 31.4326C35.6038 31.6514 35.3418 31.8245 35.041 31.9521C34.7448 32.0752 34.4303 32.1367 34.0977 32.1367H33.3936C33.0609 32.1367 32.7441 32.0752 32.4434 31.9521C32.1471 31.8245 31.8851 31.6514 31.6572 31.4326C31.4339 31.2139 31.2539 30.9587 31.1172 30.667C30.985 30.3753 30.9189 30.0632 30.9189 29.7305V29.3408L31.8008 29.1973V29.7305C31.8008 29.9492 31.8441 30.1543 31.9307 30.3457C32.0218 30.5326 32.1426 30.6989 32.293 30.8447C32.4434 30.986 32.6165 31.0977 32.8125 31.1797C33.013 31.2617 33.2227 31.3027 33.4414 31.3027H34.0566C34.2754 31.3027 34.4827 31.2617 34.6787 31.1797C34.8747 31.0977 35.0479 30.986 35.1982 30.8447C35.3486 30.6989 35.4671 30.5326 35.5537 30.3457C35.6449 30.1543 35.6904 29.9492 35.6904 29.7305V29.4365C35.6904 29.0993 35.6243 28.819 35.4922 28.5957C35.36 28.3724 35.1846 28.1833 34.9658 28.0283C34.7471 27.8688 34.4987 27.7344 34.2207 27.625C33.9473 27.5156 33.6647 27.4062 33.373 27.2969C33.0814 27.1875 32.7965 27.0667 32.5186 26.9346C32.2451 26.8024 31.999 26.6383 31.7803 26.4424C31.5615 26.2419 31.3861 25.998 31.2539 25.7109C31.1217 25.4238 31.0557 25.0706 31.0557 24.6514V24.4668C31.0557 24.1341 31.1172 23.8219 31.2402 23.5303C31.3678 23.2386 31.541 22.9834 31.7598 22.7646C31.9785 22.5459 32.2337 22.375 32.5254 22.252C32.8216 22.1243 33.1361 22.0605 33.4688 22.0605H34.0977C34.4303 22.0605 34.7425 22.1243 35.0342 22.252C35.3258 22.375 35.5811 22.5459 35.7998 22.7646C36.0186 22.9834 36.1895 23.2386 36.3125 23.5303C36.4401 23.8219 36.5039 24.1341 36.5039 24.4668V24.7197L35.6221 24.8633V24.4668C35.6221 24.248 35.5811 24.0452 35.499 23.8584C35.417 23.667 35.3053 23.5007 35.1641 23.3594C35.0228 23.2181 34.8564 23.1064 34.665 23.0244C34.4782 22.9424 34.2754 22.9014 34.0566 22.9014H33.5098C33.291 22.9014 33.0859 22.9424 32.8945 23.0244C32.7077 23.1064 32.5413 23.2181 32.3955 23.3594C32.2542 23.5007 32.1426 23.667 32.0605 23.8584C31.9785 24.0452 31.9375 24.248 31.9375 24.4668V24.6514C31.9375 24.9658 32.0036 25.2301 32.1357 25.4443C32.2679 25.6585 32.4434 25.8431 32.6621 25.998C32.8809 26.1484 33.127 26.2806 33.4004 26.3945C33.6784 26.5039 33.9632 26.6178 34.2549 26.7363C34.5465 26.8503 34.8291 26.9779 35.1025 27.1191C35.3805 27.2559 35.6289 27.4268 35.8477 27.6318C36.0664 27.8324 36.2419 28.0785 36.374 28.3701C36.5062 28.6618 36.5723 29.0173 36.5723 29.4365V29.7305ZM50.4424 25.8271C50.4424 26.1598 50.3786 26.472 50.251 26.7637C50.1279 27.0553 49.957 27.3105 49.7383 27.5293C49.5195 27.748 49.262 27.9212 48.9658 28.0488C48.6742 28.1719 48.362 28.2334 48.0293 28.2334H45.8076V32H44.9258V22.1973H48.0293C48.362 22.1973 48.6742 22.2611 48.9658 22.3887C49.262 22.5117 49.5195 22.6826 49.7383 22.9014C49.957 23.1201 50.1279 23.3776 50.251 23.6738C50.3786 23.9655 50.4424 24.2777 50.4424 24.6104V25.8271ZM49.5605 24.6104C49.5605 24.3916 49.5195 24.1888 49.4375 24.002C49.3555 23.8105 49.2415 23.6442 49.0957 23.5029C48.9544 23.3571 48.7881 23.2432 48.5967 23.1611C48.4098 23.0791 48.207 23.0381 47.9883 23.0381H45.8076V27.3926H47.9883C48.207 27.3926 48.4098 27.3516 48.5967 27.2695C48.7881 27.1875 48.9544 27.0758 49.0957 26.9346C49.2415 26.7933 49.3555 26.6292 49.4375 26.4424C49.5195 26.251 49.5605 26.0459 49.5605 25.8271V24.6104ZM56.5264 30.0791C56.5264 30.3617 56.4717 30.6283 56.3623 30.8789C56.2575 31.1296 56.1117 31.3483 55.9248 31.5352C55.738 31.722 55.5192 31.8701 55.2686 31.9795C55.0179 32.0843 54.7513 32.1367 54.4688 32.1367H53.9082C53.6257 32.1367 53.359 32.0843 53.1084 31.9795C52.8577 31.8701 52.639 31.722 52.4521 31.5352C52.2653 31.3483 52.1172 31.1296 52.0078 30.8789C51.903 30.6283 51.8506 30.3617 51.8506 30.0791V26.9209C51.8506 26.6383 51.903 26.3717 52.0078 26.1211C52.1172 25.8704 52.2653 25.6517 52.4521 25.4648C52.639 25.278 52.8577 25.1322 53.1084 25.0273C53.359 24.918 53.6257 24.8633 53.9082 24.8633H54.4688C54.7513 24.8633 55.0179 24.918 55.2686 25.0273C55.5192 25.1322 55.738 25.278 55.9248 25.4648C56.1117 25.6517 56.2575 25.8704 56.3623 26.1211C56.4717 26.3717 56.5264 26.6383 56.5264 26.9209V28.5684H52.6914V30.127C52.6914 30.2956 52.7233 30.4551 52.7871 30.6055C52.8509 30.7513 52.9375 30.8789 53.0469 30.9883C53.1562 31.0977 53.2839 31.1842 53.4297 31.248C53.5801 31.3118 53.7396 31.3438 53.9082 31.3438H54.4688C54.6374 31.3438 54.7946 31.3118 54.9404 31.248C55.0908 31.1842 55.2207 31.0977 55.3301 30.9883C55.4395 30.8789 55.526 30.7513 55.5898 30.6055C55.6536 30.4551 55.6855 30.2956 55.6855 30.127V29.6621L56.5264 29.7988V30.0791ZM55.6855 26.873C55.6855 26.7044 55.6536 26.5472 55.5898 26.4014C55.526 26.251 55.4395 26.1211 55.3301 26.0117C55.2207 25.9023 55.0908 25.8158 54.9404 25.752C54.7946 25.6882 54.6374 25.6562 54.4688 25.6562H53.9082C53.7396 25.6562 53.5801 25.6882 53.4297 25.752C53.2839 25.8158 53.1562 25.9023 53.0469 26.0117C52.9375 26.1211 52.8509 26.251 52.7871 26.4014C52.7233 26.5472 52.6914 26.7044 52.6914 26.873V27.9121H55.6855V26.873ZM65.5977 32V26.873C65.5977 26.7044 65.5658 26.5472 65.502 26.4014C65.4382 26.251 65.3516 26.1211 65.2422 26.0117C65.1328 25.9023 65.0029 25.8158 64.8525 25.752C64.7067 25.6882 64.5495 25.6562 64.3809 25.6562H63.9639C63.7952 25.6562 63.6357 25.6882 63.4854 25.752C63.3395 25.8158 63.2096 25.9023 63.0957 26.0117C62.9863 26.1211 62.8997 26.251 62.8359 26.4014C62.7721 26.5472 62.7402 26.7044 62.7402 26.873V32H61.9062V26.873C61.9062 26.7044 61.8743 26.5472 61.8105 26.4014C61.7467 26.251 61.6579 26.1211 61.5439 26.0117C61.4346 25.9023 61.3047 25.8158 61.1543 25.752C61.0085 25.6882 60.8512 25.6562 60.6826 25.6562H60.2656C60.097 25.6562 59.9375 25.6882 59.7871 25.752C59.6413 25.8158 59.5137 25.9023 59.4043 26.0117C59.2949 26.1211 59.2083 26.251 59.1445 26.4014C59.0807 26.5472 59.0488 26.7044 59.0488 26.873V32H58.208V25H58.4883L58.9463 25.7109C59.1377 25.4512 59.377 25.2461 59.6641 25.0957C59.9557 24.9408 60.2725 24.8633 60.6143 24.8633H60.6826C61.0791 24.8633 61.4368 24.9613 61.7559 25.1572C62.0749 25.3532 62.321 25.613 62.4941 25.9365C62.5807 25.777 62.6878 25.6312 62.8154 25.499C62.943 25.3669 63.0843 25.2552 63.2393 25.1641C63.3942 25.0684 63.5628 24.9954 63.7451 24.9453C63.9274 24.8906 64.1165 24.8633 64.3125 24.8633H64.3809C64.6634 24.8633 64.93 24.918 65.1807 25.0273C65.4313 25.1322 65.6501 25.278 65.8369 25.4648C66.0238 25.6517 66.1696 25.8704 66.2744 26.1211C66.3838 26.3717 66.4385 26.6383 66.4385 26.9209V32H65.5977ZM72.5156 32L72.0508 31.2891C71.8594 31.5488 71.6201 31.7562 71.333 31.9111C71.0459 32.0615 70.7314 32.1367 70.3896 32.1367H70.1777C69.8952 32.1367 69.6286 32.0843 69.3779 31.9795C69.1273 31.8701 68.9085 31.722 68.7217 31.5352C68.5348 31.3483 68.3867 31.1296 68.2773 30.8789C68.1725 30.6283 68.1201 30.3617 68.1201 30.0791V25H68.9609V30.127C68.9609 30.2956 68.9928 30.4551 69.0566 30.6055C69.1204 30.7513 69.207 30.8789 69.3164 30.9883C69.4258 31.0977 69.5534 31.1842 69.6992 31.248C69.8496 31.3118 70.0091 31.3438 70.1777 31.3438H70.7383C70.9069 31.3438 71.0641 31.3118 71.21 31.248C71.3604 31.1842 71.4902 31.0977 71.5996 30.9883C71.709 30.8789 71.7956 30.7513 71.8594 30.6055C71.9232 30.4551 71.9551 30.2956 71.9551 30.127V25H72.7959V32H72.5156ZM78.873 32L78.4082 31.2891C78.2168 31.5488 77.9775 31.7562 77.6904 31.9111C77.4033 32.0615 77.0889 32.1367 76.7471 32.1367H76.5352C76.2526 32.1367 75.986 32.0843 75.7354 31.9795C75.4847 31.8701 75.266 31.722 75.0791 31.5352C74.8923 31.3483 74.7441 31.1296 74.6348 30.8789C74.5299 30.6283 74.4775 30.3617 74.4775 30.0791V26.9209C74.4775 26.6383 74.5299 26.3717 74.6348 26.1211C74.7441 25.8704 74.8923 25.6517 75.0791 25.4648C75.266 25.278 75.4847 25.1322 75.7354 25.0273C75.986 24.918 76.2526 24.8633 76.5352 24.8633H76.7471C77.0615 24.8633 77.3532 24.9271 77.6221 25.0547C77.891 25.1823 78.1211 25.36 78.3125 25.5879V22.1973H79.1533V32H78.873ZM78.3125 26.873C78.3125 26.7044 78.2806 26.5472 78.2168 26.4014C78.153 26.251 78.0664 26.1211 77.957 26.0117C77.8477 25.9023 77.7178 25.8158 77.5674 25.752C77.4215 25.6882 77.2643 25.6562 77.0957 25.6562H76.5352C76.3665 25.6562 76.207 25.6882 76.0566 25.752C75.9108 25.8158 75.7832 25.9023 75.6738 26.0117C75.5645 26.1211 75.4779 26.251 75.4141 26.4014C75.3503 26.5472 75.3184 26.7044 75.3184 26.873V30.127C75.3184 30.2956 75.3503 30.4551 75.4141 30.6055C75.4779 30.7513 75.5645 30.8789 75.6738 30.9883C75.7832 31.0977 75.9108 31.1842 76.0566 31.248C76.207 31.3118 76.3665 31.3438 76.5352 31.3438H77.0957C77.2643 31.3438 77.4215 31.3118 77.5674 31.248C77.7178 31.1842 77.8477 31.0977 77.957 30.9883C78.0664 30.8789 78.153 30.7513 78.2168 30.6055C78.2806 30.4551 78.3125 30.2956 78.3125 30.127V26.873ZM85.2305 32L84.7656 31.3027C84.5742 31.5534 84.335 31.7562 84.0479 31.9111C83.7607 32.0615 83.4463 32.1367 83.1045 32.1367H82.8926C82.61 32.1367 82.3434 32.0843 82.0928 31.9795C81.8421 31.8701 81.6234 31.722 81.4365 31.5352C81.2497 31.3483 81.1016 31.1296 80.9922 30.8789C80.8874 30.6283 80.835 30.3617 80.835 30.0791V30.0107C80.835 29.7282 80.8874 29.4616 80.9922 29.2109C81.1016 28.9603 81.2497 28.7415 81.4365 28.5547C81.6234 28.3678 81.8421 28.222 82.0928 28.1172C82.3434 28.0078 82.61 27.9531 82.8926 27.9531H84.6699V26.873C84.6699 26.7044 84.638 26.5472 84.5742 26.4014C84.5104 26.251 84.4238 26.1211 84.3145 26.0117C84.2051 25.9023 84.0752 25.8158 83.9248 25.752C83.779 25.6882 83.6217 25.6562 83.4531 25.6562H82.9609C82.7923 25.6562 82.6328 25.6882 82.4824 25.752C82.3366 25.8158 82.209 25.9023 82.0996 26.0117C81.9902 26.1211 81.9036 26.251 81.8398 26.4014C81.776 26.5472 81.7441 26.7044 81.7441 26.873V27.126L80.9033 26.9893V26.9209C80.9033 26.6383 80.9557 26.3717 81.0605 26.1211C81.1699 25.8704 81.318 25.6517 81.5049 25.4648C81.6917 25.278 81.9105 25.1322 82.1611 25.0273C82.4118 24.918 82.6784 24.8633 82.9609 24.8633H83.4531C83.7357 24.8633 84.0023 24.918 84.2529 25.0273C84.5036 25.1322 84.7223 25.278 84.9092 25.4648C85.096 25.6517 85.2419 25.8704 85.3467 26.1211C85.4561 26.3717 85.5107 26.6383 85.5107 26.9209V32H85.2305ZM84.6699 28.6094H82.8926C82.724 28.6094 82.5645 28.6413 82.4141 28.7051C82.2682 28.7689 82.1406 28.8577 82.0312 28.9717C81.9219 29.0811 81.8353 29.2109 81.7715 29.3613C81.7077 29.5072 81.6758 29.6644 81.6758 29.833V30.127C81.6758 30.2956 81.7077 30.4551 81.7715 30.6055C81.8353 30.7513 81.9219 30.8789 82.0312 30.9883C82.1406 31.0977 82.2682 31.1842 82.4141 31.248C82.5645 31.3118 82.724 31.3438 82.8926 31.3438H83.4531C83.6217 31.3438 83.779 31.3118 83.9248 31.248C84.0752 31.1842 84.2051 31.0977 84.3145 30.9883C84.4238 30.8789 84.5104 30.7513 84.5742 30.6055C84.638 30.4551 84.6699 30.2956 84.6699 30.127V28.6094Z" fill="white"/>
<defs>
<linearGradient id="paint0_linear_268_85" x1="24.7476" y1="-24.2609" x2="259.181" y2="149.76" gradientUnits="userSpaceOnUse">
<stop stop-color="#FFF965"/>
<stop offset="0.90625" stop-color="#79FF76"/>
</linearGradient>
</defs>
</svg>
